SplineFontDB: 3.0
FontName: ocr-pbi-canonique
FullName: ocr-pbi-canonique
FamilyName: ocr-pbi-canonique
Weight: Book
Copyright: Generated from MetaFont bitmap by mftrace 1.2.18, http://www.xs4all.nl/~hanwen/mftrace/ 
Version: 001.001
ItalicAngle: 0
UnderlinePosition: -150
UnderlineWidth: 50
Ascent: 800
Descent: 200
InvalidEm: 0
sfntRevision: 0x00010041
LayerCount: 2
Layer: 0 1 "Arri+AOgA-re" 1
Layer: 1 1 "Avant" 0
XUID: [1021 976 309835248 10363895]
StyleMap: 0x0000
FSType: 0
OS2Version: 1
OS2_WeightWidthSlopeOnly: 0
OS2_UseTypoMetrics: 0
CreationTime: 1468328962
ModificationTime: 1468331188
PfmFamily: 17
TTFWeight: 400
TTFWidth: 5
LineGap: 90
VLineGap: 0
Panose: 2 0 5 9 0 0 0 0 0 0
OS2TypoAscent: 800
OS2TypoAOffset: 0
OS2TypoDescent: -200
OS2TypoDOffset: 0
OS2TypoLinegap: 90
OS2WinAscent: 932
OS2WinAOffset: 0
OS2WinDescent: 332
OS2WinDOffset: 0
HheadAscent: 932
HheadAOffset: 0
HheadDescent: -332
HheadDOffset: 0
OS2SubXSize: 650
OS2SubYSize: 700
OS2SubXOff: 0
OS2SubYOff: 140
OS2SupXSize: 650
OS2SupYSize: 700
OS2SupXOff: 0
OS2SupYOff: 480
OS2StrikeYSize: 49
OS2StrikeYPos: 258
OS2Vendor: 'PfEd'
OS2CodePages: 00000001.00000000
OS2UnicodeRanges: 8000002f.40000000.00000000.00000000
DEI: 91125
ShortTable: maxp 16
  1
  0
  141
  162
  5
  0
  0
  2
  0
  1
  1
  0
  64
  0
  0
  0
EndShort
LangName: 1033 "" "" "" "FontForge 2.0 : ocr-pbi-canonique : 12-7-2016"
GaspTable: 1 65535 2 0
Encoding: ISO8859-1
UnicodeInterp: none
NameList: AGL For New Fonts
DisplaySize: -48
AntiAlias: 1
FitToEm: 0
WinInfo: 50 25 10
BeginChars: 296 165

StartChar: grave
Encoding: 96 96 3
Width: 654
GlyphClass: 2
Flags: W
LayerCount: 2
Fore
SplineSet
326 575 m 14,0,-1
 264 646 l 29,1,-1
 254 688 l 5,2,-1
 312 745 l 5,3,-1
 312 745 l 5,4,-1
 353 737 l 5,5,-1
 377 714 l 5,6,-1
 475 566 l 5,7,-1
 574 418 l 5,8,-1
 549 393 l 5,9,-1
 525 368 l 5,10,-1
 500 392 l 6,11,-1
 401 496 l 6,12,-1
 326 575 l 14,0,-1
EndSplineSet
Validated: 5
EndChar

StartChar: acute
Encoding: 180 180 4
Width: 654
GlyphClass: 2
Flags: W
LayerCount: 2
Fore
SplineSet
482 575 m 22,0,-1
 407 496 l 6,1,2
 308 392 l 6,3,-1
 283 368 l 5,4,-1
 259 393 l 5,5,-1
 234 418 l 5,6,-1
 333 566 l 5,7,-1
 431 714 l 5,8,-1
 455 737 l 5,9,-1
 496 745 l 5,10,-1
 496 745 l 5,11,-1
 554 688 l 5,12,-1
 544 646 l 29,13,-1
 482 575 l 22,0,-1
EndSplineSet
Validated: 5
EndChar

StartChar: circumflex
Encoding: 259 710 5
Width: 654
GlyphClass: 2
Flags: W
LayerCount: 2
Fore
SplineSet
303 736 m 5,0,-1
 329 761 l 5,1,-1
 353 737 l 5,2,-1
 377 714 l 5,3,-1
 475 566 l 5,4,-1
 574 418 l 5,5,-1
 549 393 l 5,6,-1
 525 368 l 5,7,-1
 500 392 l 6,8,9
 494 399 494 399 401 496 c 6,10,-1
 326 575 l 6,11,12
 325 575 325 575 247 493 c 4,13,14
 157 399 157 399 148 389 c 6,15,-1
 126 368 l 5,16,-1
 103 390 l 5,17,-1
 80 413 l 5,18,-1
 179 562 l 5,19,-1
 278 711 l 5,20,-1
 303 736 l 5,0,-1
EndSplineSet
Validated: 1
EndChar

StartChar: tilde
Encoding: 260 732 6
Width: 654
GlyphClass: 2
Flags: W
LayerCount: 2
Fore
SplineSet
304 677 m 1,0,-1
 329 702 l 1,1,2
 340 692 340 692 352 679 c 2,3,-1
 375 657 l 1,4,-1
 442 367 l 1,5,-1
 509 78 l 1,6,-1
 527 59 l 1,7,-1
 545 41 l 1,8,-1
 521 16 l 1,9,-1
 497 -8 l 1,10,-1
 468 -8 l 1,11,-1
 439 -8 l 1,12,-1
 417 15 l 1,13,-1
 394 38 l 1,14,-1
 405 49 l 2,15,16
 416 60 416 60 416 62 c 0,17,18
 416 63 416 63 372 253.5 c 128,-1,19
 328 444 328 444 327 445 c 0,20,21
 327 446 327 446 322 424 c 128,-1,22
 317 402 317 402 306 357 c 128,-1,23
 295 312 295 312 282 256 c 2,24,-1
 238 65 l 1,25,-1
 249 53 l 1,26,-1
 261 41 l 1,27,-1
 236 17 l 1,28,-1
 211 -8 l 1,29,-1
 183 -8 l 1,30,-1
 155 -8 l 1,31,-1
 132 15 l 1,32,-1
 109 37 l 1,33,-1
 127 56 l 1,34,-1
 146 75 l 1,35,-1
 213 364 l 1,36,-1
 279 653 l 1,37,-1
 304 677 l 1,0,-1
EndSplineSet
Validated: 1
EndChar

StartChar: dieresis
Encoding: 168 168 7
Width: 654
GlyphClass: 2
Flags: W
LayerCount: 2
Fore
SplineSet
219 871 m 5,0,-1
 243 896 l 5,1,-1
 266 873 l 5,2,-1
 289 851 l 5,3,-1
 289 822 l 5,4,-1
 289 794 l 5,5,-1
 264 769 l 5,6,-1
 240 744 l 5,7,-1
 217 767 l 5,8,-1
 194 789 l 5,9,-1
 194 818 l 5,10,-1
 194 846 l 5,11,-1
 219 871 l 5,0,-1
390 871 m 5,12,-1
 414 896 l 5,13,-1
 437 873 l 5,14,-1
 460 851 l 5,15,-1
 460 822 l 5,16,-1
 460 794 l 5,17,-1
 435 769 l 5,18,-1
 411 744 l 5,19,-1
 388 767 l 5,20,-1
 365 789 l 5,21,-1
 365 818 l 5,22,-1
 365 846 l 5,23,-1
 390 871 l 5,12,-1
EndSplineSet
Validated: 1
EndChar

StartChar: hungarumlaut
Encoding: 261 733 8
Width: 654
GlyphClass: 2
Flags: W
LayerCount: 2
Fore
SplineSet
105 684 m 1,0,-1
 129 708 l 1,1,-1
 329 708 l 1,2,-1
 529 708 l 1,3,-1
 551 685 l 1,4,-1
 574 662 l 1,5,-1
 560 648 l 1,6,-1
 545 634 l 1,7,-1
 545 338 l 1,8,-1
 545 42 l 1,9,-1
 520 17 l 1,10,-1
 496 -8 l 1,11,-1
 473 15 l 1,12,-1
 450 37 l 1,13,-1
 450 325 l 1,14,-1
 450 613 l 1,15,-1
 327 613 l 1,16,-1
 204 613 l 1,17,-1
 204 327 l 1,18,-1
 204 42 l 1,19,-1
 179 17 l 1,20,-1
 155 -8 l 1,21,-1
 132 15 l 1,22,-1
 109 37 l 1,23,-1
 109 334 l 1,24,-1
 109 630 l 1,25,-1
 95 645 l 1,26,-1
 81 659 l 1,27,-1
 105 684 l 1,0,-1
EndSplineSet
Validated: 1
EndChar

StartChar: ring
Encoding: 262 730 9
Width: 654
GlyphClass: 2
Flags: W
LayerCount: 2
Fore
SplineSet
150 672 m 1,0,-1
 174 696 l 1,1,-1
 346 696 l 1,2,-1
 517 696 l 1,3,-1
 540 673 l 1,4,-1
 563 651 l 1,5,-1
 563 636 l 1,6,-1
 563 621 l 1,7,-1
 539 597 l 1,8,-1
 514 573 l 1,9,-1
 500 587 l 1,10,-1
 485 601 l 1,11,-1
 363 601 l 1,12,-1
 240 601 l 2,13,14
 240 600 240 600 285 479 c 0,15,16
 296 450 296 450 307.5 419 c 128,-1,17
 319 388 319 388 325 372 c 128,-1,18
 331 356 331 356 331 355 c 0,19,20
 332 351 332 351 286 226 c 2,21,-1
 239 100 l 2,22,23
 239 99 239 99 364 99 c 2,24,-1
 488 99 l 1,25,-1
 503 113 l 1,26,-1
 517 127 l 1,27,-1
 540 104 l 1,28,-1
 563 82 l 1,29,-1
 563 67 l 1,30,-1
 563 53 l 1,31,-1
 539 28 l 1,32,-1
 515 4 l 1,33,-1
 343 4 l 1,34,-1
 171 4 l 1,35,-1
 149 27 l 1,36,-1
 126 50 l 1,37,-1
 181 199 l 1,38,-1
 237 348 l 1,39,-1
 181 498 l 1,40,-1
 126 647 l 1,41,-1
 150 672 l 1,0,-1
EndSplineSet
Validated: 33
EndChar

StartChar: caron
Encoding: 263 711 10
Width: 654
GlyphClass: 2
Flags: W
LayerCount: 2
Fore
SplineSet
228 674 m 0,0,1
 251 678 251 678 271 670 c 0,2,3
 285 664 285 664 309 640 c 2,4,-1
 330 620 l 1,5,-1
 348 638 l 2,6,7
 372 662 372 662 384 668 c 0,8,9
 419 684 419 684 452 665 c 0,10,11
 459 661 459 661 489 631 c 0,12,13
 520 600 520 600 524 591 c 0,14,15
 527 586 527 586 530 577 c 2,16,-1
 531 571 l 1,17,-1
 507 546 l 1,18,-1
 482 522 l 1,19,-1
 459 544 l 2,20,21
 436 567 436 567 435 572 c 128,-1,22
 434 577 434 577 429 578 c 0,23,24
 413 582 413 582 395 578 c 2,25,-1
 387 576 l 1,26,-1
 385 569 l 2,27,28
 383 565 383 565 377 542 c 0,29,30
 376 535 376 535 375 286 c 2,31,-1
 375 39 l 1,32,-1
 350 14 l 1,33,-1
 326 -11 l 1,34,-1
 303 12 l 1,35,-1
 280 34 l 1,36,-1
 280 282 l 1,37,-1
 279 530 l 1,38,-1
 277 541 l 2,39,40
 276 546 276 546 272 559.5 c 128,-1,41
 268 573 268 573 267 574 c 0,42,43
 264 577 264 577 247 579 c 0,44,45
 239 580 239 580 229 579 c 0,46,47
 220 578 220 578 220 574 c 0,48,49
 220 573 220 573 194 546 c 2,50,-1
 169 522 l 1,51,-1
 146 545 l 1,52,-1
 123 568 l 1,53,-1
 125 576 l 2,54,55
 130 592 130 592 165 628 c 0,56,57
 192 655 192 655 202.5 662.5 c 128,-1,58
 213 670 213 670 228 674 c 0,0,1
EndSplineSet
Validated: 33
EndChar

StartChar: breve
Encoding: 264 728 11
Width: 654
GlyphClass: 2
Flags: W
LayerCount: 2
Fore
SplineSet
276 634 m 1,0,-1
 300 659 l 1,1,-1
 329 659 l 1,2,-1
 358 659 l 1,3,-1
 380 636 l 1,4,-1
 403 613 l 1,5,-1
 389 599 l 1,6,-1
 375 584 l 1,7,-1
 375 560 l 1,8,-1
 375 535 l 1,9,-1
 379 535 l 1,10,11
 414 526 414 526 444 505 c 0,12,13
 453 499 453 499 484.5 468 c 128,-1,14
 516 437 516 437 525 426 c 0,15,16
 562 380 562 380 572 310 c 0,17,18
 577 268 577 268 573 235 c 0,19,20
 566 152 566 152 523 102 c 0,21,22
 513 91 513 91 482 60 c 128,-1,23
 451 29 451 29 444 24 c 0,24,25
 418 5 418 5 386 -5 c 2,26,-1
 376 -8 l 1,27,-1
 375 -32 l 1,28,-1
 375 -55 l 1,29,-1
 389 -70 l 1,30,-1
 403 -84 l 1,31,-1
 379 -109 l 1,32,-1
 355 -133 l 1,33,-1
 325 -133 l 1,34,-1
 296 -133 l 1,35,-1
 274 -110 l 1,36,-1
 251 -87 l 1,37,-1
 265 -73 l 1,38,-1
 280 -59 l 1,39,-1
 280 -33 l 2,40,41
 280 -8 280 -8 278 -8 c 0,42,43
 269 -8 269 -8 245 3 c 0,44,45
 225 11 225 11 208 24 c 0,46,47
 201 29 201 29 171.5 58.5 c 128,-1,48
 142 88 142 88 132 99 c 0,49,50
 92 147 92 147 83 221 c 0,51,52
 82 232 82 232 82 261 c 128,-1,53
 82 290 82 290 83 301 c 0,54,55
 92 377 92 377 132 426 c 0,56,57
 143 438 143 438 174.5 469 c 128,-1,58
 206 500 206 500 214 505 c 0,59,60
 240 523 240 523 266 531 c 0,61,62
 268 532 268 532 270.5 532.5 c 128,-1,63
 273 533 273 533 274.5 533.5 c 128,-1,64
 276 534 276 534 278 534 c 2,65,-1
 279 535 l 2,66,67
 280 535 280 535 280 558 c 2,68,-1
 280 581 l 1,69,-1
 265 595 l 1,70,-1
 251 609 l 1,71,-1
 276 634 l 1,0,-1
280 264 m 2,72,73
 280 440 280 440 279 440 c 0,74,75
 256 436 256 436 236 425 c 0,76,77
 217 416 217 416 212 409 c 0,78,79
 171 342 171 342 177 242 c 0,80,81
 181 174 181 174 212 123 c 0,82,83
 217 115 217 115 226 110 c 0,84,85
 255 92 255 92 277 89 c 1,86,-1
 280 88 l 1,87,-1
 280 264 l 2,72,73
392 434 m 0,88,89
 380 438 380 438 378 438 c 2,90,-1
 375 439 l 1,91,-1
 375 263 l 2,92,93
 375 87 375 87 376 87 c 0,94,95
 387 87 387 87 405 96 c 0,96,97
 425 104 425 104 435 111 c 0,98,99
 439 113 439 113 446 124 c 0,100,101
 482 187 482 187 479 273 c 0,102,103
 476 340 476 340 452 388 c 0,104,105
 441 410 441 410 431 416 c 0,106,107
 409 429 409 429 392 434 c 0,88,89
EndSplineSet
Validated: 33
EndChar

StartChar: macron
Encoding: 175 175 12
Width: 654
GlyphClass: 2
Flags: W
LayerCount: 2
Fore
SplineSet
305 606 m 1,0,-1
 329 631 l 1,1,-1
 352 608 l 1,2,-1
 375 586 l 1,3,-1
 375 342 l 1,4,-1
 375 99 l 1,5,-1
 380 108 l 2,6,7
 402 153 402 153 411 234 c 0,8,9
 424 334 424 334 435 539 c 2,10,-1
 436 568 l 1,11,-1
 461 592 l 1,12,-1
 485 617 l 1,13,-1
 508 594 l 1,14,-1
 531 571 l 1,15,-1
 530 546 l 2,16,17
 520 358 520 358 507 238 c 0,18,19
 496 138 496 138 462 88 c 0,20,21
 456 79 456 79 422 45 c 0,22,23
 390 11 390 11 382 7 c 2,24,-1
 375 2 l 1,25,-1
 375 -27 l 1,26,-1
 375 -56 l 1,27,-1
 351 -80 l 1,28,-1
 326 -104 l 1,29,-1
 303 -82 l 1,30,-1
 280 -59 l 1,31,-1
 280 -30 l 1,32,-1
 280 -1 l 1,33,-1
 273 4 l 2,34,35
 265 9 265 9 233 41 c 128,-1,36
 201 73 201 73 194 83 c 0,37,38
 177 106 177 106 167 137 c 0,39,40
 154 175 154 175 148 235 c 0,41,42
 135 342 135 342 123 557 c 1,43,-1
 123 568 l 1,44,-1
 148 592 l 1,45,-1
 173 617 l 1,46,-1
 195 594 l 1,47,-1
 218 571 l 1,48,-1
 220 538 l 2,49,50
 226 438 226 438 236 315 c 0,51,52
 244 211 244 211 254 172 c 0,53,54
 262 132 262 132 277 106 c 2,55,-1
 280 102 l 1,56,-1
 280 341 l 1,57,-1
 280 581 l 1,58,-1
 305 606 l 1,0,-1
EndSplineSet
Validated: 1
EndChar

StartChar: dotaccent
Encoding: 265 729 13
Width: 654
GlyphClass: 2
Flags: W
LayerCount: 2
Fore
SplineSet
308 815 m 0,0,1
 314 816 314 816 335.5 815.5 c 128,-1,2
 357 815 357 815 364 814 c 0,3,4
 416 805 416 805 457 772 c 0,5,6
 465 765 465 765 496 734.5 c 128,-1,7
 527 704 527 704 532 697 c 0,8,9
 571 641 571 641 574 564 c 0,10,11
 575 520 575 520 564 480 c 0,12,13
 563 477 563 477 556.5 448.5 c 128,-1,14
 550 420 550 420 537 366 c 128,-1,15
 524 312 524 312 513 264 c 2,16,-1
 466 60 l 1,17,-1
 477 48 l 1,18,-1
 489 36 l 1,19,-1
 464 12 l 1,20,-1
 439 -13 l 1,21,-1
 425 -13 l 1,22,-1
 410 -13 l 1,23,-1
 388 10 l 1,24,-1
 365 33 l 1,25,-1
 415 248 l 2,26,27
 427 299 427 299 440.5 355.5 c 128,-1,28
 454 412 454 412 461 443.5 c 128,-1,29
 468 475 468 475 469 478 c 0,30,31
 483 534 483 534 476 589 c 0,32,33
 470 639 470 639 446 679 c 0,34,35
 442 686 442 686 430 693 c 0,36,37
 392 716 392 716 343 720 c 0,38,39
 298 725 298 725 253 708 c 0,40,41
 236 703 236 703 216 691 c 0,42,43
 210 687 210 687 205 678 c 0,44,45
 185 645 185 645 177 598 c 0,46,47
 173 563 173 563 178 527 c 0,48,49
 186 459 186 459 235 249 c 0,50,51
 239 232 239 232 247 199.5 c 128,-1,52
 255 167 255 167 265 129 c 128,-1,53
 275 91 275 91 277 81 c 0,54,55
 284 58 284 58 287 44 c 2,56,-1
 289 36 l 1,57,-1
 265 11 l 1,58,-1
 241 -13 l 1,59,-1
 226 -13 l 1,60,-1
 211 -13 l 1,61,-1
 189 10 l 1,62,-1
 166 33 l 1,63,-1
 177 44 l 1,64,-1
 188 56 l 1,65,-1
 180 83 l 1,66,67
 137 245 137 245 96 446 c 0,68,69
 80 527 80 527 80 562 c 0,70,71
 80 639 80 639 123 695 c 0,72,73
 128 701 128 701 159 732.5 c 128,-1,74
 190 764 190 764 198 770 c 0,75,76
 243 808 243 808 308 815 c 0,0,1
EndSplineSet
Validated: 33
EndChar

StartChar: cedilla
Encoding: 184 184 14
Width: 654
GlyphClass: 2
Flags: W
LayerCount: 2
Fore
SplineSet
233 600 m 1,0,-1
 329 696 l 1,1,2
 372 654 372 654 423 602 c 2,3,-1
 517 509 l 1,4,-1
 492 484 l 1,5,-1
 468 459 l 1,6,-1
 421 505 l 1,7,-1
 375 551 l 1,8,-1
 375 297 l 1,9,-1
 375 42 l 1,10,-1
 350 17 l 1,11,-1
 326 -8 l 1,12,-1
 303 15 l 1,13,-1
 280 37 l 1,14,-1
 280 296 l 1,15,-1
 280 555 l 1,16,-1
 232 507 l 1,17,-1
 183 459 l 1,18,-1
 160 482 l 1,19,-1
 137 504 l 1,20,-1
 233 600 l 1,0,-1
EndSplineSet
Validated: 1
EndChar

StartChar: ogonek
Encoding: 266 731 15
Width: 654
GlyphClass: 2
Flags: W
LayerCount: 2
Fore
SplineSet
304 672 m 1,0,-1
 329 696 l 1,1,2
 340 686 340 686 352 673 c 2,3,-1
 375 651 l 1,4,-1
 375 392 l 1,5,-1
 375 134 l 1,6,-1
 423 182 l 1,7,-1
 472 230 l 1,8,-1
 495 207 l 1,9,-1
 517 184 l 1,10,-1
 421 88 l 1,11,-1
 326 -8 l 1,12,-1
 231 86 l 1,13,-1
 137 180 l 1,14,-1
 162 205 l 1,15,-1
 186 230 l 1,16,-1
 233 183 l 1,17,-1
 280 137 l 1,18,-1
 280 392 l 1,19,-1
 280 647 l 1,20,-1
 304 672 l 1,0,-1
EndSplineSet
Validated: 1
EndChar

StartChar: quotesinglbase
Encoding: 267 8218 16
Width: 654
GlyphClass: 2
Flags: W
LayerCount: 2
Fore
SplineSet
305 657 m 1,0,-1
 329 682 l 1,1,-1
 352 659 l 1,2,-1
 375 637 l 1,3,-1
 375 594 l 1,4,-1
 375 550 l 1,5,-1
 351 526 l 1,6,-1
 326 502 l 1,7,-1
 303 524 l 1,8,-1
 280 547 l 1,9,-1
 280 590 l 1,10,-1
 280 632 l 1,11,-1
 305 657 l 1,0,-1
EndSplineSet
Validated: 1
EndChar

StartChar: guilsinglleft
Encoding: 268 8249 17
Width: 654
GlyphClass: 2
Flags: W
LayerCount: 2
Fore
SplineSet
281 416 m 1,0,-1
 305 440 l 1,1,-1
 328 440 l 1,2,-1
 351 440 l 1,3,-1
 374 417 l 1,4,-1
 397 395 l 1,5,-1
 397 372 l 1,6,-1
 397 349 l 1,7,-1
 373 324 l 1,8,-1
 349 300 l 1,9,-1
 326 300 l 1,10,-1
 303 300 l 1,11,-1
 280 323 l 1,12,-1
 257 345 l 1,13,-1
 257 368 l 1,14,-1
 257 391 l 1,15,-1
 281 416 l 1,0,-1
305 242 m 1,16,-1
 329 267 l 1,17,-1
 352 244 l 1,18,-1
 375 222 l 1,19,-1
 375 26 l 1,20,-1
 375 -170 l 1,21,-1
 351 -194 l 1,22,-1
 326 -218 l 1,23,-1
 303 -196 l 1,24,-1
 280 -173 l 1,25,-1
 280 22 l 1,26,-1
 280 217 l 1,27,-1
 305 242 l 1,16,-1
EndSplineSet
Validated: 1
EndChar

StartChar: guilsinglright
Encoding: 269 8250 18
Width: 654
GlyphClass: 2
Flags: W
LayerCount: 2
Fore
SplineSet
281 533 m 1,0,-1
 305 557 l 1,1,-1
 328 557 l 1,2,-1
 351 557 l 1,3,-1
 374 534 l 1,4,-1
 397 512 l 1,5,-1
 397 488 l 1,6,-1
 397 465 l 1,7,-1
 373 440 l 1,8,-1
 349 416 l 1,9,-1
 326 416 l 1,10,-1
 303 416 l 1,11,-1
 280 439 l 1,12,-1
 257 461 l 1,13,-1
 257 485 l 1,14,-1
 257 508 l 1,15,-1
 281 533 l 1,0,-1
304 308 m 1,16,-1
 329 332 l 1,17,18
 340 322 340 322 352 309 c 2,19,-1
 375 287 l 1,20,-1
 375 241 l 2,21,22
 375 195 375 195 373 187 c 0,23,24
 369 170 369 170 356 153 c 0,25,26
 350 145 350 145 317 112 c 128,-1,27
 284 79 284 79 272 68 c 0,28,29
 249 48 249 48 240 21 c 0,30,31
 230 -7 230 -7 232.5 -39.5 c 128,-1,32
 235 -72 235 -72 247 -94 c 0,33,34
 249 -100 249 -100 259 -104 c 0,35,36
 286 -119 286 -119 327 -122 c 0,37,38
 377 -127 377 -127 426 -104 c 2,39,-1
 435 -99 l 1,40,-1
 439 -90 l 2,41,42
 449 -68 449 -68 450 -44 c 2,43,-1
 450 -30 l 1,44,-1
 475 -6 l 1,45,-1
 499 19 l 1,46,-1
 523 -4 l 1,47,-1
 546 -27 l 1,48,-1
 546 -39 l 2,49,50
 543 -79 543 -79 521 -110 c 0,51,52
 515 -117 515 -117 481.5 -150.5 c 128,-1,53
 448 -184 448 -184 442 -188 c 0,54,55
 396 -219 396 -219 333.5 -218 c 128,-1,56
 271 -217 271 -217 231 -184 c 0,57,58
 221 -176 221 -176 192 -146.5 c 128,-1,59
 163 -117 163 -117 159 -111 c 0,60,61
 138 -79 138 -79 137 -36 c 0,62,63
 137 -6 137 -6 143 13 c 0,64,65
 148 33 148 33 164 55 c 0,66,67
 170 63 170 63 204 98 c 128,-1,68
 238 133 238 133 251 143 c 0,69,70
 268 157 268 157 275 175 c 0,71,72
 280 191 280 191 280 240 c 2,73,-1
 280 283 l 1,74,-1
 304 308 l 1,16,-1
EndSplineSet
Validated: 33
EndChar

StartChar: quotedblleft
Encoding: 270 8220 19
Width: 654
GlyphClass: 2
Flags: W
LayerCount: 2
Fore
SplineSet
173 496 m 1,0,-1
 197 520 l 1,1,-1
 287 520 l 1,2,-1
 377 520 l 1,3,-1
 400 497 l 1,4,-1
 423 475 l 1,5,-1
 423 257 l 1,6,-1
 423 39 l 1,7,-1
 398 14 l 1,8,-1
 374 -11 l 1,9,-1
 351 12 l 1,10,-1
 328 34 l 1,11,-1
 328 230 l 1,12,-1
 328 425 l 1,13,-1
 261 425 l 1,14,-1
 194 425 l 1,15,-1
 171 448 l 1,16,-1
 149 471 l 1,17,-1
 173 496 l 1,0,-1
EndSplineSet
Validated: 1
EndChar

StartChar: quotedblright
Encoding: 271 8221 20
Width: 654
GlyphClass: 2
Flags: W
LayerCount: 2
Fore
SplineSet
202 495 m 1,0,-1
 226 520 l 1,1,-1
 299 520 l 1,2,-1
 371 520 l 1,3,-1
 394 497 l 1,4,-1
 417 475 l 1,5,-1
 417 243 l 2,6,7
 417 8 417 8 416 1 c 0,8,9
 413 -26 413 -26 408 -41 c 0,10,11
 401 -61 401 -61 392.5 -73 c 128,-1,12
 384 -85 384 -85 355 -115 c 0,13,14
 325 -145 325 -145 311 -155.5 c 128,-1,15
 297 -166 297 -166 280 -172 c 0,16,17
 254 -181 254 -181 194 -177 c 2,18,-1
 166 -176 l 1,19,-1
 143 -153 l 1,20,-1
 120 -131 l 1,21,-1
 145 -106 l 1,22,-1
 169 -81 l 1,23,-1
 176 -81 l 2,24,25
 181 -81 181 -81 211 -83 c 0,26,27
 266 -86 266 -86 293 -73 c 0,28,29
 303 -69 303 -69 305 -64 c 0,30,31
 315 -46 315 -46 320 -10 c 0,32,33
 321 -6 321 -6 322 212 c 2,34,-1
 322 425 l 1,35,-1
 272 425 l 1,36,-1
 223 425 l 1,37,-1
 200 448 l 1,38,-1
 177 470 l 1,39,-1
 202 495 l 1,0,-1
EndSplineSet
Validated: 33
EndChar

StartChar: quotedblbase
Encoding: 272 8222 21
Width: 654
GlyphClass: 2
Flags: W
LayerCount: 2
Fore
SplineSet
250 658 m 2,0,-1
 275 682 l 1,1,2
 286 672 286 672 298 659 c 2,3,-1
 321 637 l 1,4,-1
 348 594 l 1,5,-1
 375 551 l 1,6,-1
 350 526 l 1,7,-1
 326 501 l 1,8,-1
 303 524 l 1,9,-1
 280 546 l 1,10,-1
 253 589 l 2,11,12
 226 632 226 632 226 633 c 0,13,14
 237 644 237 644 250 658 c 2,0,-1
EndSplineSet
Validated: 1
EndChar

StartChar: guillemotleft
Encoding: 171 171 22
Width: 654
GlyphClass: 2
Flags: W
LayerCount: 2
Fore
SplineSet
358 657 m 1,0,-1
 383 682 l 1,1,2
 394 672 394 672 406 659 c 2,3,-1
 429 636 l 1,4,-1
 402 593 l 1,5,-1
 375 551 l 1,6,-1
 350 526 l 1,7,-1
 326 501 l 1,8,-1
 303 524 l 1,9,-1
 280 547 l 2,10,11
 280 549 280 549 307 590 c 2,12,-1
 333 633 l 1,13,-1
 358 657 l 1,0,-1
EndSplineSet
Validated: 1
EndChar

StartChar: guillemotright
Encoding: 187 187 23
Width: 654
GlyphClass: 2
Flags: W
LayerCount: 2
Fore
SplineSet
105 908 m 2,0,-1
 130 932 l 1,1,2
 142 921 142 921 156 907 c 0,3,4
 224 834 224 834 254 800 c 2,5,-1
 329 719 l 1,6,-1
 407 804 l 2,7,8
 493 898 493 898 506 910 c 2,9,-1
 528 932 l 1,10,-1
 551 909 l 1,11,-1
 574 886 l 1,12,-1
 474 737 l 1,13,-1
 375 588 l 1,14,-1
 350 563 l 1,15,-1
 326 538 l 1,16,-1
 303 560 l 1,17,-1
 281 583 l 1,18,-1
 181 732 l 1,19,-1
 81 883 l 1,20,21
 92 894 92 894 105 908 c 2,0,-1
EndSplineSet
Validated: 1
EndChar

StartChar: endash
Encoding: 273 8211 24
Width: 654
GlyphClass: 2
Flags: W
LayerCount: 2
Fore
SplineSet
105 907 m 1,0,-1
 130 932 l 1,1,2
 141 922 141 922 153 909 c 2,3,-1
 176 887 l 1,4,-1
 177 876 l 2,5,6
 182 831 182 831 207 793 c 0,7,8
 212 784 212 784 222 779 c 0,9,10
 260 753 260 753 315 748 c 0,11,12
 382 743 382 743 436 778 c 0,13,14
 444 783 444 783 450 793 c 0,15,16
 473 831 473 831 477 872 c 2,17,-1
 479 883 l 1,18,-1
 503 908 l 1,19,-1
 528 932 l 1,20,-1
 551 909 l 1,21,-1
 574 887 l 1,22,-1
 573 880 l 2,23,24
 571 859 571 859 564 838 c 0,25,26
 555 807 555 807 533 779 c 0,27,28
 527 771 527 771 494 738 c 128,-1,29
 461 705 461 705 451 696 c 0,30,31
 397 653 397 653 328 652 c 128,-1,32
 259 651 259 651 204 693 c 0,33,34
 196 699 196 699 164.5 730.5 c 128,-1,35
 133 762 133 762 124 772 c 0,36,37
 88 818 88 818 82 872 c 2,38,-1
 80 883 l 1,39,-1
 105 907 l 1,0,-1
EndSplineSet
Validated: 33
EndChar

StartChar: emdash
Encoding: 274 8212 25
Width: 654
GlyphClass: 2
Flags: W
LayerCount: 2
Fore
SplineSet
119 607 m 1,0,-1
 143 631 l 1,1,-1
 329 631 l 1,2,-1
 514 631 l 1,3,-1
 537 608 l 1,4,-1
 560 586 l 1,5,-1
 535 561 l 1,6,-1
 511 536 l 1,7,-1
 325 536 l 1,8,-1
 140 536 l 1,9,-1
 117 559 l 1,10,-1
 95 582 l 1,11,-1
 119 607 l 1,0,-1
EndSplineSet
Validated: 1
EndChar

StartChar: cwm
Encoding: 275 -1 26
Width: 654
GlyphClass: 2
Flags: W
LayerCount: 2
Fore
SplineSet
281 593 m 1,0,-1
 305 617 l 1,1,-1
 328 617 l 1,2,-1
 351 617 l 1,3,-1
 374 594 l 1,4,-1
 397 572 l 1,5,-1
 397 548 l 1,6,-1
 397 525 l 1,7,-1
 373 500 l 1,8,-1
 349 476 l 1,9,-1
 326 476 l 1,10,-1
 303 476 l 1,11,-1
 280 499 l 1,12,-1
 257 521 l 1,13,-1
 257 545 l 1,14,-1
 257 568 l 1,15,-1
 281 593 l 1,0,-1
EndSplineSet
Validated: 1
EndChar

StartChar: perthousand
Encoding: 276 8240 27
Width: 654
GlyphClass: 2
Flags: W
LayerCount: 2
Fore
SplineSet
293 34 m 1,0,-1
 317 59 l 1,1,-1
 340 36 l 1,2,-1
 363 14 l 1,3,-1
 363 -16 l 1,4,-1
 363 -45 l 1,5,-1
 370 -49 l 2,6,7
 376 -52 376 -52 384 -58 c 0,8,9
 391 -64 391 -64 419.5 -92.5 c 128,-1,10
 448 -121 448 -121 452 -127 c 0,11,12
 457 -134 457 -134 466 -156 c 0,13,14
 468 -165 468 -165 468 -183 c 128,-1,15
 468 -201 468 -201 466 -209 c 0,16,17
 461 -225 461 -225 452 -238 c 0,18,19
 447 -245 447 -245 417.5 -275.5 c 128,-1,20
 388 -306 388 -306 380 -312 c 0,21,22
 354 -331 354 -331 326 -332 c 2,23,-1
 314 -332 l 1,24,-1
 291 -309 l 1,25,-1
 268 -287 l 1,26,-1
 293 -262 l 1,27,-1
 317 -237 l 1,28,-1
 328 -237 l 2,29,30
 346 -235 346 -235 360 -230 c 0,31,32
 365 -228 365 -228 367 -222 c 0,33,34
 381 -190 381 -190 368 -153 c 0,35,36
 365 -143 365 -143 360 -141 c 0,37,38
 346 -135 346 -135 325 -133 c 2,39,-1
 314 -133 l 1,40,-1
 291 -110 l 1,41,-1
 268 -88 l 1,42,-1
 268 -39 l 1,43,-1
 268 9 l 1,44,-1
 293 34 l 1,0,-1
EndSplineSet
Validated: 33
EndChar

StartChar: dotlessi
Encoding: 277 305 28
Width: 654
GlyphClass: 2
Flags: W
LayerCount: 2
Fore
SplineSet
301 764 m 0,0,1
 307 765 307 765 328.5 765 c 128,-1,2
 350 765 350 765 357 764 c 0,3,4
 408 760 408 760 445 732 c 0,5,6
 455 725 455 725 485.5 694 c 128,-1,7
 516 663 516 663 522 654 c 0,8,9
 540 628 540 628 548 594 c 0,10,11
 550 585 550 585 550 562 c 128,-1,12
 550 539 550 539 548 530 c 0,13,14
 542 500 542 500 522 471 c 0,15,16
 517 464 517 464 490 436 c 2,17,-1
 463 409 l 1,18,-1
 470 404 l 2,19,20
 471 403 471 403 476.5 397.5 c 128,-1,21
 482 392 482 392 491 383.5 c 128,-1,22
 500 375 500 375 507 368 c 0,23,24
 540 334 540 334 545 326 c 0,25,26
 574 281 574 281 574 214 c 0,27,28
 574 159 574 159 555 118 c 0,29,30
 544 96 544 96 506 58 c 0,31,32
 466 18 466 18 454 11 c 0,33,34
 432 -2 432 -2 406 -5 c 2,35,-1
 400 -5 l 1,36,-1
 377 18 l 1,37,-1
 354 41 l 1,38,-1
 378 66 l 1,39,-1
 403 90 l 1,40,-1
 411 91 l 2,41,42
 429 93 429 93 446 101 c 2,43,-1
 454 104 l 1,44,-1
 458 112 l 2,45,46
 478 152 478 152 478 210 c 0,47,48
 478 269 478 269 459 306 c 2,49,-1
 453 318 l 1,50,-1
 441 325 l 2,51,52
 408 341 408 341 378 342 c 2,53,-1
 366 342 l 1,54,-1
 343 365 l 1,55,-1
 320 387 l 1,56,-1
 320 396 l 1,57,-1
 320 406 l 1,58,-1
 344 430 l 1,59,-1
 369 454 l 1,60,-1
 379 456 l 2,61,62
 397 459 397 459 422 470 c 0,63,64
 434 477 434 477 437 483 c 0,65,66
 447 502 447 502 454 533 c 0,67,68
 458 557 458 557 454 586 c 0,69,70
 448 613 448 613 436 637 c 2,71,-1
 432 644 l 1,72,-1
 420 650 l 2,73,74
 407 657 407 657 384 664 c 0,75,76
 347 672 347 672 303 669 c 0,77,78
 267 666 267 666 242 654 c 0,79,80
 231 648 231 648 228 643 c 0,81,82
 208 610 208 610 202 558 c 0,83,84
 198 529 198 529 198 268 c 2,85,-1
 198 38 l 1,86,-1
 173 14 l 1,87,-1
 148 -11 l 1,88,-1
 126 12 l 1,89,-1
 103 35 l 1,90,-1
 103 284 l 2,91,92
 104 535 104 535 105 546 c 0,93,94
 114 612 114 612 140 652 c 0,95,96
 146 660 146 660 181 697 c 0,97,98
 218 732 218 732 224 737 c 0,99,100
 238 747 238 747 257 755 c 0,101,102
 278 763 278 763 301 764 c 0,0,1
EndSplineSet
Validated: 33
EndChar

StartChar: dotlessj
Encoding: 278 567 29
Width: 654
GlyphClass: 2
Flags: W
LayerCount: 2
Fore
SplineSet
142 539 m 0,0,1
 173 541 173 541 198 538 c 0,2,3
 244 534 244 534 274 511 c 0,4,5
 281 506 281 506 312 475 c 128,-1,6
 343 444 343 444 343 442 c 0,7,8
 343 441 343 441 347 445 c 128,-1,9
 351 449 351 449 358 456 c 128,-1,10
 365 463 365 463 373 471 c 0,11,12
 410 507 410 507 431 520 c 0,13,14
 453 532 453 532 482 538 c 0,15,16
 492 540 492 540 518 540 c 128,-1,17
 544 540 544 540 555 538 c 0,18,19
 603 529 603 529 633 505 c 0,20,21
 641 499 641 499 671 469 c 0,22,23
 703 436 703 436 708 428 c 0,24,25
 727 401 727 401 734 364 c 0,26,27
 745 313 745 313 745 292 c 2,28,-1
 745 287 l 1,29,-1
 720 262 l 1,30,-1
 696 237 l 1,31,-1
 536 237 l 2,32,33
 377 237 377 237 377 236 c 128,-1,34
 377 235 377 235 379 221 c 0,35,36
 387 168 387 168 407 129 c 0,37,38
 414 116 414 116 417 113 c 128,-1,39
 420 110 420 110 432 104 c 0,40,41
 467 87 467 87 502 83 c 0,42,43
 535 79 535 79 566 84 c 0,44,45
 616 91 616 91 639 114 c 2,46,-1
 648 122 l 1,47,-1
 670 99 l 2,48,49
 693 76 693 76 692 74 c 0,50,51
 690 71 690 71 661 43 c 128,-1,52
 632 15 632 15 628 12 c 0,53,54
 605 -5 605 -5 566 -11 c 0,55,56
 554 -13 554 -13 527 -13 c 0,57,58
 492 -13 492 -13 472 -7 c 0,59,60
 422 4 422 4 387 38 c 2,61,-1
 375 50 l 1,62,-1
 375 44 l 1,63,-1
 375 39 l 1,64,-1
 350 14 l 1,65,-1
 326 -11 l 1,66,-1
 303 12 l 1,67,-1
 280 34 l 1,68,-1
 280 52 l 1,69,-1
 280 70 l 1,70,-1
 263 54 l 2,71,72
 230 21 230 21 201 7 c 0,73,74
 115 -37 115 -37 41 7 c 0,75,76
 24 17 24 17 -12 54 c 0,77,78
 -48 90 -48 90 -57 109 c 0,79,80
 -67 131 -67 131 -66 154 c 0,81,82
 -66 173 -66 173 -64 181 c 0,83,84
 -58 201 -58 201 -49 215 c 0,85,86
 -44 223 -44 223 -12 255 c 0,87,88
 16 284 16 284 29 294 c 128,-1,89
 42 304 42 304 59 312 c 0,90,91
 86 324 86 324 123.5 328.5 c 128,-1,92
 161 333 161 333 240 335 c 0,93,94
 280 335 280 335 280 337 c 0,95,96
 280 351 280 351 275 371 c 0,97,98
 266 418 266 418 255 425 c 0,99,100
 237 437 237 437 198 443 c 0,101,102
 166 447 166 447 133 443 c 0,103,104
 114 440 114 440 86 431 c 0,105,106
 50 419 50 419 27 398 c 1,107,-1
 24 396 l 1,108,-1
 1 419 l 1,109,-1
 -22 442 l 1,110,-1
 2 467 l 2,111,112
 37 500 37 500 55 510 c 0,113,114
 97 534 97 534 142 539 c 0,0,1
549 442 m 0,115,116
 521 446 521 446 494 444 c 0,117,118
 449 439 449 439 421 420 c 0,119,120
 415 416 415 416 409 408 c 0,121,122
 389 375 389 375 381 334 c 1,123,-1
 405 332 l 1,124,-1
 512 332 l 1,125,-1
 644 332 l 1,126,-1
 643 336 l 2,127,128
 641 357 641 357 634 381 c 0,129,130
 631 390 631 390 623 406 c 2,131,-1
 616 420 l 1,132,-1
 607 424 l 2,133,134
 583 437 583 437 549 442 c 0,115,116
280 212 m 1,135,-1
 280 240 l 1,136,-1
 266 240 l 2,137,138
 263 240 263 240 252 239.5 c 128,-1,139
 241 239 241 239 236 239 c 0,140,141
 196 239 196 239 148 236 c 0,142,143
 88 232 88 232 51 214 c 2,144,-1
 41 210 l 1,145,-1
 38 203 l 2,146,147
 29 184 29 184 29 155 c 0,148,149
 29 133 29 133 39 112 c 2,150,-1
 44 103 l 1,151,-1
 52 98 l 2,152,153
 78 85 78 85 110 82 c 0,154,155
 144 79 144 79 179 91 c 0,156,157
 225 107 225 107 242 128 c 0,158,159
 260 150 260 150 271 169 c 2,160,-1
 280 184 l 1,161,-1
 280 212 l 1,135,-1
EndSplineSet
Validated: 33
EndChar

StartChar: ff
Encoding: 279 64256 30
Width: 654
GlyphClass: 2
Flags: W
LayerCount: 2
Fore
SplineSet
101 538 m 0,0,1
 123 541 123 541 154 539 c 0,2,3
 212 533 212 533 256 497 c 0,4,5
 297 460 297 460 325 428 c 2,6,-1
 328 424 l 1,7,-1
 331 428 l 1,8,-1
 369 466 l 2,9,10
 412 509 412 509 431 520 c 0,11,12
 453 532 453 532 482 538 c 0,13,14
 492 540 492 540 518 540 c 128,-1,15
 544 540 544 540 555 538 c 0,16,17
 603 529 603 529 633 505 c 0,18,19
 641 499 641 499 671 469 c 0,20,21
 703 436 703 436 708 428 c 0,22,23
 727 401 727 401 734 364 c 0,24,25
 745 313 745 313 745 292 c 2,26,-1
 745 287 l 1,27,-1
 720 262 l 1,28,-1
 696 237 l 1,29,-1
 536 237 l 2,30,31
 377 237 377 237 377 236 c 128,-1,32
 377 235 377 235 379 221 c 0,33,34
 387 168 387 168 407 129 c 0,35,36
 414 116 414 116 417 113 c 128,-1,37
 420 110 420 110 432 104 c 0,38,39
 467 87 467 87 502 83 c 0,40,41
 535 79 535 79 566 84 c 0,42,43
 616 91 616 91 639 114 c 2,44,-1
 648 122 l 1,45,-1
 670 99 l 2,46,47
 693 76 693 76 692 74 c 0,48,49
 690 71 690 71 661 43 c 128,-1,50
 632 15 632 15 628 12 c 0,51,52
 605 -5 605 -5 566 -11 c 0,53,54
 554 -13 554 -13 527 -13 c 0,55,56
 499 -13 499 -13 492 -12 c 0,57,58
 444 -3 444 -3 410 19 c 0,59,60
 401 25 401 25 369 57 c 0,61,62
 335 91 335 91 332 95 c 2,63,-1
 326 102 l 2,64,65
 326 103 326 103 318 95 c 128,-1,66
 310 87 310 87 293 70 c 0,67,68
 282 59 282 59 267 44 c 2,69,-1
 252 30 l 2,70,71
 210 -4 210 -4 153 -12 c 0,72,73
 125 -16 125 -16 91 -11 c 0,74,75
 48 -4 48 -4 11 22 c 0,76,77
 3 27 3 27 -27.5 57 c 128,-1,78
 -58 87 -58 87 -68 99 c 0,79,80
 -108 147 -108 147 -117 221 c 0,81,82
 -118 232 -118 232 -118 261 c 128,-1,83
 -118 290 -118 290 -117 301 c 0,84,85
 -108 377 -108 377 -68 426 c 0,86,87
 -59 436 -59 436 -27.5 467 c 128,-1,88
 4 498 4 498 11 503 c 0,89,90
 49 532 49 532 101 538 c 0,0,1
145 444 m 0,91,92
 72 451 72 451 21 416 c 0,93,94
 15 413 15 413 8 401 c 0,95,96
 -21 349 -21 349 -24 277 c 0,97,98
 -27 187 -27 187 12 123 c 0,99,100
 17 115 17 115 26 110 c 0,101,102
 68 85 68 85 121.5 82.5 c 128,-1,103
 175 80 175 80 218 102 c 0,104,105
 234 110 234 110 239 115 c 128,-1,106
 244 120 244 120 254 138 c 0,107,108
 288 205 288 205 277 302 c 0,109,110
 271 358 271 358 246 400 c 0,111,112
 240 410 240 410 233 416 c 0,113,114
 196 439 196 439 145 444 c 0,91,92
549 442 m 0,115,116
 521 446 521 446 494 444 c 0,117,118
 449 439 449 439 421 420 c 0,119,120
 415 416 415 416 409 408 c 0,121,122
 389 375 389 375 381 334 c 1,123,-1
 405 332 l 1,124,-1
 512 332 l 1,125,-1
 644 332 l 1,126,-1
 643 336 l 2,127,128
 641 357 641 357 634 381 c 0,129,130
 631 390 631 390 623 406 c 2,131,-1
 616 420 l 1,132,-1
 607 424 l 2,133,134
 583 437 583 437 549 442 c 0,115,116
EndSplineSet
Validated: 33
EndChar

StartChar: fi
Encoding: 280 64257 31
Width: 654
GlyphClass: 2
Flags: W
LayerCount: 2
Fore
SplineSet
546 572 m 2,0,-1
 570 597 l 1,1,-1
 593 574 l 1,2,-1
 616 551 l 2,3,4
 616 550 616 550 570.5 496 c 128,-1,5
 525 442 525 442 520 437 c 2,6,-1
 518 434 l 1,7,-1
 525 425 l 2,8,9
 561 381 561 381 572 310 c 0,10,11
 577 268 577 268 573 235 c 0,12,13
 566 152 566 152 523 102 c 0,14,15
 513 91 513 91 482 60 c 128,-1,16
 451 29 451 29 444 24 c 0,17,18
 410 -2 410 -2 360 -11 c 0,19,20
 327 -17 327 -17 289 -10 c 0,21,22
 233 0 233 0 194 36 c 0,23,24
 187 42 187 42 185 40 c 0,25,26
 181 36 181 36 156 6 c 0,27,28
 122 -33 122 -33 106 -48 c 2,29,-1
 84 -70 l 1,30,-1
 61 -47 l 1,31,-1
 38 -24 l 1,32,-1
 85 32 l 2,33,34
 95 44 95 44 108 59.5 c 128,-1,35
 121 75 121 75 127.5 82.5 c 128,-1,36
 134 90 134 90 135 90 c 2,37,-1
 137 93 l 1,38,-1
 131 100 l 2,39,40
 92 146 92 146 83 221 c 0,41,42
 82 232 82 232 82 261 c 128,-1,43
 82 290 82 290 83 301 c 0,44,45
 92 377 92 377 132 426 c 0,46,47
 143 438 143 438 174.5 469 c 128,-1,48
 206 500 206 500 214 505 c 0,49,50
 252 533 252 533 306 539 c 0,51,52
 328 541 328 541 353 539 c 0,53,54
 416 531 416 531 460 492 c 0,55,56
 468 485 468 485 470 487 c 0,57,58
 474 491 474 491 496 518 c 0,59,60
 520 546 520 546 546 572 c 2,0,-1
357 443 m 0,61,62
 323 445 323 445 306 444 c 0,63,64
 259 439 259 439 224 418 c 0,65,66
 215 414 215 414 213 409 c 0,67,68
 197 386 197 386 187 352 c 0,69,70
 162 258 162 258 190 170 c 1,71,-1
 194 161 l 2,72,73
 196 163 196 163 343 336 c 2,74,-1
 417 424 l 1,75,-1
 410 427 l 2,76,77
 387 438 387 438 357 443 c 0,61,62
464 360 m 1,78,-1
 461 366 l 1,79,80
 413 310 413 310 355 241 c 0,81,82
 249 117 249 117 244 110 c 2,83,-1
 238 103 l 1,84,-1
 245 99 l 1,85,86
 293 78 293 78 345 83 c 0,87,88
 385 86 385 86 418 101 c 0,89,90
 432 108 432 108 436.5 111.5 c 128,-1,91
 441 115 441 115 446 124 c 0,92,93
 463 153 463 153 471 190 c 0,94,95
 490 279 490 279 464 360 c 1,78,-1
EndSplineSet
Validated: 33
EndChar

StartChar: fl
Encoding: 281 64258 32
Width: 654
GlyphClass: 2
Flags: W
LayerCount: 2
Fore
SplineSet
99 678 m 1,0,-1
 123 702 l 1,1,-1
 158 702 l 1,2,-1
 193 702 l 1,3,-1
 196 699 l 1,4,-1
 198 696 l 1,5,-1
 434 696 l 1,6,-1
 671 696 l 1,7,-1
 694 673 l 1,8,-1
 716 650 l 1,9,-1
 692 625 l 1,10,-1
 668 601 l 1,11,-1
 460 601 l 1,12,-1
 253 601 l 1,13,-1
 253 598 l 2,14,15
 254 597 254 597 278 504 c 2,16,-1
 302 413 l 1,17,-1
 486 412 l 1,18,-1
 671 412 l 1,19,-1
 694 389 l 1,20,-1
 716 366 l 1,21,-1
 692 342 l 1,22,-1
 668 317 l 1,23,-1
 497 317 l 1,24,-1
 326 317 l 1,25,-1
 355 208 l 1,26,-1
 383 100 l 1,27,-1
 527 99 l 1,28,-1
 671 99 l 1,29,-1
 694 76 l 1,30,-1
 716 53 l 1,31,-1
 692 28 l 1,32,-1
 668 4 l 1,33,-1
 514 4 l 1,34,-1
 361 4 l 1,35,-1
 355 -2 l 1,36,-1
 348 -8 l 1,37,-1
 325 15 l 1,38,-1
 302 39 l 1,39,-1
 281 119 l 1,40,-1
 260 200 l 1,41,-1
 156 200 l 1,42,-1
 52 200 l 1,43,-1
 31 120 l 1,44,-1
 11 41 l 1,45,-1
 -14 16 l 1,46,-1
 -39 -8 l 1,47,-1
 -62 15 l 1,48,-1
 -85 39 l 1,49,-1
 -5 346 l 1,50,-1
 75 653 l 1,51,-1
 99 678 l 1,0,-1
195 450 m 2,52,-1
 156 600 l 1,53,54
 77 297 77 297 77 296 c 128,-1,55
 77 295 77 295 156 295 c 2,56,-1
 235 295 l 1,57,-1
 235 298 l 1,58,-1
 230 318 l 2,59,60
 225 337 225 337 214.5 376.5 c 128,-1,61
 204 416 204 416 195 450 c 2,52,-1
EndSplineSet
Validated: 1
EndChar

StartChar: ffi
Encoding: 282 64259 33
Width: 654
GlyphClass: 2
Flags: W
LayerCount: 2
Fore
SplineSet
111 714 m 0,0,1
 119 716 119 716 132 716 c 0,2,3
 165 716 165 716 194 701 c 0,4,5
 218 689 218 689 253 655 c 2,6,-1
 280 628 l 1,7,-1
 280 638 l 1,8,-1
 280 647 l 1,9,-1
 304 672 l 1,10,-1
 328 696 l 1,11,-1
 500 696 l 1,12,-1
 671 696 l 1,13,-1
 694 673 l 1,14,-1
 716 650 l 1,15,-1
 692 625 l 1,16,-1
 668 601 l 1,17,-1
 521 601 l 1,18,-1
 375 601 l 1,19,-1
 375 507 l 1,20,-1
 375 412 l 1,21,-1
 499 412 l 1,22,-1
 622 412 l 1,23,-1
 645 389 l 1,24,-1
 668 367 l 1,25,-1
 643 342 l 1,26,-1
 619 317 l 1,27,-1
 497 317 l 1,28,-1
 375 317 l 1,29,-1
 375 208 l 1,30,-1
 375 99 l 1,31,-1
 523 99 l 1,32,-1
 671 99 l 1,33,-1
 694 76 l 1,34,-1
 716 53 l 1,35,-1
 692 28 l 1,36,-1
 668 4 l 1,37,-1
 497 4 l 1,38,-1
 326 4 l 1,39,-1
 303 27 l 1,40,-1
 280 49 l 1,41,-1
 280 66 l 1,42,-1
 280 83 l 1,43,-1
 249 53 l 2,44,45
 220 24 220 24 209 16 c 0,46,47
 129 -40 129 -40 49 16 c 0,48,49
 41 22 41 22 9.5 53 c 128,-1,50
 -22 84 -22 84 -33 96 c 0,51,52
 -87 163 -87 163 -106 270 c 0,53,54
 -112 303 -112 303 -112 354 c 0,55,56
 -112 394 -112 394 -111 406 c 0,57,58
 -105 455 -105 455 -94 491 c 0,59,60
 -74 559 -74 559 -35 606 c 0,61,62
 -25 618 -25 618 8 650.5 c 128,-1,63
 41 683 41 683 49 688 c 0,64,65
 79 709 79 709 111 714 c 0,0,1
144 620 m 0,66,67
 102 624 102 624 61 603 c 0,68,69
 48 595 48 595 40 582 c 0,70,71
 -5 508 -5 508 -16 404 c 0,72,73
 -20 358 -20 358 -16 311 c 0,74,75
 -5 207 -5 207 40 131 c 0,76,77
 52 111 52 111 64 104 c 0,78,79
 132 63 132 63 200 103 c 0,80,81
 208 107 208 107 217 121 c 0,82,83
 263 191 263 191 276 293 c 0,84,85
 286 369 286 369 271.5 445 c 128,-1,86
 257 521 257 521 222 577 c 0,87,88
 211 595 211 595 197 603 c 0,89,90
 168 617 168 617 144 620 c 0,66,67
EndSplineSet
Validated: 33
EndChar

StartChar: ffl
Encoding: 283 64260 34
Width: 654
GlyphClass: 2
Flags: W
LayerCount: 2
Fore
SplineSet
528 748 m 1,0,-1
 554 773 l 1,1,2
 565 763 565 763 577 750 c 2,3,-1
 600 728 l 1,4,-1
 556 656 l 1,5,-1
 513 583 l 2,6,7
 513 582 513 582 518 574 c 0,8,9
 530 553 530 553 543 521 c 0,10,11
 565 459 565 459 570 393 c 0,12,13
 572 356 572 356 570 322 c 0,14,15
 561 194 561 194 498 109 c 0,16,17
 488 96 488 96 452 59.5 c 128,-1,18
 416 23 416 23 405 16 c 0,19,20
 325 -40 325 -40 245 16 c 0,21,22
 239 20 239 20 216 41 c 2,23,-1
 197 60 l 1,24,-1
 174 21 l 1,25,-1
 150 -19 l 1,26,-1
 125 -43 l 1,27,-1
 101 -67 l 1,28,-1
 78 -44 l 1,29,-1
 55 -21 l 1,30,-1
 98 51 l 1,31,-1
 142 124 l 1,32,-1
 138 132 l 1,33,34
 103 191 103 191 90 270 c 0,35,36
 84 303 84 303 84 354 c 0,37,38
 84 394 84 394 85 406 c 0,39,40
 91 455 91 455 102 491 c 0,41,42
 122 559 122 559 161 606 c 0,43,44
 171 618 171 618 204 650.5 c 128,-1,45
 237 683 237 683 245 688 c 0,46,47
 263 702 263 702 289 711 c 0,48,49
 342 725 342 725 390 701 c 0,50,51
 414 689 414 689 439 664 c 2,52,-1
 458 646 l 1,53,-1
 480 684 l 1,54,-1
 503 723 l 1,55,-1
 528 748 l 1,0,-1
350 618 m 0,56,57
 330 622 330 622 309 620 c 0,58,59
 281 617 281 617 257 603 c 0,60,61
 244 595 244 595 236 582 c 0,62,63
 191 508 191 508 180 404 c 0,64,65
 176 357 176 357 180 311 c 0,66,67
 186 267 186 267 193 238 c 2,68,-1
 199 218 l 2,69,70
 200 218 200 218 308 399 c 2,71,-1
 417 579 l 1,72,-1
 412 586 l 2,73,74
 407 595 407 595 387 606 c 0,75,76
 364 616 364 616 350 618 c 0,56,57
461 471 m 1,77,-1
 457 490 l 1,78,79
 407 408 407 408 347 309 c 2,80,-1
 238 128 l 1,81,-1
 241 124 l 2,82,83
 249 110 249 110 260 104 c 0,84,85
 328 63 328 63 396 103 c 0,86,87
 404 107 404 107 413 121 c 0,88,89
 459 191 459 191 472 293 c 0,90,91
 483 387 483 387 461 471 c 1,77,-1
EndSplineSet
Validated: 33
EndChar

StartChar: exclam
Encoding: 33 33 36
Width: 654
GlyphClass: 2
Flags: W
LayerCount: 2
Fore
SplineSet
305 740 m 1,0,-1
 329 765 l 1,1,-1
 352 742 l 1,2,-1
 375 720 l 1,3,-1
 375 524 l 1,4,-1
 375 328 l 1,5,-1
 351 304 l 1,6,-1
 326 280 l 1,7,-1
 303 302 l 1,8,-1
 280 325 l 1,9,-1
 280 520 l 1,10,-1
 280 715 l 1,11,-1
 305 740 l 1,0,-1
281 46 m 1,12,-1
 305 70 l 1,13,-1
 328 70 l 1,14,-1
 351 70 l 1,15,-1
 374 47 l 1,16,-1
 397 25 l 1,17,-1
 397 2 l 1,18,-1
 397 -21 l 1,19,-1
 373 -46 l 1,20,-1
 349 -70 l 1,21,-1
 326 -70 l 1,22,-1
 303 -70 l 1,23,-1
 280 -47 l 1,24,-1
 257 -25 l 1,25,-1
 257 -2 l 1,26,-1
 257 21 l 1,27,-1
 281 46 l 1,12,-1
EndSplineSet
Validated: 1
EndChar

StartChar: quotedbl
Encoding: 34 34 37
Width: 654
GlyphClass: 2
Flags: W
LayerCount: 2
Fore
SplineSet
211 740 m 1,0,-1
 235 765 l 1,1,-1
 258 742 l 1,2,-1
 281 720 l 1,3,-1
 281 682 l 1,4,-1
 281 644 l 1,5,-1
 257 620 l 1,6,-1
 232 596 l 1,7,-1
 209 618 l 1,8,-1
 186 641 l 1,9,-1
 186 678 l 1,10,-1
 186 715 l 1,11,-1
 211 740 l 1,0,-1
399 740 m 1,12,-1
 423 765 l 1,13,-1
 446 742 l 1,14,-1
 469 720 l 1,15,-1
 469 682 l 1,16,-1
 469 644 l 1,17,-1
 445 620 l 1,18,-1
 420 596 l 1,19,-1
 397 618 l 1,20,-1
 374 641 l 1,21,-1
 374 678 l 1,22,-1
 374 715 l 1,23,-1
 399 740 l 1,12,-1
EndSplineSet
Validated: 1
EndChar

StartChar: numbersign
Encoding: 35 35 38
Width: 654
GlyphClass: 2
Flags: W
LayerCount: 2
Fore
SplineSet
495 743 m 1,0,-1
 519 768 l 1,1,-1
 543 745 l 2,2,3
 547 740 547 740 553.5 733.5 c 128,-1,4
 560 727 560 727 562 724 c 2,5,-1
 565 721 l 2,6,7
 565 719 565 719 547 638 c 2,8,-1
 529 558 l 2,9,10
 529 555 529 555 552 534 c 2,11,-1
 574 512 l 1,12,-1
 549 487 l 1,13,-1
 525 462 l 1,14,-1
 516 462 l 1,15,-1
 507 462 l 2,16,17
 507 461 507 461 489.5 383.5 c 128,-1,18
 472 306 472 306 471 304 c 2,19,-1
 471 301 l 1,20,-1
 490 301 l 1,21,-1
 508 301 l 1,22,-1
 531 278 l 1,23,-1
 554 256 l 1,24,-1
 529 231 l 1,25,-1
 505 206 l 1,26,-1
 477 206 l 1,27,-1
 450 206 l 1,28,-1
 431 122 l 1,29,-1
 412 39 l 1,30,-1
 387 14 l 1,31,-1
 363 -11 l 1,32,-1
 340 12 l 2,33,34
 317 33 317 33 317 36 c 0,35,36
 317 37 317 37 335.5 119 c 128,-1,37
 354 201 354 201 355 204 c 0,38,39
 355 206 355 206 289 206 c 2,40,-1
 222 206 l 1,41,-1
 221 204 l 2,42,43
 221 201 221 201 203 120 c 2,44,-1
 184 39 l 1,45,-1
 160 14 l 1,46,-1
 135 -10 l 1,47,-1
 112 13 l 1,48,-1
 89 36 l 1,49,-1
 108 120 l 1,50,-1
 127 205 l 1,51,-1
 104 229 l 1,52,-1
 81 252 l 1,53,-1
 105 277 l 1,54,-1
 129 301 l 1,55,-1
 139 301 l 1,56,-1
 149 301 l 1,57,-1
 166 380 l 2,58,59
 184 460 184 460 185 461 c 0,60,61
 185 462 185 462 165 462 c 2,62,-1
 145 462 l 1,63,-1
 123 485 l 1,64,-1
 100 508 l 1,65,-1
 125 532 l 1,66,-1
 150 557 l 1,67,-1
 178 557 l 1,68,-1
 206 558 l 1,69,-1
 224 638 l 1,70,-1
 243 718 l 1,71,-1
 267 743 l 1,72,-1
 292 767 l 1,73,-1
 315 744 l 1,74,-1
 338 722 l 1,75,-1
 319 640 l 1,76,-1
 301 557 l 1,77,-1
 367 557 l 1,78,-1
 434 557 l 1,79,-1
 434 559 l 1,80,-1
 453 640 l 1,81,-1
 470 719 l 1,82,-1
 495 743 l 1,0,-1
412 458 m 2,83,-1
 412 462 l 1,84,-1
 346 462 l 1,85,-1
 279 462 l 1,86,-1
 270 418 l 2,87,88
 260 378 260 378 252 338 c 2,89,-1
 243 301 l 1,90,-1
 310 301 l 1,91,-1
 376 302 l 1,92,-1
 394 378 l 2,93,94
 410 455 410 455 412 458 c 2,83,-1
EndSplineSet
Validated: 1
EndChar

StartChar: dollar
Encoding: 36 36 39
Width: 654
GlyphClass: 2
Flags: W
LayerCount: 2
Fore
SplineSet
305 740 m 2,0,-1
 329 765 l 1,1,-1
 352 742 l 2,2,3
 375 719 375 719 375 715 c 2,4,-1
 376 711 l 1,5,-1
 386 709 l 2,6,7
 438 700 438 700 474 669 c 0,8,9
 488 657 488 657 519.5 624 c 128,-1,10
 551 591 551 591 551 588 c 0,11,12
 540 576 540 576 527 563 c 2,13,-1
 502 539 l 1,14,-1
 479 561 l 2,15,16
 458 582 458 582 450 588 c 0,17,18
 420 607 420 607 385 613 c 2,19,-1
 375 615 l 1,20,-1
 375 519 l 1,21,-1
 375 424 l 1,22,-1
 387 420 l 2,23,24
 453 397 453 397 485 370 c 0,25,26
 489 367 489 367 521 335 c 0,27,28
 549 308 549 308 556 297 c 0,29,30
 565 283 565 283 571 263 c 0,31,32
 573 255 573 255 573 236 c 128,-1,33
 573 217 573 217 571 207 c 0,34,35
 566 187 566 187 556 172 c 0,36,37
 549 159 549 159 508 118 c 0,38,39
 475 85 475 85 466 79 c 0,40,41
 434 59 434 59 388 50 c 0,42,43
 375 47 375 47 375 44 c 128,-1,44
 375 41 375 41 350 17 c 2,45,-1
 326 -8 l 1,46,-1
 303 15 l 2,47,48
 280 37 280 37 280 42 c 2,49,-1
 280 46 l 1,50,-1
 266 47 l 2,51,52
 200 52 200 52 166 78 c 0,53,54
 158 82 158 82 127 114 c 0,55,56
 93 149 93 149 84 167 c 2,57,-1
 80 175 l 1,58,-1
 105 199 l 1,59,-1
 129 224 l 1,60,-1
 153 201 l 2,61,62
 175 179 175 179 179 171 c 0,63,64
 182 164 182 164 190 160 c 0,65,66
 221 146 221 146 277 142 c 1,67,-1
 280 141 l 1,68,-1
 280 248 l 1,69,-1
 280 355 l 1,70,-1
 276 356 l 2,71,72
 232 368 232 368 201 385 c 0,73,74
 174 398 174 398 138 434 c 0,75,76
 100 471 100 471 93 485 c 0,77,78
 84 501 84 501 83 525 c 0,79,80
 82 566 82 566 106 600 c 0,81,82
 110 605 110 605 145 640 c 0,83,84
 184 679 184 679 208 690 c 0,85,86
 240 705 240 705 274 710 c 0,87,88
 280 710 280 710 280 713 c 128,-1,89
 280 716 280 716 305 740 c 2,0,-1
280 534 m 2,90,-1
 280 615 l 1,91,-1
 276 615 l 2,92,93
 271 615 271 615 255 611 c 0,94,95
 225 606 225 606 203 594 c 2,96,-1
 192 589 l 1,97,-1
 189 583 l 2,98,99
 176 554 176 554 179 521 c 0,100,101
 181 499 181 499 188 490 c 0,102,103
 191 486 191 486 224 471 c 0,104,105
 268 452 268 452 278 452 c 0,106,107
 280 452 280 452 280 534 c 2,90,-1
387 323 m 2,108,-1
 376 327 l 2,109,110
 375 327 375 327 375 234 c 2,111,-1
 375 142 l 1,112,-1
 377 142 l 2,113,114
 378 143 378 143 389 145 c 0,115,116
 423 150 423 150 449 163 c 0,117,118
 463 169 463 169 469 183 c 0,119,120
 490 234 490 234 468 280 c 0,121,122
 464 288 464 288 456 292 c 0,123,124
 429 309 429 309 387 323 c 2,108,-1
EndSplineSet
Validated: 33
EndChar

StartChar: percent
Encoding: 37 37 40
Width: 654
GlyphClass: 2
Flags: W
LayerCount: 2
Fore
SplineSet
193 765 m 0,0,1
 227 773 227 773 255 753 c 0,2,3
 260 749 260 749 288 721 c 128,-1,4
 316 693 316 693 320 688 c 0,5,6
 334 667 334 667 335 635 c 0,7,8
 335 607 335 607 329 590 c 0,9,10
 324 576 324 576 318 567.5 c 128,-1,11
 312 559 312 559 287 534 c 0,12,13
 258 505 258 505 250 499 c 0,14,15
 230 485 230 485 205.5 485 c 128,-1,16
 181 485 181 485 162 499 c 0,17,18
 155 503 155 503 127.5 531.5 c 128,-1,19
 100 560 100 560 97 565 c 0,20,21
 79 591 79 591 81 632 c 0,22,23
 82 666 82 666 97 686 c 0,24,25
 103 693 103 693 132 722 c 128,-1,26
 161 751 161 751 167 755 c 0,27,28
 179 763 179 763 193 765 c 0,0,1
225 669 m 0,29,30
 216 672 216 672 199 672 c 2,31,-1
 198 672 l 2,32,33
 196 671 196 671 194 670.5 c 128,-1,34
 192 670 192 670 190 670 c 0,35,36
 183 668 183 668 182 667 c 0,37,38
 177 662 177 662 177 631 c 0,39,40
 177 607 177 607 182 592 c 2,41,-1
 184 584 l 1,42,-1
 191 583 l 2,43,44
 204 579 204 579 219 581 c 0,45,46
 233 583 233 583 235 590 c 0,47,48
 244 621 244 621 237 652 c 0,49,50
 235 663 235 663 233.5 665.5 c 128,-1,51
 232 668 232 668 225 669 c 0,29,30
503 737 m 1,52,-1
 528 762 l 1,53,-1
 551 739 l 1,54,-1
 574 716 l 1,55,-1
 375 380 l 1,56,-1
 176 45 l 1,57,-1
 151 20 l 1,58,-1
 127 -5 l 1,59,-1
 104 18 l 2,60,61
 81 41 81 41 81 42 c 2,62,-1
 105 82 l 2,63,64
 129 123 129 123 183.5 215 c 128,-1,65
 238 307 238 307 280 378 c 2,66,-1
 478 712 l 1,67,-1
 503 737 l 1,52,-1
431 270 m 0,68,69
 465 278 465 278 494 258 c 0,70,71
 502 253 502 253 529.5 224.5 c 128,-1,72
 557 196 557 196 560 190 c 0,73,74
 573 170 573 170 574 141 c 0,75,76
 575 100 575 100 558 74 c 0,77,78
 554 67 554 67 525.5 37.5 c 128,-1,79
 497 8 497 8 489 3 c 0,80,81
 453 -23 453 -23 412 -4 c 0,82,83
 399 3 399 3 367 36 c 0,84,85
 336 66 336 66 328 84 c 0,86,87
 321 102 321 102 321 130 c 0,88,89
 320 152 320 152 327 172 c 0,90,91
 333 188 333 188 367 222 c 2,92,-1
 402 257 l 1,93,94
 419 268 419 268 431 270 c 0,68,69
464 174 m 0,95,96
 444 179 444 179 423 174 c 0,97,98
 420 173 420 173 418 159 c 0,99,100
 411 127 411 127 422 93 c 1,101,-1
 423 88 l 1,102,-1
 431 86 l 2,103,104
 447 82 447 82 464 86 c 0,105,106
 471 87 471 87 473 91 c 0,107,108
 484 117 484 117 476 157 c 0,109,110
 474 168 474 168 472.5 170 c 128,-1,111
 471 172 471 172 464 174 c 0,95,96
EndSplineSet
Validated: 33
EndChar

StartChar: ampersand
Encoding: 38 38 41
Width: 654
GlyphClass: 2
Flags: W
LayerCount: 2
Fore
SplineSet
283 766 m 0,0,1
 288 767 288 767 306.5 767 c 128,-1,2
 325 767 325 767 332 766 c 0,3,4
 375 761 375 761 401 741 c 0,5,6
 404 739 404 739 436 707 c 0,7,8
 472 671 472 671 480 653 c 0,9,10
 495 613 495 613 471 566 c 0,11,12
 459 544 459 544 446.5 528.5 c 128,-1,13
 434 513 434 513 398 478 c 0,14,15
 358 437 358 437 317 405 c 0,16,17
 298 390 298 390 298 389 c 0,18,19
 316 364 316 364 338 334 c 0,20,21
 379 278 379 278 416 227 c 0,22,23
 454 173 454 173 455 173 c 0,24,25
 456 177 456 177 458 182 c 0,26,27
 476 232 476 232 479 291 c 2,28,-1
 479 306 l 1,29,-1
 504 330 l 1,30,-1
 529 355 l 1,31,-1
 551 332 l 1,32,-1
 574 309 l 1,33,-1
 574 291 l 1,34,35
 569 182 569 182 512 112 c 0,36,37
 510 108 510 108 506 104 c 0,38,39
 505 103 505 103 527 73 c 2,40,-1
 548 42 l 1,41,42
 537 30 537 30 523 17 c 2,43,-1
 499 -7 l 1,44,-1
 473 19 l 1,45,-1
 447 45 l 1,46,-1
 442 40 l 2,47,48
 393 -4 393 -4 328 -10 c 0,49,50
 298 -14 298 -14 261 -9 c 0,51,52
 218 -1 218 -1 193 16 c 0,53,54
 183 23 183 23 150 55.5 c 128,-1,55
 117 88 117 88 111 98 c 0,56,57
 81 142 81 142 81 204 c 0,58,59
 81 270 81 270 124 324 c 0,60,61
 129 330 129 330 163 366 c 2,62,-1
 194 397 l 1,63,-1
 182 413 l 2,64,65
 128 488 128 488 114 540 c 0,66,67
 109 561 109 561 109 591 c 0,68,69
 110 634 110 634 134 667 c 0,70,71
 139 674 139 674 170 705 c 128,-1,72
 201 736 201 736 207 740 c 0,73,74
 236 760 236 760 283 766 c 0,0,1
323 671 m 0,75,76
 260 676 260 676 225 657 c 0,77,78
 218 654 218 654 215 644 c 0,79,80
 206 623 206 623 205 600 c 0,81,82
 199 539 199 539 246 463 c 2,83,-1
 254 449 l 1,84,-1
 261 454 l 2,85,86
 262 455 262 455 267.5 459.5 c 128,-1,87
 273 464 273 464 280 469.5 c 128,-1,88
 287 475 287 475 294 479 c 0,89,90
 349 523 349 523 351 525 c 0,91,92
 352 526 352 526 360 538 c 0,93,94
 388 578 388 578 391 612 c 0,95,96
 391 630 391 630 385 647 c 0,97,98
 381 656 381 656 378 658 c 0,99,100
 361 667 361 667 323 671 c 0,75,76
281 278 m 2,101,-1
 236 340 l 2,102,103
 234 341 234 341 226.5 334.5 c 128,-1,104
 219 328 219 328 214 321 c 0,105,106
 179 274 179 274 176 217 c 0,107,108
 174 162 174 162 195 121 c 0,109,110
 202 107 202 107 210 103 c 0,111,112
 242 87 242 87 289.5 84.5 c 128,-1,113
 337 82 337 82 375 94 c 0,114,115
 401 103 401 103 403 106 c 0,116,117
 404 107 404 107 281 278 c 2,101,-1
EndSplineSet
Validated: 33
EndChar

StartChar: quoteright
Encoding: 284 8217 42
Width: 654
GlyphClass: 2
Flags: W
LayerCount: 2
Fore
SplineSet
267 741 m 2,0,-1
 291 765 l 1,1,-1
 329 765 l 1,2,-1
 367 765 l 1,3,-1
 389 742 l 1,4,-1
 412 719 l 1,5,-1
 402 579 l 1,6,-1
 392 438 l 1,7,-1
 367 413 l 1,8,-1
 343 388 l 1,9,-1
 325 388 l 1,10,-1
 307 388 l 1,11,-1
 285 411 l 1,12,-1
 262 434 l 1,13,-1
 253 572 l 2,14,15
 243 699 243 699 243 713 c 0,16,17
 243 716 243 716 267 741 c 2,0,-1
EndSplineSet
Validated: 1
EndChar

StartChar: parenleft
Encoding: 40 40 43
Width: 654
GlyphClass: 2
Flags: W
LayerCount: 2
Fore
SplineSet
445 757 m 0,0,1
 459 767 459 767 460 767 c 0,2,3
 471 757 471 757 483 744 c 2,4,-1
 506 721 l 1,5,-1
 481 696 l 2,6,7
 453 670 453 670 449 666 c 0,8,9
 421 649 421 649 408 633 c 0,10,11
 360 579 360 579 338 512 c 0,12,13
 307 412 307 412 323 306 c 0,14,15
 334 231 334 231 380 162 c 0,16,17
 403 129 403 129 416 118 c 0,18,19
 425 109 425 109 455 88 c 0,20,21
 463 83 463 83 483 61 c 2,22,-1
 506 38 l 1,23,-1
 481 14 l 1,24,-1
 456 -11 l 1,25,-1
 443 -1 l 2,26,27
 413 20 413 20 370 63 c 0,28,29
 323 108 323 108 305 132 c 0,30,31
 236 216 236 216 225 323 c 0,32,33
 224 337 224 337 224 373.5 c 128,-1,34
 224 410 224 410 225 424 c 0,35,36
 237 523 237 523 282 589 c 0,37,38
 304 623 304 623 369 689 c 0,39,40
 413 733 413 733 445 757 c 0,0,1
EndSplineSet
Validated: 33
EndChar

StartChar: parenright
Encoding: 41 41 44
Width: 654
GlyphClass: 2
Flags: W
LayerCount: 2
Fore
SplineSet
173 743 m 1,0,-1
 198 767 l 2,1,2
 201 767 201 767 236 739 c 0,3,4
 248 729 248 729 290.5 687 c 128,-1,5
 333 645 333 645 344 632 c 0,6,7
 346 629 346 629 352.5 620.5 c 128,-1,8
 359 612 359 612 361 609 c 0,9,10
 418 535 418 535 429 432 c 0,11,12
 435 386 435 386 431 340 c 0,13,14
 423 227 423 227 350 136 c 0,15,16
 332 112 332 112 283 65 c 0,17,18
 232 14 232 14 200 -7 c 2,19,-1
 194 -11 l 1,20,-1
 171 12 l 1,21,-1
 149 35 l 1,22,-1
 173 60 l 2,23,24
 201 87 201 87 210 93 c 0,25,26
 243 117 243 117 255 133 c 0,27,28
 290 177 290 177 308 218 c 0,29,30
 340 290 340 290 337 384 c 0,31,32
 331 524 331 524 258 616 c 0,33,34
 241 638 241 638 205 665 c 0,35,36
 192 674 192 674 170 696 c 2,37,-1
 149 718 l 1,38,-1
 173 743 l 1,0,-1
EndSplineSet
Validated: 33
EndChar

StartChar: asterisk
Encoding: 42 42 45
Width: 654
GlyphClass: 2
Flags: W
LayerCount: 2
Fore
SplineSet
305 620 m 1,0,-1
 329 645 l 1,1,-1
 352 622 l 1,2,-1
 375 600 l 1,3,-1
 375 520 l 1,4,-1
 375 441 l 1,5,-1
 435 461 l 2,6,7
 455 468 455 468 482.5 477 c 128,-1,8
 510 486 510 486 512 486 c 2,9,-1
 528 491 l 1,10,-1
 551 468 l 1,11,-1
 574 445 l 1,12,-1
 549 421 l 1,13,-1
 525 396 l 1,14,-1
 471 378 l 2,15,16
 416 362 416 362 416 360 c 0,17,18
 436 325 436 325 461 282 c 2,19,-1
 506 204 l 1,20,-1
 481 179 l 1,21,-1
 457 154 l 1,22,-1
 434 177 l 1,23,-1
 410 200 l 1,24,-1
 374 264 l 2,25,26
 365 279 365 279 358.5 290.5 c 128,-1,27
 352 302 352 302 347.5 309 c 128,-1,28
 343 316 343 316 340.5 320 c 128,-1,29
 338 324 338 324 336 326 c 2,30,-1
 335 327 l 2,31,32
 335 326 335 326 289 265 c 2,33,-1
 245 205 l 1,34,-1
 220 179 l 1,35,-1
 195 154 l 1,36,-1
 172 177 l 1,37,-1
 149 200 l 2,38,39
 149 202 149 202 205 276 c 2,40,-1
 260 352 l 2,41,42
 258 354 258 354 193 374 c 2,43,-1
 127 396 l 1,44,-1
 104 419 l 1,45,-1
 81 442 l 1,46,-1
 105 466 l 2,47,48
 128 491 128 491 131 491 c 0,49,50
 165 480 165 480 206 467 c 2,51,-1
 280 442 l 1,52,-1
 280 519 l 1,53,-1
 280 595 l 1,54,-1
 305 620 l 1,0,-1
EndSplineSet
Validated: 1
EndChar

StartChar: plus
Encoding: 43 43 46
Width: 654
GlyphClass: 2
Flags: W
LayerCount: 2
Fore
SplineSet
305 629 m 1,0,-1
 329 654 l 1,1,-1
 352 631 l 1,2,-1
 375 609 l 1,3,-1
 375 517 l 1,4,-1
 375 426 l 1,5,-1
 452 426 l 1,6,-1
 528 426 l 1,7,-1
 551 403 l 1,8,-1
 574 381 l 1,9,-1
 549 356 l 1,10,-1
 525 331 l 1,11,-1
 450 331 l 1,12,-1
 375 331 l 1,13,-1
 375 242 l 1,14,-1
 375 153 l 1,15,-1
 350 128 l 1,16,-1
 326 103 l 1,17,-1
 303 126 l 1,18,-1
 280 148 l 1,19,-1
 280 240 l 1,20,-1
 280 331 l 1,21,-1
 203 331 l 1,22,-1
 126 331 l 1,23,-1
 103 354 l 1,24,-1
 81 377 l 1,25,-1
 105 402 l 1,26,-1
 129 426 l 1,27,-1
 205 426 l 1,28,-1
 280 426 l 1,29,-1
 280 515 l 1,30,-1
 280 604 l 1,31,-1
 305 629 l 1,0,-1
EndSplineSet
Validated: 1
EndChar

StartChar: comma
Encoding: 44 44 47
Width: 654
GlyphClass: 2
Flags: W
LayerCount: 2
Fore
SplineSet
321 179 m 1,0,-1
 345 204 l 1,1,-1
 401 204 l 1,2,-1
 457 204 l 1,3,-1
 480 181 l 1,4,-1
 503 159 l 1,5,-1
 503 143 l 1,6,-1
 503 127 l 1,7,-1
 392 14 l 2,8,9
 301 -80 301 -80 241 -140 c 2,10,-1
 201 -181 l 1,11,-1
 186 -181 l 1,12,-1
 171 -181 l 1,13,-1
 149 -158 l 1,14,-1
 126 -135 l 1,15,-1
 211 10 l 1,16,-1
 296 155 l 1,17,-1
 321 179 l 1,0,-1
380 95 m 1,18,-1
 393 109 l 1,19,-1
 378 109 l 1,20,-1
 363 109 l 1,21,-1
 356 97 l 2,22,23
 354 94 354 94 346 80.5 c 128,-1,24
 338 67 338 67 333 59 c 2,25,-1
 317 32 l 1,26,-1
 342 57 l 1,27,-1
 380 95 l 1,18,-1
EndSplineSet
Validated: 1
EndChar

StartChar: hyphen
Encoding: 45 45 48
Width: 654
GlyphClass: 2
Flags: W
LayerCount: 2
Fore
SplineSet
105 416 m 1,0,-1
 129 440 l 1,1,-1
 329 440 l 1,2,-1
 528 440 l 1,3,-1
 551 417 l 1,4,-1
 574 395 l 1,5,-1
 574 380 l 1,6,-1
 574 366 l 1,7,-1
 550 341 l 1,8,-1
 526 317 l 1,9,-1
 326 317 l 1,10,-1
 127 317 l 1,11,-1
 104 340 l 1,12,-1
 81 362 l 1,13,-1
 81 377 l 1,14,-1
 81 391 l 1,15,-1
 105 416 l 1,0,-1
EndSplineSet
Validated: 1
EndChar

StartChar: period
Encoding: 46 46 49
Width: 654
GlyphClass: 2
Flags: W
LayerCount: 2
Fore
SplineSet
233 160 m 1,0,-1
 257 184 l 1,1,-1
 329 184 l 1,2,-1
 400 184 l 1,3,-1
 423 161 l 1,4,-1
 446 139 l 1,5,-1
 446 90 l 1,6,-1
 446 42 l 1,7,-1
 421 17 l 1,8,-1
 397 -8 l 1,9,-1
 326 -8 l 1,10,-1
 255 -8 l 1,11,-1
 232 15 l 1,12,-1
 209 37 l 1,13,-1
 209 86 l 1,14,-1
 209 135 l 1,15,-1
 233 160 l 1,0,-1
351 88 m 128,-1,17
 351 89 351 89 328 89 c 0,18,19
 304 89 304 89 304 88 c 128,-1,20
 304 87 304 87 328 87 c 0,21,16
 351 87 351 87 351 88 c 128,-1,17
EndSplineSet
Validated: 1
EndChar

StartChar: slash
Encoding: 47 47 50
Width: 654
GlyphClass: 2
Flags: W
LayerCount: 2
Fore
SplineSet
444 743 m 1,0,-1
 468 768 l 1,1,-1
 491 745 l 1,2,-1
 514 722 l 1,3,-1
 498 681 l 2,4,5
 481 640 481 640 442.5 545.5 c 128,-1,6
 404 451 404 451 375 380 c 2,7,-1
 236 40 l 1,8,-1
 211 15 l 1,9,-1
 186 -10 l 1,10,-1
 163 13 l 1,11,-1
 140 36 l 1,12,-1
 280 377 l 1,13,-1
 419 719 l 1,14,-1
 444 743 l 1,0,-1
EndSplineSet
Validated: 1
EndChar

StartChar: zero
Encoding: 48 48 51
Width: 654
GlyphClass: 2
Flags: W
LayerCount: 2
Fore
SplineSet
282 766 m 0,0,1
 283 766 283 766 291 766 c 128,-1,2
 299 766 299 766 311 766.5 c 128,-1,3
 323 767 323 767 334 767 c 0,4,5
 378 766 378 766 388 764 c 0,6,7
 419 756 419 756 440 742 c 0,8,9
 449 737 449 737 480 706 c 2,10,-1
 516 670 l 1,11,12
 551 626 551 626 564 548 c 0,13,14
 574 486 574 486 574 352 c 0,15,16
 574 339 574 339 573.5 319.5 c 128,-1,17
 573 300 573 300 572.5 289.5 c 128,-1,18
 572 279 572 279 572 276 c 0,19,20
 564 179 564 179 535 123 c 0,21,22
 521 97 521 97 483 59 c 0,23,24
 441 16 441 16 418 4 c 0,25,26
 398 -5 398 -5 380 -9 c 0,27,28
 373 -10 373 -10 326 -10 c 0,29,30
 278 -10 278 -10 271 -9 c 0,31,32
 241 -3 241 -3 217 13 c 0,33,34
 206 20 206 20 174 53 c 0,35,36
 138 89 138 89 135 95 c 0,37,38
 93 153 93 153 83 272 c 0,39,40
 81 297 81 297 81.5 375.5 c 128,-1,41
 82 454 82 454 84 486 c 0,42,43
 93 598 93 598 130 654 c 0,44,45
 139 667 139 667 172 701 c 0,46,47
 206 735 206 735 218 743 c 0,48,49
 248 761 248 761 282 766 c 0,0,1
365 671 m 0,50,51
 355 672 355 672 325 672 c 128,-1,52
 295 672 295 672 284 671 c 0,53,54
 264 669 264 669 248 663 c 0,55,56
 224 657 224 657 220 650 c 0,57,58
 213 641 213 641 205 618 c 0,59,60
 184 566 184 566 178 465 c 0,61,62
 177 442 177 442 176.5 385.5 c 128,-1,63
 176 329 176 329 177 308 c 0,64,65
 183 176 183 176 221 112 c 0,66,67
 225 105 225 105 236 99 c 0,68,69
 270 84 270 84 329 84 c 128,-1,70
 388 84 388 84 421 99 c 0,71,72
 431 103 431 103 434 110 c 0,73,74
 461 153 461 153 472 230 c 0,75,76
 479 278 479 278 479 387 c 0,77,78
 479 399 479 399 478.5 416 c 128,-1,79
 478 433 478 433 477.5 444.5 c 128,-1,80
 477 456 477 456 477 461 c 0,81,82
 470 583 470 583 438 640 c 2,83,-1
 433 650 l 1,84,-1
 423 655 l 2,85,86
 397 668 397 668 365 671 c 0,50,51
EndSplineSet
Validated: 33
EndChar

StartChar: one
Encoding: 49 49 52
Width: 654
GlyphClass: 2
Flags: W
LayerCount: 2
Fore
SplineSet
248 685 m 2,0,-1
 341 765 l 1,1,-1
 356 765 l 1,2,-1
 371 765 l 1,3,-1
 394 742 l 1,4,-1
 417 720 l 1,5,-1
 417 381 l 1,6,-1
 417 41 l 1,7,-1
 392 17 l 1,8,-1
 367 -8 l 1,9,-1
 345 15 l 1,10,-1
 322 38 l 1,11,-1
 322 347 l 1,12,-1
 322 656 l 1,13,-1
 240 586 l 1,14,-1
 158 516 l 1,15,-1
 135 539 l 1,16,-1
 112 562 l 1,17,-1
 133 584 l 2,18,19
 156 607 156 607 248 685 c 2,0,-1
EndSplineSet
Validated: 1
EndChar

StartChar: two
Encoding: 50 50 53
Width: 654
GlyphClass: 2
Flags: W
LayerCount: 2
Fore
SplineSet
293 766 m 0,0,1
 302 767 302 767 324.5 766.5 c 128,-1,2
 347 766 347 766 354 765 c 0,3,4
 399 760 399 760 438 733 c 0,5,6
 448 726 448 726 479 695.5 c 128,-1,7
 510 665 510 665 518 654 c 0,8,9
 538 626 538 626 545 594 c 0,10,11
 551 567 551 567 547 542 c 0,12,13
 541 496 541 496 509 454 c 0,14,15
 503 446 503 446 472 414 c 128,-1,16
 441 382 441 382 427 370 c 0,17,18
 404 349 404 349 340 307 c 0,19,20
 260 255 260 255 250 243 c 0,21,22
 239 232 239 232 226 206 c 0,23,24
 208 169 208 169 204 111 c 1,25,-1
 204 99 l 1,26,-1
 356 99 l 1,27,-1
 508 99 l 1,28,-1
 531 76 l 1,29,-1
 554 54 l 1,30,-1
 529 29 l 1,31,-1
 505 4 l 1,32,-1
 329 4 l 1,33,-1
 154 4 l 1,34,-1
 132 27 l 1,35,-1
 109 50 l 1,36,-1
 109 89 l 2,37,38
 110 133 110 133 112 142 c 0,39,40
 121 198 121 198 158 244 c 0,41,42
 165 253 165 253 204 292 c 128,-1,43
 243 331 243 331 253 339 c 0,44,45
 280 361 280 361 364 416 c 0,46,47
 377 424 377 424 401 442 c 0,48,49
 415 451 415 451 422 463 c 0,50,51
 457 514 457 514 452 570 c 0,52,53
 449 607 449 607 433 635 c 0,54,55
 429 642 429 642 420 647 c 0,56,57
 382 669 382 669 331 672 c 0,58,59
 288 672 288 672 266 669 c 0,60,61
 205 660 205 660 153 627 c 2,62,-1
 144 621 l 1,63,-1
 121 644 l 1,64,-1
 98 667 l 1,65,-1
 123 692 l 2,66,67
 143 713 143 713 151.5 719.5 c 128,-1,68
 160 726 160 726 180 736 c 0,69,70
 232 762 232 762 293 766 c 0,0,1
EndSplineSet
Validated: 33
EndChar

StartChar: three
Encoding: 51 51 54
Width: 654
GlyphClass: 2
Flags: W
LayerCount: 2
Fore
SplineSet
108 728 m 1,0,-1
 132 753 l 1,1,-1
 313 753 l 1,2,-1
 494 753 l 1,3,-1
 517 730 l 1,4,-1
 540 708 l 1,5,-1
 540 690 l 1,6,-1
 540 673 l 1,7,-1
 444 572 l 2,8,9
 419 546 419 546 396 522 c 128,-1,10
 373 498 373 498 360.5 484.5 c 128,-1,11
 348 471 348 471 349 471 c 0,12,13
 355 469 355 469 362 467 c 0,14,15
 416 453 416 453 452 426 c 0,16,17
 459 421 459 421 489.5 391 c 128,-1,18
 520 361 520 361 526 353 c 0,19,20
 566 305 566 305 566 239 c 0,21,22
 566 168 566 168 524 117 c 0,23,24
 517 108 517 108 484.5 75.5 c 128,-1,25
 452 43 452 43 445 38 c 0,26,27
 381 -11 381 -11 280 -11 c 0,28,29
 206 -11 206 -11 137 16 c 2,30,-1
 126 21 l 1,31,-1
 103 44 l 1,32,-1
 80 67 l 1,33,-1
 105 91 l 1,34,-1
 130 116 l 1,35,-1
 141 112 l 2,36,37
 202 88 202 88 267 84.5 c 128,-1,38
 332 81 332 81 387 100 c 0,39,40
 413 110 413 110 433 122 c 0,41,42
 439 126 439 126 444 135 c 0,43,44
 458 158 458 158 467 193 c 0,45,46
 481 269 481 269 447 327 c 0,47,48
 442 336 442 336 434 341 c 0,49,50
 412 353 412 353 403 357 c 0,51,52
 351 379 351 379 279 384 c 2,53,-1
 263 385 l 1,54,-1
 240 408 l 1,55,-1
 217 431 l 1,56,-1
 325 544 l 1,57,-1
 433 658 l 1,58,-1
 281 658 l 1,59,-1
 129 658 l 1,60,-1
 106 681 l 1,61,-1
 83 703 l 1,62,-1
 108 728 l 1,0,-1
EndSplineSet
Validated: 33
EndChar

StartChar: four
Encoding: 52 52 55
Width: 654
GlyphClass: 2
Flags: W
LayerCount: 2
Fore
SplineSet
321 739 m 1,0,-1
 346 764 l 1,1,2
 357 754 357 754 369 741 c 2,3,-1
 392 719 l 1,4,-1
 285 490 l 1,5,-1
 178 261 l 1,6,-1
 277 261 l 1,7,-1
 376 261 l 1,8,-1
 376 319 l 1,9,-1
 376 376 l 1,10,-1
 401 401 l 1,11,-1
 425 426 l 1,12,-1
 448 403 l 1,13,-1
 471 381 l 1,14,-1
 471 321 l 1,15,-1
 471 261 l 1,16,-1
 500 261 l 1,17,-1
 528 261 l 1,18,-1
 551 238 l 1,19,-1
 574 216 l 1,20,-1
 549 191 l 1,21,-1
 525 166 l 1,22,-1
 498 166 l 1,23,-1
 471 166 l 1,24,-1
 471 104 l 1,25,-1
 471 42 l 1,26,-1
 446 17 l 1,27,-1
 422 -8 l 1,28,-1
 399 15 l 1,29,-1
 376 37 l 1,30,-1
 376 102 l 1,31,-1
 376 166 l 1,32,-1
 251 166 l 1,33,-1
 127 166 l 1,34,-1
 104 189 l 1,35,-1
 81 211 l 1,36,-1
 81 233 l 1,37,-1
 81 255 l 1,38,-1
 189 485 l 1,39,-1
 296 715 l 1,40,-1
 321 739 l 1,0,-1
EndSplineSet
Validated: 1
EndChar

StartChar: five
Encoding: 53 53 56
Width: 654
GlyphClass: 2
Flags: W
LayerCount: 2
Fore
SplineSet
165 728 m 1,0,-1
 189 753 l 1,1,-1
 336 753 l 1,2,-1
 483 753 l 1,3,-1
 506 730 l 1,4,-1
 528 707 l 1,5,-1
 504 682 l 1,6,-1
 480 658 l 1,7,-1
 356 658 l 1,8,-1
 233 658 l 1,9,-1
 233 655 l 2,10,11
 231 651 231 651 229 587 c 0,12,13
 225 520 225 520 224 515 c 2,14,-1
 224 508 l 1,15,-1
 252 508 l 2,16,17
 289 507 289 507 316 502 c 0,18,19
 380 492 380 492 421 462 c 0,20,21
 428 457 428 457 457 428.5 c 128,-1,22
 486 400 486 400 495 390 c 0,23,24
 516 363 516 363 527 322 c 0,25,26
 533 297 533 297 533 262 c 0,27,28
 533 236 533 236 531 226 c 0,29,30
 522 178 522 178 488 138 c 0,31,32
 479 128 479 128 447 96 c 128,-1,33
 415 64 415 64 407 58 c 0,34,35
 326 -7 326 -7 177 -11 c 1,36,-1
 152 -11 l 1,37,-1
 129 12 l 1,38,-1
 106 34 l 1,39,-1
 131 59 l 1,40,-1
 155 84 l 1,41,-1
 177 84 l 1,42,43
 281 89 281 89 341 113 c 0,44,45
 368 124 368 124 391 139 c 0,46,47
 403 146 403 146 408 155 c 0,48,49
 431 190 431 190 437 231 c 0,50,51
 441 255 441 255 437 290 c 0,52,53
 431 330 431 330 417 358 c 0,54,55
 410 372 410 372 404 375 c 0,56,57
 361 402 361 402 283 411 c 0,58,59
 271 412 271 412 232 412 c 0,60,61
 190 412 190 412 184 411 c 2,62,-1
 173 410 l 1,63,-1
 149 433 l 1,64,-1
 126 457 l 1,65,-1
 133 580 l 1,66,-1
 140 704 l 1,67,-1
 165 728 l 1,0,-1
EndSplineSet
Validated: 33
EndChar

StartChar: six
Encoding: 54 54 57
Width: 654
GlyphClass: 2
Flags: W
LayerCount: 2
Fore
SplineSet
365 727 m 2,0,-1
 403 764 l 1,1,2
 414 754 414 754 426 741 c 2,3,-1
 449 718 l 1,4,-1
 444 713 l 2,5,6
 438 709 438 709 420 689 c 0,7,8
 314 575 314 575 252 478 c 1,9,-1
 246 470 l 1,10,-1
 255 472 l 1,11,12
 300 487 300 487 356 482 c 0,13,14
 422 476 422 476 466 438 c 0,15,16
 475 431 475 431 504 401.5 c 128,-1,17
 533 372 533 372 538 365 c 0,18,19
 563 330 563 330 572 276 c 0,20,21
 577 235 577 235 573 207 c 0,22,23
 568 168 568 168 553 137 c 0,24,25
 541 113 541 113 501 72 c 0,26,27
 469 40 469 40 461 34 c 0,28,29
 412 -8 412 -8 334 -11 c 0,30,31
 274 -12 274 -12 228 10 c 0,32,33
 209 19 209 19 196.5 29.5 c 128,-1,34
 184 40 184 40 154 70 c 0,35,36
 109 115 109 115 98 142 c 0,37,38
 76 192 76 192 82 270 c 0,39,40
 86 322 86 322 98.5 361 c 128,-1,41
 111 400 111 400 141 450 c 0,42,43
 216 577 216 577 365 727 c 2,0,-1
361 386 m 0,44,45
 323 388 323 388 304 387 c 0,46,47
 258 383 258 383 224 365 c 0,48,49
 211 359 211 359 207 352 c 0,50,51
 179 307 179 307 176 244 c 0,52,53
 174 174 174 174 203 127 c 0,54,55
 207 119 207 119 218 112 c 0,56,57
 256 90 256 90 313 85 c 0,58,59
 388 80 388 80 440 112 c 0,60,61
 449 117 449 117 452 123 c 0,62,63
 471 155 471 155 477 198 c 0,64,65
 478 207 478 207 478 229.5 c 128,-1,66
 478 252 478 252 477 264 c 0,67,68
 473 297 473 297 466 317 c 0,69,70
 456 345 456 345 447 354 c 0,71,72
 441 360 441 360 430 364 c 0,73,74
 400 380 400 380 361 386 c 0,44,45
EndSplineSet
Validated: 33
EndChar

StartChar: seven
Encoding: 55 55 58
Width: 654
GlyphClass: 2
Flags: W
LayerCount: 2
Fore
SplineSet
105 729 m 1,0,-1
 129 753 l 1,1,-1
 329 753 l 1,2,-1
 528 753 l 1,3,-1
 551 730 l 1,4,-1
 574 708 l 1,5,-1
 574 701 l 2,6,7
 574 674 574 674 560 639 c 0,8,9
 541 589 541 589 460 489 c 0,10,11
 421 442 421 442 397 406 c 0,12,13
 334 315 334 315 313 192 c 0,14,15
 305 140 305 140 302 74 c 2,16,-1
 301 42 l 1,17,-1
 276 17 l 1,18,-1
 252 -8 l 1,19,-1
 229 15 l 1,20,-1
 206 37 l 1,21,-1
 206 54 l 2,22,23
 206 174 206 174 239 275 c 0,24,25
 259 338 259 338 297 397 c 0,26,27
 315 422 315 422 381 506 c 0,28,29
 442 580 442 580 460 624 c 0,30,31
 469 643 469 643 471 655 c 2,32,-1
 472 658 l 1,33,-1
 299 658 l 1,34,-1
 126 658 l 1,35,-1
 103 681 l 1,36,-1
 81 704 l 1,37,-1
 105 729 l 1,0,-1
EndSplineSet
Validated: 1
EndChar

StartChar: eight
Encoding: 56 56 59
Width: 654
GlyphClass: 2
Flags: W
LayerCount: 2
Fore
SplineSet
303 766 m 0,0,1
 328 768 328 768 355 766 c 0,2,3
 394 761 394 761 420 748 c 0,4,5
 443 737 443 737 481 699 c 0,6,7
 521 659 521 659 529 643 c 0,8,9
 539 625 539 625 540 602 c 0,10,11
 541 555 541 555 512 513 c 0,12,13
 508 507 508 507 476.5 476 c 128,-1,14
 445 445 445 445 437 438 c 0,15,16
 434 435 434 435 422 426 c 2,17,-1
 415 421 l 1,18,-1
 424 415 l 2,19,20
 445 399 445 399 483 361 c 0,21,22
 532 313 532 313 551 282 c 0,23,24
 568 254 568 254 573 218 c 0,25,26
 577 196 577 196 572 173 c 0,27,28
 565 140 565 140 544 111 c 0,29,30
 539 104 539 104 508 72.5 c 128,-1,31
 477 41 477 41 468 34 c 0,32,33
 431 3 431 3 384 -6 c 0,34,35
 363 -11 363 -11 322 -11 c 0,36,37
 295 -11 295 -11 286 -10 c 0,38,39
 230 -1 230 -1 189 31 c 0,40,41
 183 36 183 36 153 65.5 c 128,-1,42
 123 95 123 95 117 102 c 0,43,44
 92 131 92 131 83 170 c 0,45,46
 78 193 78 193 82 215 c 0,47,48
 87 251 87 251 104 279 c 0,49,50
 121 308 121 308 173 360 c 0,51,52
 213 399 213 399 232 413 c 2,53,-1
 240 419 l 1,54,-1
 231 425 l 1,55,-1
 215 437 l 2,56,57
 206 445 206 445 176.5 474.5 c 128,-1,58
 147 504 147 504 143 510 c 0,59,60
 113 552 113 552 115 599 c 0,61,62
 116 618 116 618 125 637 c 0,63,64
 133 654 133 654 169 691 c 0,65,66
 176 697 176 697 185.5 706.5 c 128,-1,67
 195 716 195 716 200.5 721.5 c 128,-1,68
 206 727 206 727 208 728 c 0,69,70
 246 760 246 760 303 766 c 0,0,1
359 670 m 0,71,72
 325 673 325 673 305 671 c 0,73,74
 265 668 265 668 235 652 c 0,75,76
 223 647 223 647 221 642 c 0,77,78
 213 625 213 625 211 608 c 0,79,80
 206 569 206 569 229 529 c 0,81,82
 233 521 233 521 243 515 c 0,83,84
 264 502 264 502 300 485 c 2,85,-1
 329 471 l 1,86,-1
 349 481 l 2,87,88
 386 497 386 497 412 513 c 2,89,-1
 424 520 l 1,90,-1
 429 530 l 2,91,92
 449 570 449 570 444 606 c 0,93,94
 443 620 443 620 434 640 c 0,95,96
 431 646 431 646 419 652 c 0,97,98
 394 664 394 664 359 670 c 0,71,72
350 363 m 0,99,100
 342 368 342 368 330 374 c 2,101,-1
 325 376 l 1,102,-1
 306 366 l 2,103,104
 230 327 230 327 213 303 c 0,105,106
 147 213 147 213 196 128 c 0,107,108
 201 119 201 119 212 113 c 0,109,110
 254 88 254 88 308 84 c 0,111,112
 345 82 345 82 380 88 c 0,113,114
 419 93 419 93 449 113 c 0,115,116
 456 117 456 117 461 128 c 0,117,118
 504 208 504 208 447 292 c 0,119,120
 437 307 437 307 421 319 c 0,121,122
 391 341 391 341 350 363 c 0,99,100
EndSplineSet
Validated: 33
EndChar

StartChar: nine
Encoding: 57 57 60
Width: 654
GlyphClass: 2
Flags: W
LayerCount: 2
Fore
SplineSet
306 766 m 0,0,1
 315 768 315 768 336 767 c 128,-1,2
 357 766 357 766 367 764 c 0,3,4
 417 755 417 755 455 727 c 0,5,6
 463 721 463 721 496.5 687.5 c 128,-1,7
 530 654 530 654 537 645 c 0,8,9
 563 610 563 610 570 563 c 0,10,11
 581 503 581 503 568 447 c 0,12,13
 548 365 548 365 495 277 c 0,14,15
 445 195 445 195 379 120 c 0,16,17
 338 75 338 75 269 8 c 2,18,-1
 252 -8 l 1,19,-1
 229 15 l 1,20,-1
 206 38 l 1,21,-1
 242 74 l 2,22,23
 277 109 277 109 289 123 c 0,24,25
 335 175 335 175 373 232 c 0,26,27
 404 278 404 278 404 281 c 1,28,29
 400 281 400 281 395 280 c 0,30,31
 374 275 374 275 329 275 c 0,32,33
 291 274 291 274 265 280 c 0,34,35
 231 288 231 288 203 308 c 0,36,37
 195 313 195 313 163.5 344 c 128,-1,38
 132 375 132 375 124 385 c 0,39,40
 88 430 88 430 82 489 c 0,41,42
 78 518 78 518 84 547 c 0,43,44
 95 605 95 605 130 648 c 0,45,46
 139 658 139 658 171.5 690 c 128,-1,47
 204 722 204 722 211 727 c 0,48,49
 253 759 253 759 306 766 c 0,0,1
358 669 m 0,50,51
 333 673 333 673 311 671 c 0,52,53
 272 668 272 668 238 651 c 0,54,55
 215 638 215 638 209 628 c 0,56,57
 178 579 178 579 176.5 519 c 128,-1,58
 175 459 175 459 204 411 c 0,59,60
 210 400 210 400 219 395 c 0,61,62
 269 366 269 366 351 370 c 0,63,64
 407 373 407 373 444 390 c 2,65,-1
 454 395 l 1,66,-1
 459 405 l 2,67,68
 466 419 466 419 472 446 c 0,69,70
 478 476 478 476 478 511 c 0,71,72
 478 583 478 583 450 628 c 0,73,74
 446 635 446 635 438 641 c 0,75,76
 402 663 402 663 358 669 c 0,50,51
EndSplineSet
Validated: 33
EndChar

StartChar: colon
Encoding: 58 58 61
Width: 654
GlyphClass: 2
Flags: W
LayerCount: 2
Fore
SplineSet
250 504 m 1,0,-1
 274 528 l 1,1,-1
 329 528 l 1,2,-1
 383 528 l 1,3,-1
 406 505 l 1,4,-1
 429 483 l 1,5,-1
 429 443 l 1,6,-1
 429 403 l 1,7,-1
 405 378 l 1,8,-1
 381 354 l 1,9,-1
 326 354 l 1,10,-1
 272 354 l 1,11,-1
 249 377 l 1,12,-1
 226 399 l 1,13,-1
 226 439 l 1,14,-1
 226 479 l 1,15,-1
 250 504 l 1,0,-1
250 143 m 1,16,-1
 274 167 l 1,17,-1
 329 167 l 1,18,-1
 383 167 l 1,19,-1
 406 144 l 1,20,-1
 429 122 l 1,21,-1
 429 82 l 1,22,-1
 429 42 l 1,23,-1
 404 17 l 1,24,-1
 380 -8 l 1,25,-1
 326 -8 l 1,26,-1
 272 -8 l 1,27,-1
 249 15 l 1,28,-1
 226 37 l 1,29,-1
 226 78 l 1,30,-1
 226 118 l 1,31,-1
 250 143 l 1,16,-1
EndSplineSet
Validated: 1
EndChar

StartChar: semicolon
Encoding: 59 59 62
Width: 654
GlyphClass: 2
Flags: W
LayerCount: 2
Fore
SplineSet
270 504 m 1,0,-1
 294 528 l 1,1,-1
 349 528 l 1,2,-1
 403 528 l 1,3,-1
 426 505 l 1,4,-1
 449 483 l 1,5,-1
 449 443 l 1,6,-1
 449 403 l 1,7,-1
 425 378 l 1,8,-1
 401 354 l 1,9,-1
 346 354 l 1,10,-1
 292 354 l 1,11,-1
 269 377 l 1,12,-1
 246 399 l 1,13,-1
 246 439 l 1,14,-1
 246 479 l 1,15,-1
 270 504 l 1,0,-1
270 145 m 1,16,-1
 294 170 l 1,17,-1
 351 170 l 1,18,-1
 407 170 l 1,19,-1
 429 147 l 1,20,-1
 452 124 l 1,21,-1
 357 -1 l 1,22,-1
 262 -125 l 1,23,-1
 237 -151 l 1,24,-1
 212 -176 l 1,25,-1
 190 -176 l 1,26,-1
 168 -176 l 1,27,-1
 146 -153 l 1,28,-1
 123 -130 l 1,29,-1
 184 -5 l 1,30,-1
 245 121 l 1,31,-1
 270 145 l 1,16,-1
320 74 m 0,32,33
 321 75 321 75 319 75 c 128,-1,34
 317 75 317 75 313 67 c 0,35,36
 312 64 312 64 310 61 c 2,37,-1
 310 60 l 1,38,39
 316 66 316 66 320 74 c 0,32,33
EndSplineSet
Validated: 1
EndChar

StartChar: less
Encoding: 60 60 63
Width: 654
GlyphClass: 2
Flags: W
LayerCount: 2
Fore
SplineSet
328 558 m 2,0,1
 525 690 525 690 528 690 c 0,2,3
 539 680 539 680 551 667 c 2,4,-1
 574 644 l 1,5,-1
 549 619 l 1,6,-1
 524 594 l 1,7,-1
 362 487 l 1,8,-1
 200 380 l 1,9,-1
 263 338 l 2,10,11
 302 311 302 311 428 228 c 2,12,-1
 529 161 l 1,13,-1
 551 138 l 1,14,-1
 574 115 l 1,15,-1
 549 91 l 1,16,-1
 525 66 l 1,17,-1
 325 199 l 1,18,-1
 126 331 l 1,19,-1
 103 354 l 1,20,-1
 80 377 l 1,21,-1
 105 401 l 1,22,-1
 130 426 l 1,23,-1
 328 558 l 2,0,1
EndSplineSet
Validated: 1
EndChar

StartChar: equal
Encoding: 61 61 64
Width: 654
GlyphClass: 2
Flags: W
LayerCount: 2
Fore
SplineSet
105 516 m 1,0,-1
 129 540 l 1,1,-1
 329 540 l 1,2,-1
 528 540 l 1,3,-1
 551 517 l 1,4,-1
 574 495 l 1,5,-1
 549 470 l 1,6,-1
 525 445 l 1,7,-1
 325 445 l 1,8,-1
 126 445 l 1,9,-1
 103 468 l 1,10,-1
 81 491 l 1,11,-1
 105 516 l 1,0,-1
105 288 m 1,12,-1
 129 312 l 1,13,-1
 329 312 l 1,14,-1
 528 312 l 1,15,-1
 551 289 l 1,16,-1
 574 267 l 1,17,-1
 549 242 l 1,18,-1
 525 217 l 1,19,-1
 325 217 l 1,20,-1
 126 217 l 1,21,-1
 103 240 l 1,22,-1
 81 263 l 1,23,-1
 105 288 l 1,12,-1
EndSplineSet
Validated: 1
EndChar

StartChar: greater
Encoding: 62 62 65
Width: 654
GlyphClass: 2
Flags: W
LayerCount: 2
Fore
SplineSet
105 666 m 1,0,-1
 130 690 l 2,1,2
 132 690 132 690 329 558 c 2,3,-1
 528 427 l 1,4,-1
 551 404 l 1,5,-1
 574 380 l 1,6,-1
 549 355 l 1,7,-1
 523 330 l 1,8,-1
 325 198 l 1,9,-1
 127 66 l 1,10,-1
 104 89 l 1,11,-1
 81 112 l 1,12,-1
 106 137 l 1,13,-1
 132 163 l 1,14,-1
 292 269 l 2,15,16
 329 293 329 293 370.5 321 c 128,-1,17
 412 349 412 349 432 362 c 2,18,-1
 453 376 l 2,19,20
 454 377 454 377 422 398.5 c 128,-1,21
 390 420 390 420 290 487 c 2,22,-1
 126 596 l 1,23,-1
 103 618 l 1,24,-1
 81 641 l 1,25,-1
 105 666 l 1,0,-1
EndSplineSet
Validated: 33
EndChar

StartChar: question
Encoding: 63 63 66
Width: 654
GlyphClass: 2
Flags: W
LayerCount: 2
Fore
SplineSet
294 710 m 0,0,1
 323 712 323 712 343 709 c 0,2,3
 392 703 392 703 424 677 c 0,4,5
 432 671 432 671 461 642 c 0,6,7
 489 614 489 614 497.5 601.5 c 128,-1,8
 506 589 506 589 512 570 c 0,9,10
 524 532 524 532 507 490 c 0,11,12
 488 443 488 443 465 413 c 0,13,14
 455 399 455 399 423 369 c 0,15,16
 388 334 388 334 383 324 c 128,-1,17
 378 314 378 314 375 297 c 2,18,-1
 375 291 l 1,19,-1
 350 267 l 1,20,-1
 326 243 l 1,21,-1
 303 266 l 1,22,-1
 280 289 l 1,23,-1
 280 296 l 2,24,25
 282 314 282 314 293 332 c 0,26,27
 301 343 301 343 337 379 c 0,28,29
 368 410 368 410 375 418.5 c 128,-1,30
 382 427 382 427 391 444 c 0,31,32
 429 514 429 514 419 557 c 0,33,34
 416 574 416 574 408 586 c 0,35,36
 405 593 405 593 396 597 c 0,37,38
 352 620 352 620 300 615 c 0,39,40
 263 612 263 612 231 597 c 2,41,-1
 220 592 l 1,42,-1
 217 585 l 2,43,44
 205 560 205 560 204 535 c 2,45,-1
 204 523 l 1,46,-1
 179 498 l 1,47,-1
 155 473 l 1,48,-1
 132 496 l 1,49,-1
 109 518 l 1,50,-1
 109 529 l 2,51,52
 109 555 109 555 122 583 c 0,53,54
 131 601 131 601 171 641 c 0,55,56
 212 682 212 682 234 693 c 0,57,58
 263 707 263 707 294 710 c 0,0,1
281 52 m 1,59,-1
 305 76 l 1,60,-1
 328 76 l 1,61,-1
 351 76 l 1,62,-1
 374 53 l 1,63,-1
 397 31 l 1,64,-1
 397 7 l 1,65,-1
 397 -16 l 1,66,-1
 373 -41 l 1,67,-1
 349 -65 l 1,68,-1
 326 -65 l 1,69,-1
 303 -65 l 1,70,-1
 280 -42 l 1,71,-1
 257 -20 l 1,72,-1
 257 4 l 1,73,-1
 257 27 l 1,74,-1
 281 52 l 1,59,-1
EndSplineSet
Validated: 33
EndChar

StartChar: at
Encoding: 64 64 67
Width: 654
GlyphClass: 2
Flags: W
LayerCount: 2
Fore
SplineSet
296 712 m 0,0,1
 301 713 301 713 320.5 713 c 128,-1,2
 340 713 340 713 347 712 c 0,3,4
 404 706 404 706 443 677 c 0,5,6
 449 672 449 672 478 644 c 128,-1,7
 507 616 507 616 514 607 c 0,8,9
 557 557 557 557 569 453 c 0,10,11
 574 402 574 402 574 278 c 0,12,13
 574 157 574 157 572 145 c 0,14,15
 567 105 567 105 549 77 c 0,16,17
 545 71 545 71 514 38 c 0,18,19
 485 9 485 9 477 3 c 0,20,21
 466 -6 466 -6 446 -13 c 0,22,23
 438 -15 438 -15 423 -15 c 0,24,25
 407 -15 407 -15 400 -13 c 0,26,27
 390 -9 390 -9 387 -7 c 128,-1,28
 384 -5 384 -5 358 19 c 2,29,-1
 335 42 l 1,30,-1
 317 25 l 2,31,32
 298 6 298 6 292 3 c 0,33,34
 275 -9 275 -9 258 -13 c 0,35,36
 249 -15 249 -15 230 -15 c 0,37,38
 208 -16 208 -16 188 -9 c 0,39,40
 173 -4 173 -4 139 29 c 0,41,42
 108 62 108 62 107 64 c 0,43,44
 81 97 81 97 80 176 c 0,45,46
 78 265 78 265 94 311 c 0,47,48
 99 325 99 325 105 333.5 c 128,-1,49
 111 342 111 342 136 367 c 0,50,51
 172 404 172 404 188 411 c 0,52,53
 214 421 214 421 245.5 413.5 c 128,-1,54
 277 406 277 406 306 383 c 2,55,-1
 313 377 l 1,56,-1
 332 396 l 1,57,-1
 352 415 l 1,58,-1
 374 392 l 1,59,-1
 397 369 l 1,60,-1
 397 255 l 2,61,62
 397 136 397 136 398 127 c 0,63,64
 400 103 400 103 405 87 c 2,65,-1
 407 82 l 1,66,-1
 414 80 l 2,67,68
 434 77 434 77 456 85 c 0,69,70
 462 87 462 87 464 93 c 0,71,72
 475 114 475 114 478 157 c 0,73,74
 479 171 479 171 479 265 c 128,-1,75
 479 359 479 359 478 385 c 0,76,77
 472 519 472 519 436 580 c 0,78,79
 430 588 430 588 423 592 c 0,80,81
 391 611 391 611 348 616 c 0,82,83
 262 626 262 626 202 593 c 0,84,85
 194 590 194 590 191 582 c 0,86,87
 182 566 182 566 180 549 c 2,88,-1
 179 542 l 1,89,-1
 154 518 l 1,90,-1
 129 493 l 1,91,-1
 106 516 l 1,92,-1
 83 540 l 1,93,-1
 85 550 l 2,94,95
 93 581 93 581 111 603 c 0,96,97
 119 614 119 614 149 642 c 0,98,99
 186 679 186 679 209 691 c 0,100,101
 243 706 243 706 283 711 c 0,102,103
 288 712 288 712 296 712 c 0,0,1
229 321 m 0,104,105
 215 323 215 323 197 319 c 2,106,-1
 190 318 l 1,107,-1
 188 311 l 2,108,109
 181 291 181 291 177.5 244 c 128,-1,110
 174 197 174 197 176 165 c 0,111,112
 179 122 179 122 189 91 c 0,113,114
 191 86 191 86 197 84 c 0,115,116
 212 80 212 80 233 80 c 0,117,118
 261 80 261 80 281 90 c 2,119,-1
 287 92 l 1,120,-1
 294 107 l 1,121,-1
 302 121 l 1,122,-1
 302 196 l 1,123,-1
 302 271 l 1,124,-1
 298 280 l 2,125,126
 289 297 289 297 278 304 c 0,127,128
 251 318 251 318 229 321 c 0,104,105
EndSplineSet
Validated: 33
EndChar

StartChar: A
Encoding: 65 65 68
Width: 654
GlyphClass: 2
Flags: W
LayerCount: 2
Fore
SplineSet
270 677 m 1,0,-1
 295 702 l 1,1,-1
 312 685 l 1,2,-1
 329 669 l 1,3,-1
 346 686 l 1,4,-1
 363 702 l 1,5,-1
 386 679 l 1,6,-1
 409 656 l 1,7,-1
 489 349 l 1,8,-1
 568 42 l 1,9,-1
 544 17 l 1,10,-1
 519 -7 l 1,11,-1
 496 16 l 1,12,-1
 473 39 l 1,13,-1
 453 116 l 2,14,15
 449 132 449 132 443 153.5 c 128,-1,16
 437 175 437 175 434.5 185 c 128,-1,17
 432 195 432 195 432 196 c 2,18,-1
 431 200 l 1,19,-1
 327 200 l 1,20,-1
 222 200 l 1,21,-1
 202 121 l 1,22,-1
 182 42 l 1,23,-1
 157 17 l 1,24,-1
 132 -7 l 1,25,-1
 109 16 l 1,26,-1
 86 39 l 1,27,-1
 166 346 l 1,28,-1
 245 653 l 1,29,-1
 270 677 l 1,0,-1
367 447 m 0,30,31
 329 597 329 597 327 599 c 0,32,33
 327 600 327 600 322.5 583.5 c 128,-1,34
 318 567 318 567 308.5 530.5 c 128,-1,35
 299 494 299 494 287 448 c 2,36,-1
 247 296 l 1,37,-1
 326 295 l 1,38,-1
 406 295 l 1,39,40
 406 300 406 300 367 447 c 0,30,31
EndSplineSet
Validated: 1
EndChar

StartChar: B
Encoding: 66 66 69
Width: 654
GlyphClass: 2
Flags: W
LayerCount: 2
Fore
SplineSet
105 672 m 1,0,-1
 129 696 l 1,1,-1
 236 696 l 2,2,3
 342 696 342 696 353 694 c 0,4,5
 389 688 389 688 415 667 c 0,6,7
 424 660 424 660 453.5 630.5 c 128,-1,8
 483 601 483 601 490 592 c 0,9,10
 495 586 495 586 501 573 c 0,11,12
 520 536 520 536 516.5 495.5 c 128,-1,13
 513 455 513 455 488 423 c 0,14,15
 486 419 486 419 469 402 c 2,16,-1
 455 387 l 1,17,18
 477 372 477 372 507 341 c 0,19,20
 540 308 540 308 546 299 c 0,21,22
 564 276 564 276 572 240 c 0,23,24
 573 233 573 233 573 211 c 128,-1,25
 573 189 573 189 571 179 c 0,26,27
 563 147 563 147 546 124 c 0,28,29
 541 117 541 117 506 80 c 0,30,31
 468 44 468 44 460 38 c 0,32,33
 425 15 425 15 364 6 c 0,34,35
 353 5 353 5 238 4 c 2,36,-1
 127 4 l 1,37,-1
 104 27 l 1,38,-1
 81 49 l 1,39,-1
 81 348 l 1,40,-1
 81 647 l 1,41,-1
 105 672 l 1,0,-1
354 598 m 0,42,43
 344 600 344 600 260 601 c 2,44,-1
 176 601 l 1,45,-1
 176 507 l 1,46,-1
 176 412 l 1,47,-1
 261 412 l 2,48,49
 347 413 347 413 357 415 c 0,50,51
 376 419 376 419 392 427 c 2,52,-1
 402 432 l 1,53,-1
 407 441 l 2,54,55
 421 470 421 470 421 506 c 0,56,57
 421 539 421 539 406 569 c 2,58,-1
 401 580 l 1,59,-1
 390 585 l 2,60,61
 374 594 374 594 354 598 c 0,42,43
354 316 m 0,62,63
 345 317 345 317 257 317 c 2,64,-1
 176 317 l 1,65,-1
 176 208 l 1,66,-1
 176 99 l 1,67,-1
 261 99 l 2,68,69
 353 100 353 100 362 101 c 0,70,71
 413 107 413 107 446 124 c 2,72,-1
 457 129 l 1,73,-1
 461 136 l 2,74,75
 499 206 499 206 462 278 c 0,76,77
 455 289 455 289 450 292 c 0,78,79
 415 312 415 312 354 316 c 0,62,63
EndSplineSet
Validated: 33
EndChar

StartChar: C
Encoding: 67 67 70
Width: 654
GlyphClass: 2
Flags: W
LayerCount: 2
Fore
SplineSet
339 710 m 0,0,1
 365 712 365 712 384 709 c 0,2,3
 418 704 418 704 442 686 c 0,4,5
 451 679 451 679 479.5 650 c 128,-1,6
 508 621 508 621 512 614 c 0,7,8
 521 600 521 600 527 583 c 2,9,-1
 529 576 l 1,10,-1
 504 552 l 1,11,-1
 479 527 l 1,12,-1
 456 550 l 2,13,14
 433 574 433 574 432 579 c 0,15,16
 429 588 429 588 427 592 c 0,17,18
 424 600 424 600 419 602 c 0,19,20
 368 629 368 629 305 607 c 0,21,22
 283 599 283 599 278 594 c 0,23,24
 268 584 268 584 254 548 c 0,25,26
 232 493 232 493 226 412 c 128,-1,27
 220 331 220 331 232 250 c 0,28,29
 242 168 242 168 271 117 c 2,30,-1
 277 106 l 1,31,-1
 289 100 l 2,32,33
 351 69 351 69 417 94 c 2,34,-1
 425 97 l 1,35,-1
 428 106 l 2,36,37
 432 116 432 116 432 119 c 0,38,39
 433 124 433 124 458 148 c 2,40,-1
 483 173 l 1,41,-1
 506 150 l 1,42,-1
 529 127 l 1,43,-1
 526 118 l 2,44,45
 521 102 521 102 512 88 c 0,46,47
 508 81 508 81 478 50.5 c 128,-1,48
 448 20 448 20 439 13 c 0,49,50
 417 -2 417 -2 391 -8 c 0,51,52
 382 -10 382 -10 358 -10 c 128,-1,53
 334 -10 334 -10 324 -8 c 0,54,55
 294 -3 294 -3 270 14 c 0,56,57
 262 19 262 19 229 50 c 0,58,59
 196 83 196 83 194 87 c 0,60,61
 163 126 163 126 147 191 c 0,62,63
 137 226 137 226 131 288 c 0,64,65
 130 309 130 309 130 353 c 128,-1,66
 130 397 130 397 131 417 c 0,67,68
 143 536 143 536 188 599 c 0,69,70
 193 606 193 606 224.5 638.5 c 128,-1,71
 256 671 256 671 265 678 c 0,72,73
 274 686 274 686 292 696 c 0,74,75
 313 707 313 707 339 710 c 0,0,1
EndSplineSet
Validated: 33
EndChar

StartChar: D
Encoding: 68 68 71
Width: 654
GlyphClass: 2
Flags: W
LayerCount: 2
Fore
SplineSet
150 672 m 1,0,-1
 174 696 l 1,1,-1
 195 696 l 2,2,3
 223 696 223 696 255 691 c 0,4,5
 338 676 338 676 403 620 c 0,6,7
 462 565 462 565 487 535 c 0,8,9
 534 473 534 473 548 402 c 0,10,11
 553 379 553 379 553 343 c 0,12,13
 553 299 553 299 545 267 c 128,-1,14
 537 235 537 235 522 205 c 0,15,16
 508 177 508 177 487 149 c 0,17,18
 479 139 479 139 440 100 c 128,-1,19
 401 61 401 61 390 52 c 0,20,21
 342 14 342 14 292 0 c 0,22,23
 256 -12 256 -12 204 -13 c 2,24,-1
 172 -13 l 1,25,-1
 149 10 l 1,26,-1
 126 32 l 1,27,-1
 126 340 l 1,28,-1
 126 647 l 1,29,-1
 150 672 l 1,0,-1
239 597 m 0,30,31
 227 599 227 599 224 599 c 2,32,-1
 221 600 l 1,33,-1
 221 341 l 1,34,-1
 221 82 l 1,35,-1
 232 83 l 2,36,37
 310 89 310 89 380 137 c 0,38,39
 390 145 390 145 398 154 c 0,40,41
 432 202 432 202 449 261 c 0,42,43
 485 405 485 405 398 521 c 0,44,45
 390 534 390 534 367 549 c 0,46,47
 306 588 306 588 239 597 c 0,30,31
EndSplineSet
Validated: 33
EndChar

StartChar: E
Encoding: 69 69 72
Width: 654
GlyphClass: 2
Flags: W
LayerCount: 2
Fore
SplineSet
150 672 m 1,0,-1
 174 696 l 1,1,-1
 346 696 l 1,2,-1
 517 696 l 1,3,-1
 540 673 l 1,4,-1
 563 651 l 1,5,-1
 538 626 l 1,6,-1
 514 601 l 1,7,-1
 367 601 l 1,8,-1
 221 601 l 1,9,-1
 221 507 l 1,10,-1
 221 412 l 1,11,-1
 345 412 l 1,12,-1
 469 412 l 1,13,-1
 492 389 l 1,14,-1
 514 366 l 1,15,-1
 490 341 l 1,16,-1
 466 317 l 1,17,-1
 343 317 l 1,18,-1
 221 317 l 1,19,-1
 221 208 l 1,20,-1
 221 99 l 1,21,-1
 369 99 l 1,22,-1
 517 99 l 1,23,-1
 540 76 l 1,24,-1
 563 54 l 1,25,-1
 538 29 l 1,26,-1
 514 4 l 1,27,-1
 343 4 l 1,28,-1
 172 4 l 1,29,-1
 149 27 l 1,30,-1
 126 49 l 1,31,-1
 126 348 l 1,32,-1
 126 647 l 1,33,-1
 150 672 l 1,0,-1
EndSplineSet
Validated: 1
EndChar

StartChar: F
Encoding: 70 70 73
Width: 654
GlyphClass: 2
Flags: W
LayerCount: 2
Fore
SplineSet
201 672 m 1,0,-1
 225 696 l 1,1,-1
 363 696 l 1,2,-1
 500 696 l 1,3,-1
 523 673 l 1,4,-1
 545 650 l 1,5,-1
 521 625 l 1,6,-1
 497 601 l 1,7,-1
 384 601 l 1,8,-1
 272 601 l 1,9,-1
 272 507 l 1,10,-1
 272 412 l 1,11,-1
 363 412 l 1,12,-1
 454 412 l 1,13,-1
 477 389 l 1,14,-1
 500 367 l 1,15,-1
 475 342 l 1,16,-1
 451 317 l 1,17,-1
 361 317 l 1,18,-1
 272 317 l 1,19,-1
 272 179 l 1,20,-1
 272 42 l 1,21,-1
 247 17 l 1,22,-1
 223 -8 l 1,23,-1
 200 15 l 1,24,-1
 177 37 l 1,25,-1
 177 342 l 1,26,-1
 177 647 l 1,27,-1
 201 672 l 1,0,-1
EndSplineSet
Validated: 1
EndChar

StartChar: G
Encoding: 71 71 74
Width: 654
GlyphClass: 2
Flags: W
LayerCount: 2
Fore
SplineSet
328 710 m 0,0,1
 337 711 337 711 356.5 710.5 c 128,-1,2
 376 710 376 710 385 709 c 0,3,4
 418 702 418 702 442 688 c 0,5,6
 463 677 463 677 502 638 c 0,7,8
 545 595 545 595 557 576 c 2,9,-1
 563 566 l 1,10,-1
 538 541 l 1,11,-1
 513 516 l 1,12,-1
 490 538 l 2,13,14
 468 560 468 560 466 565 c 0,15,16
 463 570 463 570 459 576 c 0,17,18
 454 583 454 583 447 588 c 0,19,20
 410 610 410 610 363 615 c 0,21,22
 306 620 306 620 255 588 c 0,23,24
 247 583 247 583 240 572 c 0,25,26
 214 533 214 533 197 473 c 0,27,28
 164 343 164 343 195 226 c 0,29,30
 208 180 208 180 233 142 c 0,31,32
 242 129 242 129 253 122 c 0,33,34
 295 94 295 94 348 86 c 0,35,36
 378 82 378 82 409 86 c 0,37,38
 430 89 430 89 452 95 c 2,39,-1
 462 98 l 1,40,-1
 462 189 l 1,41,-1
 462 280 l 1,42,-1
 404 280 l 1,43,-1
 345 280 l 1,44,-1
 322 303 l 1,45,-1
 300 326 l 1,46,-1
 324 351 l 1,47,-1
 348 375 l 1,48,-1
 430 375 l 1,49,-1
 511 375 l 1,50,-1
 534 352 l 1,51,-1
 557 330 l 1,52,-1
 557 202 l 1,53,-1
 557 75 l 1,54,-1
 531 50 l 1,55,-1
 506 24 l 1,56,-1
 491 17 l 2,57,58
 455 -1 455 -1 418 -8 c 0,59,60
 385 -14 385 -14 353 -10 c 0,61,62
 283 -2 283 -2 229 42 c 0,63,64
 219 50 219 50 187 82 c 0,65,66
 155 115 155 115 146 127 c 0,67,68
 100 189 100 189 88 285 c 0,69,70
 83 332 83 332 87 376 c 0,71,72
 96 504 96 504 155 584 c 0,73,74
 164 596 164 596 200 632 c 128,-1,75
 236 668 236 668 247 675 c 0,76,77
 283 702 283 702 328 710 c 0,0,1
EndSplineSet
Validated: 33
EndChar

StartChar: H
Encoding: 72 72 75
Width: 654
GlyphClass: 2
Flags: W
LayerCount: 2
Fore
SplineSet
134 683 m 1,0,-1
 158 708 l 1,1,-1
 181 685 l 1,2,-1
 204 663 l 1,3,-1
 204 534 l 1,4,-1
 204 406 l 1,5,-1
 327 406 l 1,6,-1
 450 406 l 1,7,-1
 450 532 l 1,8,-1
 450 658 l 1,9,-1
 475 683 l 1,10,-1
 499 708 l 1,11,-1
 522 685 l 1,12,-1
 545 663 l 1,13,-1
 545 352 l 1,14,-1
 545 42 l 1,15,-1
 520 17 l 1,16,-1
 496 -8 l 1,17,-1
 473 15 l 1,18,-1
 450 37 l 1,19,-1
 450 174 l 1,20,-1
 450 311 l 1,21,-1
 327 311 l 1,22,-1
 204 311 l 1,23,-1
 204 176 l 1,24,-1
 204 42 l 1,25,-1
 179 17 l 1,26,-1
 155 -8 l 1,27,-1
 132 15 l 1,28,-1
 109 37 l 1,29,-1
 109 348 l 1,30,-1
 109 658 l 1,31,-1
 134 683 l 1,0,-1
EndSplineSet
Validated: 1
EndChar

StartChar: I
Encoding: 73 73 76
Width: 654
GlyphClass: 2
Flags: W
LayerCount: 2
Fore
SplineSet
182 671 m 1,0,-1
 206 696 l 1,1,-1
 329 696 l 1,2,-1
 452 696 l 1,3,-1
 475 673 l 1,4,-1
 497 650 l 1,5,-1
 473 625 l 1,6,-1
 449 601 l 1,7,-1
 412 601 l 1,8,-1
 375 601 l 1,9,-1
 375 350 l 1,10,-1
 375 99 l 1,11,-1
 423 99 l 1,12,-1
 471 99 l 1,13,-1
 494 76 l 1,14,-1
 517 54 l 1,15,-1
 492 29 l 1,16,-1
 468 4 l 1,17,-1
 325 4 l 1,18,-1
 183 4 l 1,19,-1
 160 27 l 1,20,-1
 137 49 l 1,21,-1
 162 74 l 1,22,-1
 186 99 l 1,23,-1
 233 99 l 1,24,-1
 280 99 l 1,25,-1
 280 350 l 1,26,-1
 280 601 l 1,27,-1
 241 601 l 1,28,-1
 203 601 l 1,29,-1
 180 624 l 1,30,-1
 157 646 l 1,31,-1
 182 671 l 1,0,-1
EndSplineSet
Validated: 1
EndChar

StartChar: J
Encoding: 74 74 77
Width: 654
GlyphClass: 2
Flags: W
LayerCount: 2
Fore
SplineSet
382 683 m 1,0,-1
 406 708 l 1,1,-1
 429 685 l 1,2,-1
 452 663 l 1,3,-1
 452 406 l 2,4,5
 452 200 452 200 451.5 169.5 c 128,-1,6
 451 139 451 139 446 124 c 0,7,8
 440 105 440 105 431 93 c 0,9,10
 426 85 426 85 391.5 50.5 c 128,-1,11
 357 16 357 16 349 11 c 0,12,13
 317 -11 317 -11 279 -12 c 0,14,15
 236 -13 236 -13 202 10 c 0,16,17
 193 15 193 15 159 49 c 0,18,19
 127 80 127 80 121 90 c 0,20,21
 107 111 107 111 101 136 c 0,22,23
 95 159 95 159 99 181 c 2,24,-1
 100 189 l 1,25,-1
 125 213 l 1,26,-1
 150 238 l 1,27,-1
 173 216 l 1,28,-1
 196 193 l 1,29,-1
 195 188 l 2,30,31
 194 186 194 186 194 168 c 128,-1,32
 194 150 194 150 196 142 c 0,33,34
 199 124 199 124 208 108 c 0,35,36
 211 102 211 102 219 97 c 0,37,38
 244 84 244 84 278 84 c 0,39,40
 310 84 310 84 336 97 c 0,41,42
 343 100 343 100 346 107 c 0,43,44
 350 119 350 119 355 134 c 0,45,46
 356 140 356 140 357 400 c 2,47,-1
 357 659 l 1,48,-1
 382 683 l 1,0,-1
EndSplineSet
Validated: 33
EndChar

StartChar: K
Encoding: 75 75 78
Width: 654
GlyphClass: 2
Flags: W
LayerCount: 2
Fore
SplineSet
120 683 m 1,0,-1
 144 708 l 1,1,-1
 167 685 l 1,2,-1
 190 663 l 1,3,-1
 190 525 l 1,4,-1
 191 388 l 1,5,-1
 332 532 l 2,6,7
 475 679 475 679 490 692 c 2,8,-1
 506 708 l 1,9,-1
 528 685 l 1,10,-1
 551 662 l 1,11,-1
 538 649 l 2,12,13
 262 369 262 369 262 366 c 0,14,15
 262 364 262 364 418 203 c 2,16,-1
 574 42 l 1,17,-1
 549 17 l 1,18,-1
 525 -8 l 1,19,-1
 506 11 l 2,20,21
 497 19 497 19 339 183 c 2,22,-1
 191 337 l 1,23,-1
 190 189 l 1,24,-1
 190 42 l 1,25,-1
 165 17 l 1,26,-1
 141 -8 l 1,27,-1
 118 15 l 1,28,-1
 95 37 l 1,29,-1
 95 348 l 1,30,-1
 95 658 l 1,31,-1
 120 683 l 1,0,-1
EndSplineSet
Validated: 1
EndChar

StartChar: L
Encoding: 76 76 79
Width: 654
GlyphClass: 2
Flags: W
LayerCount: 2
Fore
SplineSet
134 683 m 1,0,-1
 158 708 l 1,1,-1
 181 685 l 1,2,-1
 204 663 l 1,3,-1
 204 381 l 1,4,-1
 204 99 l 1,5,-1
 366 99 l 1,6,-1
 528 99 l 1,7,-1
 551 76 l 1,8,-1
 574 54 l 1,9,-1
 549 29 l 1,10,-1
 525 4 l 1,11,-1
 340 4 l 1,12,-1
 155 4 l 1,13,-1
 132 27 l 1,14,-1
 109 49 l 1,15,-1
 109 354 l 1,16,-1
 109 658 l 1,17,-1
 134 683 l 1,0,-1
EndSplineSet
Validated: 1
EndChar

StartChar: M
Encoding: 77 77 80
Width: 654
GlyphClass: 2
Flags: W
LayerCount: 2
Fore
SplineSet
106 683 m 1,0,-1
 130 708 l 1,1,-1
 148 690 l 1,2,-1
 166 673 l 1,3,-1
 184 690 l 1,4,-1
 201 708 l 1,5,-1
 224 684 l 1,6,-1
 248 661 l 1,7,-1
 287 525 l 2,8,9
 297 491 297 491 307 458 c 128,-1,10
 317 425 317 425 322.5 407.5 c 128,-1,11
 328 390 328 390 328 391 c 0,12,13
 346 451 346 451 368 525 c 2,14,-1
 407 658 l 1,15,-1
 432 683 l 1,16,-1
 457 707 l 1,17,-1
 475 690 l 1,18,-1
 493 672 l 1,19,-1
 511 690 l 1,20,-1
 528 708 l 1,21,-1
 551 685 l 1,22,-1
 574 663 l 1,23,-1
 574 352 l 1,24,-1
 574 41 l 1,25,-1
 549 17 l 1,26,-1
 524 -8 l 1,27,-1
 502 15 l 1,28,-1
 479 38 l 1,29,-1
 479 308 l 1,30,-1
 479 579 l 1,31,-1
 427 404 l 1,32,-1
 375 230 l 1,33,-1
 350 205 l 1,34,-1
 326 180 l 1,35,-1
 302 203 l 1,36,-1
 279 226 l 1,37,-1
 228 400 l 1,38,-1
 177 574 l 1,39,-1
 176 308 l 1,40,-1
 176 42 l 1,41,-1
 151 17 l 1,42,-1
 127 -8 l 1,43,-1
 104 15 l 1,44,-1
 81 37 l 1,45,-1
 81 348 l 1,46,-1
 81 658 l 1,47,-1
 106 683 l 1,0,-1
EndSplineSet
Validated: 1
EndChar

StartChar: N
Encoding: 78 78 81
Width: 654
GlyphClass: 2
Flags: W
LayerCount: 2
Fore
SplineSet
120 683 m 1,0,-1
 144 708 l 1,1,-1
 162 690 l 1,2,-1
 180 673 l 1,3,-1
 198 690 l 1,4,-1
 216 708 l 1,5,-1
 238 685 l 1,6,-1
 261 663 l 1,7,-1
 363 385 l 1,8,-1
 465 108 l 1,9,-1
 465 383 l 1,10,-1
 465 658 l 1,11,-1
 490 683 l 1,12,-1
 514 708 l 1,13,-1
 537 685 l 1,14,-1
 560 663 l 1,15,-1
 560 352 l 1,16,-1
 560 42 l 1,17,-1
 535 17 l 1,18,-1
 511 -8 l 1,19,-1
 493 10 l 1,20,-1
 475 27 l 1,21,-1
 457 10 l 1,22,-1
 440 -8 l 1,23,-1
 416 15 l 1,24,-1
 393 38 l 1,25,-1
 292 314 l 1,26,-1
 191 591 l 1,27,-1
 190 316 l 1,28,-1
 190 42 l 1,29,-1
 165 17 l 1,30,-1
 141 -8 l 1,31,-1
 118 15 l 1,32,-1
 95 37 l 1,33,-1
 95 348 l 1,34,-1
 95 658 l 1,35,-1
 120 683 l 1,0,-1
EndSplineSet
Validated: 1
EndChar

StartChar: O
Encoding: 79 79 82
Width: 654
GlyphClass: 2
Flags: W
LayerCount: 2
Fore
SplineSet
305 715 m 0,0,1
 332 717 332 717 353 714 c 0,2,3
 388 710 388 710 421 686 c 0,4,5
 429 680 429 680 460.5 649.5 c 128,-1,6
 492 619 492 619 499 609 c 0,7,8
 571 520 571 520 571 354 c 0,9,10
 571 196 571 196 505 106 c 0,11,12
 501 100 501 100 461 59 c 0,13,14
 418 17 418 17 398 6 c 0,15,16
 364 -11 364 -11 325 -11 c 0,17,18
 274 -11 274 -11 233 19 c 0,19,20
 224 25 224 25 193 56 c 128,-1,21
 162 87 162 87 155 97 c 0,22,23
 83 185 83 185 83 351 c 0,24,25
 83 509 83 509 149 599 c 0,26,27
 158 610 158 610 193.5 645.5 c 128,-1,28
 229 681 229 681 238 687 c 0,29,30
 267 709 267 709 305 715 c 0,0,1
341 620 m 0,31,32
 287 625 287 625 244 598 c 0,33,34
 237 594 237 594 222 565 c 0,35,36
 189 500 189 500 180 401 c 0,37,38
 178 385 178 385 178 352.5 c 128,-1,39
 178 320 178 320 180 303 c 0,40,41
 189 212 189 212 220 148 c 0,42,43
 237 114 237 114 247 107 c 0,44,45
 290 80 290 80 342 85 c 0,46,47
 380 88 380 88 410 107 c 0,48,49
 417 111 417 111 432 140 c 0,50,51
 465 205 465 205 474 305 c 0,52,53
 476 320 476 320 476 353 c 128,-1,54
 476 386 476 386 474 402 c 0,55,56
 465 493 465 493 434 558 c 0,57,58
 417 591 417 591 407 598 c 0,59,60
 377 617 377 617 341 620 c 0,31,32
EndSplineSet
Validated: 33
EndChar

StartChar: P
Encoding: 80 80 83
Width: 654
GlyphClass: 2
Flags: W
LayerCount: 2
Fore
SplineSet
133 672 m 1,0,-1
 158 696 l 1,1,-1
 267 696 l 2,2,3
 380 695 380 695 388 694 c 0,4,5
 426 688 426 688 449 676 c 0,6,7
 469 666 469 666 509 627 c 0,8,9
 543 591 543 591 548 583 c 0,10,11
 565 559 565 559 571 527 c 0,12,13
 573 516 573 516 573.5 494.5 c 128,-1,14
 574 473 574 473 572 462 c 0,15,16
 566 426 566 426 546 400 c 0,17,18
 544 398 544 398 538.5 392 c 128,-1,19
 533 386 533 386 523.5 376 c 128,-1,20
 514 366 514 366 507 359 c 0,21,22
 472 325 472 325 465 321 c 0,23,24
 432 299 432 299 375 290 c 0,25,26
 367 289 367 289 283 288 c 2,27,-1
 204 288 l 1,28,-1
 204 165 l 1,29,-1
 204 42 l 1,30,-1
 179 17 l 1,31,-1
 155 -8 l 1,32,-1
 132 15 l 1,33,-1
 109 37 l 1,34,-1
 109 342 l 1,35,-1
 109 647 l 1,36,-1
 133 672 l 1,0,-1
360 600 m 0,37,38
 350 601 350 601 273 601 c 2,39,-1
 204 601 l 1,40,-1
 204 492 l 1,41,-1
 204 383 l 1,42,-1
 271 383 l 2,43,44
 346 383 346 383 355 384 c 0,45,46
 415 389 415 389 451 407 c 0,47,48
 460 412 460 412 463 416 c 0,49,50
 486 461 486 461 476 519 c 0,51,52
 473 548 473 548 459 570 c 0,53,54
 454 578 454 578 433 586 c 0,55,56
 405 597 405 597 360 600 c 0,37,38
EndSplineSet
Validated: 33
EndChar

StartChar: Q
Encoding: 81 81 84
Width: 654
GlyphClass: 2
Flags: W
LayerCount: 2
Fore
SplineSet
305 715 m 0,0,1
 332 717 332 717 353 714 c 0,2,3
 388 710 388 710 421 686 c 0,4,5
 429 680 429 680 460.5 649.5 c 128,-1,6
 492 619 492 619 499 609 c 0,7,8
 571 520 571 520 571 354 c 0,9,10
 571 218 571 218 521 131 c 2,11,-1
 514 119 l 1,12,-1
 544 80 l 1,13,-1
 574 42 l 1,14,-1
 549 17 l 1,15,-1
 525 -8 l 1,16,-1
 502 14 l 2,17,18
 473 45 473 45 471 48 c 2,19,-1
 462 60 l 1,20,-1
 443 42 l 2,21,22
 419 18 419 18 398 6 c 0,23,24
 364 -11 364 -11 325 -11 c 0,25,26
 274 -11 274 -11 233 19 c 0,27,28
 224 25 224 25 193 56 c 128,-1,29
 162 87 162 87 155 97 c 0,30,31
 83 185 83 185 83 351 c 0,32,33
 83 509 83 509 149 599 c 0,34,35
 158 610 158 610 193.5 645.5 c 128,-1,36
 229 681 229 681 238 687 c 0,37,38
 267 709 267 709 305 715 c 0,0,1
341 620 m 0,39,40
 287 625 287 625 244 598 c 0,41,42
 237 594 237 594 222 565 c 0,43,44
 189 500 189 500 180 401 c 0,45,46
 178 385 178 385 178 352.5 c 128,-1,47
 178 320 178 320 180 303 c 0,48,49
 189 212 189 212 220 148 c 0,50,51
 237 114 237 114 247 107 c 0,52,53
 290 80 290 80 342 85 c 0,54,55
 367 87 367 87 383 94 c 0,56,57
 395 98 395 98 406.5 105 c 128,-1,58
 418 112 418 112 418 115 c 0,59,60
 418 117 418 117 344 211 c 2,61,-1
 271 305 l 1,62,-1
 296 330 l 1,63,-1
 320 355 l 1,64,-1
 343 332 l 2,65,66
 363 313 363 313 410 253 c 2,67,-1
 454 196 l 1,68,-1
 457 204 l 1,69,70
 478 274 478 274 476 366 c 0,71,72
 472 478 472 478 434 558 c 0,73,74
 417 591 417 591 407 598 c 0,75,76
 377 617 377 617 341 620 c 0,39,40
EndSplineSet
Validated: 33
EndChar

StartChar: R
Encoding: 82 82 85
Width: 654
GlyphClass: 2
Flags: W
LayerCount: 2
Fore
SplineSet
144 672 m 1,0,-1
 168 696 l 1,1,-1
 241 696 l 2,2,3
 325 696 325 696 346 690 c 0,4,5
 384 680 384 680 413 655 c 0,6,7
 426 645 426 645 451 618 c 0,8,9
 488 581 488 581 500 558 c 0,10,11
 516 525 516 525 517 491 c 0,12,13
 518 437 518 437 487 394 c 0,14,15
 481 386 481 386 447.5 352.5 c 128,-1,16
 414 319 414 319 406 314 c 0,17,18
 398 307 398 307 399 306 c 0,19,20
 402 299 402 299 476 173 c 2,21,-1
 551 42 l 1,22,-1
 526 17 l 1,23,-1
 502 -8 l 1,24,-1
 478 15 l 1,25,-1
 455 39 l 1,26,-1
 384 163 l 1,27,-1
 312 288 l 1,28,-1
 263 288 l 1,29,-1
 215 288 l 1,30,-1
 215 165 l 1,31,-1
 215 42 l 1,32,-1
 190 17 l 1,33,-1
 166 -8 l 1,34,-1
 143 15 l 1,35,-1
 120 37 l 1,36,-1
 120 342 l 1,37,-1
 120 647 l 1,38,-1
 144 672 l 1,0,-1
313 600 m 0,39,40
 307 601 307 601 259 601 c 2,41,-1
 215 601 l 1,42,-1
 215 492 l 1,43,-1
 215 383 l 1,44,-1
 281 383 l 2,45,46
 347 384 347 384 357 386 c 0,47,48
 378 391 378 391 391 398 c 2,49,-1
 400 402 l 1,50,-1
 405 412 l 2,51,52
 443 486 443 486 401 561 c 0,53,54
 396 569 396 569 392 572.5 c 128,-1,55
 388 576 388 576 375 583 c 0,56,57
 345 597 345 597 313 600 c 0,39,40
EndSplineSet
Validated: 33
EndChar

StartChar: S
Encoding: 83 83 86
Width: 654
GlyphClass: 2
Flags: W
LayerCount: 2
Fore
SplineSet
300 708 m 0,0,1
 325 712 325 712 353 708 c 0,2,3
 387 704 387 704 416 689 c 0,4,5
 440 677 440 677 479 636 c 0,6,7
 510 607 510 607 516 595 c 0,8,9
 531 576 531 576 531 566 c 0,10,11
 531 564 531 564 507 540 c 2,12,-1
 482 516 l 1,13,-1
 459 538 l 2,14,15
 436 563 436 563 434 566 c 0,16,17
 428 582 428 582 423 588 c 0,18,19
 410 598 410 598 375 608 c 0,20,21
 305 627 305 627 251 598 c 1,22,-1
 242 594 l 1,23,-1
 237 584 l 2,24,25
 205 517 205 517 240 454 c 0,26,27
 244 447 244 447 251 443 c 0,28,29
 275 429 275 429 317 412 c 0,30,31
 337 405 337 405 358 396 c 0,32,33
 397 382 397 382 425 364 c 0,34,35
 446 349 446 349 479 315 c 0,36,37
 511 283 511 283 516 275 c 0,38,39
 531 253 531 253 537 223 c 0,40,41
 539 212 539 212 539.5 192 c 128,-1,42
 540 172 540 172 538 163 c 0,43,44
 532 135 532 135 514 110 c 0,45,46
 510 103 510 103 481 73.5 c 128,-1,47
 452 44 452 44 440 33 c 0,48,49
 393 -8 393 -8 328 -14 c 0,50,51
 300 -18 300 -18 274 -12 c 0,52,53
 241 -7 241 -7 216 9 c 0,54,55
 198 21 198 21 165 55 c 0,56,57
 138 82 138 82 130 92 c 0,58,59
 115 116 115 116 115 122 c 0,60,61
 115 124 115 124 139 148 c 2,62,-1
 164 172 l 1,63,-1
 187 150 l 2,64,65
 210 127 210 127 213 118 c 0,66,67
 216 111 216 111 218 107.5 c 128,-1,68
 220 104 220 104 222 103 c 128,-1,69
 224 102 224 102 231 98 c 0,70,71
 274 76 274 76 325 81 c 0,72,73
 373 84 373 84 414 108 c 0,74,75
 424 114 424 114 428 120 c 0,76,77
 455 168 455 168 439 229 c 0,78,79
 435 245 435 245 428 258 c 0,80,81
 424 266 424 266 417 271 c 0,82,83
 391 287 391 287 335 309 c 0,84,85
 268 334 268 334 243 351 c 0,86,87
 223 364 223 364 187 400 c 0,88,89
 156 433 156 433 151 441 c 0,90,91
 134 465 134 465 129 491 c 0,92,93
 128 500 128 500 128 518 c 128,-1,94
 128 536 128 536 129 545 c 0,95,96
 137 576 137 576 152 599 c 0,97,98
 162 611 162 611 190 639 c 0,99,100
 217 668 217 668 230 678 c 0,101,102
 260 703 260 703 300 708 c 0,0,1
EndSplineSet
Validated: 33
EndChar

StartChar: T
Encoding: 84 84 87
Width: 654
GlyphClass: 2
Flags: W
LayerCount: 2
Fore
SplineSet
105 672 m 1,0,-1
 129 696 l 1,1,-1
 329 696 l 1,2,-1
 528 696 l 1,3,-1
 551 673 l 1,4,-1
 574 651 l 1,5,-1
 549 626 l 1,6,-1
 525 601 l 1,7,-1
 450 601 l 1,8,-1
 375 601 l 1,9,-1
 375 321 l 1,10,-1
 375 42 l 1,11,-1
 350 17 l 1,12,-1
 326 -8 l 1,13,-1
 303 15 l 1,14,-1
 280 37 l 1,15,-1
 280 319 l 1,16,-1
 280 601 l 1,17,-1
 203 601 l 1,18,-1
 126 601 l 1,19,-1
 103 624 l 1,20,-1
 81 647 l 1,21,-1
 105 672 l 1,0,-1
EndSplineSet
Validated: 1
EndChar

StartChar: U
Encoding: 85 85 88
Width: 654
GlyphClass: 2
Flags: W
LayerCount: 2
Fore
SplineSet
120 683 m 1,0,-1
 144 708 l 1,1,-1
 167 685 l 1,2,-1
 190 663 l 1,3,-1
 190 443 l 2,4,5
 190 218 190 218 191 211 c 0,6,7
 194 171 194 171 210 139 c 0,8,9
 221 116 221 116 227 111 c 0,10,11
 243 99 243 99 263 94 c 0,12,13
 295 83 295 83 335 84 c 128,-1,14
 375 85 375 85 405 97 c 0,15,16
 427 106 427 106 433 112 c 0,17,18
 440 119 440 119 454 156 c 0,19,20
 462 182 462 182 464 207 c 0,21,22
 465 214 465 214 465 439 c 2,23,-1
 465 659 l 1,24,-1
 490 683 l 1,25,-1
 515 708 l 1,26,-1
 537 685 l 1,27,-1
 560 662 l 1,28,-1
 560 433 l 1,29,-1
 559 204 l 1,30,-1
 557 191 l 2,31,32
 549 143 549 143 521 105 c 0,33,34
 514 96 514 96 479 61 c 128,-1,35
 444 26 444 26 436 20 c 0,36,37
 403 -2 403 -2 362 -9 c 0,38,39
 352 -10 352 -10 326 -10 c 128,-1,40
 300 -10 300 -10 290 -9 c 0,41,42
 242 -1 242 -1 208 27 c 0,43,44
 199 34 199 34 169 64 c 128,-1,45
 139 94 139 94 134 102 c 0,46,47
 106 140 106 140 98 188 c 2,48,-1
 96 201 l 1,49,-1
 95 429 l 1,50,-1
 95 658 l 1,51,-1
 120 683 l 1,0,-1
EndSplineSet
Validated: 33
EndChar

StartChar: V
Encoding: 86 86 89
Width: 654
GlyphClass: 2
Flags: W
LayerCount: 2
Fore
SplineSet
105 683 m 1,0,-1
 129 708 l 1,1,-1
 153 685 l 1,2,-1
 176 662 l 1,3,-1
 252 366 l 2,4,5
 326 75 326 75 329 75 c 1,6,7
 329 77 329 77 404 368 c 2,8,-1
 478 658 l 1,9,-1
 503 683 l 1,10,-1
 528 708 l 1,11,-1
 551 685 l 1,12,-1
 574 662 l 1,13,-1
 495 352 l 1,14,-1
 415 42 l 1,15,-1
 390 17 l 1,16,-1
 366 -8 l 1,17,-1
 346 12 l 1,18,-1
 326 32 l 1,19,-1
 305 12 l 1,20,-1
 285 -8 l 1,21,-1
 263 15 l 1,22,-1
 240 38 l 1,23,-1
 160 348 l 1,24,-1
 80 659 l 1,25,-1
 105 683 l 1,0,-1
EndSplineSet
Validated: 1
EndChar

StartChar: W
Encoding: 87 87 90
Width: 654
GlyphClass: 2
Flags: W
LayerCount: 2
Fore
SplineSet
105 683 m 1,0,-1
 129 708 l 1,1,-1
 153 685 l 1,2,-1
 176 662 l 1,3,-1
 188 396 l 2,4,5
 191 339 191 339 194 265.5 c 128,-1,6
 197 192 197 192 199 157.5 c 128,-1,7
 201 123 201 123 201 121 c 2,8,-1
 202 111 l 1,9,-1
 236 246 l 1,10,-1
 270 382 l 1,11,-1
 295 407 l 1,12,-1
 320 432 l 1,13,-1
 329 432 l 1,14,-1
 338 432 l 1,15,-1
 361 409 l 1,16,-1
 384 386 l 1,17,-1
 419 249 l 1,18,-1
 454 118 l 1,19,-1
 454 119 l 2,20,21
 454 120 454 120 455.5 155.5 c 128,-1,22
 457 191 457 191 460 259 c 128,-1,23
 463 327 463 327 466 391 c 2,24,-1
 479 658 l 1,25,-1
 504 683 l 1,26,-1
 528 708 l 1,27,-1
 551 685 l 1,28,-1
 574 662 l 1,29,-1
 560 352 l 1,30,-1
 546 42 l 1,31,-1
 521 17 l 1,32,-1
 497 -8 l 1,33,-1
 478 10 l 1,34,-1
 460 29 l 1,35,-1
 441 10 l 1,36,-1
 422 -8 l 1,37,-1
 399 15 l 1,38,-1
 376 39 l 1,39,-1
 352 133 l 2,40,41
 346 156 346 156 340 180 c 128,-1,42
 334 204 334 204 330 216 c 2,43,-1
 327 229 l 1,44,45
 316 188 316 188 302 136 c 2,46,-1
 279 43 l 1,47,-1
 254 17 l 1,48,-1
 229 -8 l 1,49,-1
 210 10 l 1,50,-1
 192 29 l 1,51,-1
 173 10 l 1,52,-1
 154 -8 l 1,53,-1
 132 15 l 1,54,-1
 109 38 l 1,55,-1
 94 348 l 1,56,-1
 80 659 l 1,57,-1
 105 683 l 1,0,-1
EndSplineSet
Validated: 1
EndChar

StartChar: X
Encoding: 88 88 91
Width: 654
GlyphClass: 2
Flags: W
LayerCount: 2
Fore
SplineSet
131 683 m 1,0,-1
 155 708 l 1,1,-1
 178 685 l 1,2,-1
 201 663 l 1,3,-1
 264 549 l 1,4,-1
 328 435 l 2,5,6
 329 435 329 435 391 547 c 2,7,-1
 453 659 l 1,8,-1
 478 683 l 1,9,-1
 502 708 l 1,10,-1
 525 685 l 1,11,-1
 548 662 l 2,12,13
 548 661 548 661 464 511 c 0,14,15
 381 360 381 360 382 358 c 0,16,17
 382 355 382 355 469 199 c 2,18,-1
 554 42 l 1,19,-1
 529 17 l 1,20,-1
 505 -8 l 1,21,-1
 482 15 l 1,22,-1
 459 37 l 1,23,-1
 393 159 l 2,24,25
 384 176 384 176 372.5 197 c 128,-1,26
 361 218 361 218 353.5 231 c 128,-1,27
 346 244 346 244 339 256.5 c 128,-1,28
 332 269 332 269 329 274 c 2,29,-1
 326 280 l 1,30,-1
 260 161 l 1,31,-1
 196 42 l 1,32,-1
 171 17 l 1,33,-1
 146 -8 l 1,34,-1
 123 15 l 1,35,-1
 100 39 l 1,36,-1
 187 197 l 2,37,38
 273 356 273 356 273 357 c 0,39,40
 236 425 236 425 190 508 c 2,41,-1
 106 658 l 1,42,-1
 131 683 l 1,0,-1
EndSplineSet
Validated: 33
EndChar

StartChar: Y
Encoding: 89 89 92
Width: 654
GlyphClass: 2
Flags: W
LayerCount: 2
Fore
SplineSet
128 683 m 1,0,-1
 152 708 l 1,1,-1
 176 685 l 1,2,-1
 199 662 l 1,3,-1
 263 542 l 2,4,5
 327 421 327 421 328 421 c 2,6,-1
 380 517 l 1,7,-1
 381 518 l 1,8,-1
 381 519 l 1,9,-1
 382 520 l 1,10,-1
 382 521 l 1,11,-1
 383 522 l 1,12,-1
 383 523 l 1,13,-1
 384 524 l 1,14,-1
 384 525 l 1,15,-1
 385 526 l 1,16,-1
 386 527 l 1,17,-1
 386 528 l 1,18,-1
 387 529 l 1,19,-1
 387 530 l 1,20,-1
 388 531 l 1,21,-1
 388 532 l 1,22,-1
 389 533 l 1,23,-1
 389 534 l 1,24,-1
 390 535 l 1,25,-1
 390 536 l 1,26,-1
 391 537 l 1,27,-1
 391 538 l 1,28,-1
 392 539 l 1,29,-1
 456 659 l 1,30,-1
 481 683 l 1,31,-1
 506 708 l 1,32,-1
 528 685 l 1,33,-1
 551 662 l 1,34,-1
 548 656 l 2,35,36
 548 655 548 655 460 491 c 2,37,-1
 375 332 l 1,38,-1
 375 187 l 1,39,-1
 375 42 l 1,40,-1
 350 17 l 1,41,-1
 326 -8 l 1,42,-1
 303 15 l 1,43,-1
 280 37 l 1,44,-1
 280 183 l 1,45,-1
 280 328 l 1,46,-1
 191 493 l 1,47,-1
 103 658 l 1,48,-1
 128 683 l 1,0,-1
EndSplineSet
Validated: 1
EndChar

StartChar: Z
Encoding: 90 90 93
Width: 654
GlyphClass: 2
Flags: W
LayerCount: 2
Fore
SplineSet
136 672 m 1,0,-1
 160 696 l 1,1,-1
 313 696 l 1,2,-1
 465 696 l 1,3,-1
 488 673 l 1,4,-1
 511 650 l 1,5,6
 447 526 447 526 370 374 c 2,7,-1
 228 100 l 1,8,-1
 364 99 l 1,9,-1
 500 99 l 1,10,-1
 523 76 l 1,11,-1
 545 53 l 1,12,-1
 521 28 l 1,13,-1
 497 4 l 1,14,-1
 325 4 l 1,15,-1
 154 4 l 1,16,-1
 132 27 l 1,17,-1
 109 50 l 1,18,-1
 250 325 l 1,19,-1
 392 600 l 2,20,21
 392 601 392 601 275 601 c 2,22,-1
 157 601 l 1,23,-1
 134 624 l 1,24,-1
 112 647 l 1,25,-1
 136 672 l 1,0,-1
EndSplineSet
Validated: 1
EndChar

StartChar: bracketleft
Encoding: 91 91 94
Width: 654
GlyphClass: 2
Flags: W
LayerCount: 2
Fore
SplineSet
201 743 m 1,0,-1
 225 767 l 1,1,-1
 368 767 l 1,2,-1
 511 767 l 1,3,-1
 534 744 l 1,4,-1
 557 722 l 1,5,-1
 532 697 l 1,6,-1
 508 672 l 1,7,-1
 390 672 l 1,8,-1
 272 672 l 1,9,-1
 272 378 l 1,10,-1
 272 84 l 1,11,-1
 392 84 l 1,12,-1
 511 84 l 1,13,-1
 534 61 l 1,14,-1
 557 39 l 1,15,-1
 532 14 l 1,16,-1
 508 -11 l 1,17,-1
 365 -11 l 1,18,-1
 223 -11 l 1,19,-1
 200 12 l 1,20,-1
 177 34 l 1,21,-1
 177 376 l 1,22,-1
 177 718 l 1,23,-1
 201 743 l 1,0,-1
EndSplineSet
Validated: 1
EndChar

StartChar: backslash
Encoding: 92 92 95
Width: 654
GlyphClass: 2
Flags: W
LayerCount: 2
Fore
SplineSet
165 743 m 1,0,-1
 189 768 l 1,1,-1
 213 745 l 1,2,-1
 236 722 l 1,3,-1
 375 380 l 1,4,-1
 514 39 l 1,5,-1
 490 14 l 1,6,-1
 465 -10 l 1,7,-1
 442 13 l 1,8,-1
 418 37 l 1,9,-1
 279 377 l 1,10,-1
 140 718 l 1,11,-1
 165 743 l 1,0,-1
EndSplineSet
Validated: 1
EndChar

StartChar: bracketright
Encoding: 93 93 96
Width: 654
GlyphClass: 2
Flags: W
LayerCount: 2
Fore
SplineSet
122 743 m 1,0,-1
 146 767 l 1,1,-1
 289 767 l 1,2,-1
 431 767 l 1,3,-1
 454 744 l 1,4,-1
 477 722 l 1,5,-1
 477 380 l 1,6,-1
 477 38 l 1,7,-1
 453 13 l 1,8,-1
 429 -11 l 1,9,-1
 286 -11 l 1,10,-1
 143 -11 l 1,11,-1
 120 12 l 1,12,-1
 98 35 l 1,13,-1
 122 60 l 1,14,-1
 146 84 l 1,15,-1
 264 84 l 1,16,-1
 382 84 l 1,17,-1
 382 378 l 1,18,-1
 382 672 l 1,19,-1
 263 672 l 1,20,-1
 143 672 l 1,21,-1
 120 695 l 1,22,-1
 98 718 l 1,23,-1
 122 743 l 1,0,-1
EndSplineSet
Validated: 1
EndChar

StartChar: asciicircum
Encoding: 94 94 97
Width: 654
GlyphClass: 2
Flags: W
LayerCount: 2
Fore
SplineSet
303 736 m 1,0,-1
 329 761 l 1,1,-1
 353 737 l 1,2,-1
 377 714 l 1,3,-1
 475 566 l 1,4,-1
 574 418 l 1,5,-1
 549 393 l 1,6,-1
 525 368 l 1,7,-1
 500 392 l 2,8,9
 494 399 494 399 401 496 c 2,10,-1
 326 575 l 2,11,12
 325 575 325 575 247 493 c 0,13,14
 157 399 157 399 148 389 c 2,15,-1
 126 368 l 1,16,-1
 103 390 l 1,17,-1
 80 413 l 1,18,-1
 179 562 l 1,19,-1
 278 711 l 1,20,-1
 303 736 l 1,0,-1
EndSplineSet
Validated: 1
EndChar

StartChar: underscore
Encoding: 95 95 98
Width: 654
GlyphClass: 2
Flags: W
LayerCount: 2
Fore
SplineSet
105 -133 m 1,0,-1
 129 -109 l 1,1,-1
 329 -109 l 1,2,-1
 528 -109 l 1,3,-1
 551 -132 l 1,4,-1
 574 -154 l 1,5,-1
 574 -169 l 1,6,-1
 574 -183 l 1,7,-1
 550 -208 l 1,8,-1
 526 -232 l 1,9,-1
 326 -232 l 1,10,-1
 127 -232 l 1,11,-1
 104 -209 l 1,12,-1
 81 -187 l 1,13,-1
 81 -172 l 1,14,-1
 81 -158 l 1,15,-1
 105 -133 l 1,0,-1
EndSplineSet
Validated: 1
EndChar

StartChar: quoteleft
Encoding: 285 8216 99
Width: 654
GlyphClass: 2
Flags: W
LayerCount: 2
Fore
SplineSet
250 740 m 2,0,-1
 275 764 l 1,1,2
 286 754 286 754 299 741 c 2,3,-1
 322 718 l 1,4,-1
 348 676 l 1,5,-1
 375 634 l 1,6,-1
 350 609 l 1,7,-1
 326 584 l 1,8,-1
 302 607 l 1,9,-1
 279 630 l 1,10,-1
 254 670 l 2,11,12
 228 710 228 710 227 713 c 128,-1,13
 226 716 226 716 250 740 c 2,0,-1
EndSplineSet
Validated: 33
EndChar

StartChar: a
Encoding: 97 97 100
Width: 654
GlyphClass: 2
Flags: W
LayerCount: 2
Fore
SplineSet
301 538 m 0,0,1
 332 543 332 543 366 537 c 0,2,3
 405 527 405 527 434 507 c 0,4,5
 444 500 444 500 474 470 c 0,6,7
 508 436 508 436 511 432 c 0,8,9
 535 404 535 404 544 364 c 0,10,11
 546 350 546 350 546 337 c 0,12,13
 546 312 546 312 539 291 c 0,14,15
 537 286 537 286 537 162 c 2,16,-1
 537 39 l 1,17,-1
 512 14 l 1,18,-1
 488 -11 l 1,19,-1
 465 12 l 1,20,-1
 442 34 l 1,21,-1
 442 52 l 1,22,-1
 442 70 l 1,23,-1
 425 54 l 2,24,25
 395 23 395 23 363 7 c 0,26,27
 277 -37 277 -37 203 7 c 0,28,29
 189 15 189 15 150 54 c 0,30,31
 114 90 114 90 105 109 c 0,32,33
 95 131 95 131 96 154 c 0,34,35
 96 173 96 173 98 181 c 0,36,37
 104 201 104 201 113 215 c 0,38,39
 118 223 118 223 151 256 c 0,40,41
 161 266 161 266 176 280 c 2,42,-1
 190 294 l 1,43,-1
 198 300 l 1,44,-1
 177 321 l 2,45,46
 157 341 157 341 153 347 c 0,47,48
 125 389 125 389 153 435 c 0,49,50
 157 442 157 442 189 474.5 c 128,-1,51
 221 507 221 507 230 513 c 0,52,53
 262 534 262 534 301 538 c 0,0,1
342 444 m 0,54,55
 324 446 324 446 313 444 c 0,56,57
 305 444 305 444 299 443 c 0,58,59
 296 442 296 442 288 440.5 c 128,-1,60
 280 439 280 439 277 439 c 0,61,62
 251 433 251 433 243 427 c 0,63,64
 238 424 238 424 236 402 c 0,65,66
 235 391 235 391 236 382 c 0,67,68
 239 366 239 366 247 364 c 0,69,70
 249 363 249 363 255 362 c 128,-1,71
 261 361 261 361 263 361 c 2,72,-1
 272 361 l 1,73,-1
 287 346 l 1,74,-1
 302 331 l 1,75,-1
 322 332 l 2,76,77
 365 335 365 335 425 335 c 0,78,79
 451 335 451 335 451 336 c 0,80,81
 451 343 451 343 450 348 c 0,82,83
 447 379 447 379 431 406 c 0,84,85
 426 417 426 417 406 426 c 0,86,87
 376 441 376 441 342 444 c 0,54,55
442 212 m 1,88,-1
 442 240 l 1,89,-1
 428 240 l 2,90,91
 425 240 425 240 414 239.5 c 128,-1,92
 403 239 403 239 398 239 c 0,93,94
 358 239 358 239 310 236 c 0,95,96
 249 232 249 232 214 215 c 2,97,-1
 203 210 l 1,98,-1
 200 203 l 2,99,100
 191 184 191 184 191 155 c 0,101,102
 191 133 191 133 201 112 c 2,103,-1
 206 103 l 1,104,-1
 216 97 l 1,105,106
 285 63 285 63 363 100 c 0,107,108
 389 113 389 113 399 123 c 0,109,110
 414 136 414 136 438 177 c 2,111,-1
 442 184 l 1,112,-1
 442 212 l 1,88,-1
EndSplineSet
Validated: 33
EndChar

StartChar: b
Encoding: 98 98 101
Width: 654
GlyphClass: 2
Flags: W
LayerCount: 2
Fore
SplineSet
105 743 m 1,0,-1
 130 767 l 1,1,2
 141 757 141 757 153 744 c 2,3,-1
 176 722 l 1,4,-1
 176 596 l 1,5,-1
 176 471 l 1,6,-1
 190 485 l 2,7,8
 217 509 217 509 237 519 c 0,9,10
 280 540 280 540 329 540 c 128,-1,11
 378 540 378 540 421 519 c 0,12,13
 445 507 445 507 485 467 c 0,14,15
 514 439 514 439 525 426 c 0,16,17
 562 380 562 380 572 310 c 0,18,19
 577 268 577 268 573 235 c 0,20,21
 566 152 566 152 523 102 c 0,22,23
 513 91 513 91 482 60 c 128,-1,24
 451 29 451 29 444 24 c 0,25,26
 410 -2 410 -2 360 -11 c 0,27,28
 327 -17 327 -17 289 -10 c 0,29,30
 232 0 232 0 188 42 c 2,31,-1
 176 53 l 1,32,-1
 176 46 l 1,33,-1
 176 39 l 1,34,-1
 151 14 l 1,35,-1
 127 -11 l 1,36,-1
 104 12 l 1,37,-1
 81 34 l 1,38,-1
 81 376 l 1,39,-1
 81 718 l 1,40,-1
 105 743 l 1,0,-1
357 443 m 0,41,42
 323 445 323 445 306 444 c 0,43,44
 259 439 259 439 224 418 c 0,45,46
 214 412 214 412 205 395 c 0,47,48
 171 331 171 331 177 242 c 0,49,50
 181 174 181 174 212 123 c 0,51,52
 217 115 217 115 226 110 c 0,53,54
 265 86 265 86 314 83 c 0,55,56
 368 78 368 78 418 101 c 0,57,58
 432 108 432 108 436.5 111.5 c 128,-1,59
 441 115 441 115 446 124 c 0,60,61
 482 187 482 187 479 273 c 0,62,63
 476 340 476 340 452 388 c 0,64,65
 441 410 441 410 431 416 c 0,66,67
 400 436 400 436 357 443 c 0,41,42
EndSplineSet
Validated: 33
EndChar

StartChar: c
Encoding: 99 99 102
Width: 654
GlyphClass: 2
Flags: W
LayerCount: 2
Fore
SplineSet
304 539 m 0,0,1
 314 541 314 541 336 540 c 128,-1,2
 358 539 358 539 368 537 c 0,3,4
 410 529 410 529 437 510 c 0,5,6
 446 504 446 504 479 473 c 0,7,8
 489 463 489 463 502 449 c 2,9,-1
 516 435 l 1,10,11
 536 409 536 409 544 379 c 2,12,-1
 545 372 l 1,13,-1
 521 347 l 1,14,-1
 496 323 l 1,15,-1
 473 345 l 1,16,-1
 450 368 l 1,17,-1
 449 375 l 2,18,19
 444 390 444 390 436 407 c 2,20,-1
 430 417 l 1,21,-1
 418 424 l 2,22,23
 386 441 386 441 342 444 c 0,24,25
 275 449 275 449 224 418 c 0,26,27
 215 414 215 414 213 409 c 0,28,29
 186 367 186 367 178 301 c 0,30,31
 174 263 174 263 178 225 c 0,32,33
 187 161 187 161 213 121 c 0,34,35
 217 115 217 115 227 109 c 0,36,37
 298 67 298 67 386 89 c 0,38,39
 404 94 404 94 425 105 c 2,40,-1
 436 110 l 1,41,-1
 440 118 l 2,42,43
 448 133 448 133 449 148 c 2,44,-1
 450 158 l 1,45,-1
 475 182 l 1,46,-1
 499 207 l 1,47,-1
 522 184 l 1,48,-1
 545 162 l 1,49,-1
 545 154 l 2,50,51
 542 127 542 127 524 102 c 0,52,53
 517 93 517 93 485.5 62 c 128,-1,54
 454 31 454 31 446 25 c 0,55,56
 397 -13 397 -13 325 -13 c 0,57,58
 258 -13 258 -13 208 24 c 0,59,60
 201 29 201 29 171.5 58.5 c 128,-1,61
 142 88 142 88 132 99 c 0,62,63
 92 147 92 147 83 221 c 0,64,65
 82 232 82 232 82 261 c 128,-1,66
 82 290 82 290 83 301 c 0,67,68
 92 377 92 377 132 426 c 0,69,70
 143 438 143 438 174.5 469 c 128,-1,71
 206 500 206 500 214 505 c 0,72,73
 251 533 251 533 304 539 c 0,0,1
EndSplineSet
Validated: 33
EndChar

StartChar: d
Encoding: 100 100 103
Width: 654
GlyphClass: 2
Flags: W
LayerCount: 2
Fore
SplineSet
503 743 m 1,0,-1
 528 767 l 1,1,2
 539 757 539 757 551 744 c 2,3,-1
 574 722 l 1,4,-1
 574 380 l 1,5,-1
 574 39 l 1,6,-1
 549 14 l 1,7,-1
 525 -11 l 1,8,-1
 502 12 l 1,9,-1
 479 34 l 1,10,-1
 479 45 l 1,11,-1
 479 56 l 1,12,-1
 466 43 l 2,13,14
 447 25 447 25 427 13 c 0,15,16
 396 -5 396 -5 360 -11 c 0,17,18
 327 -17 327 -17 289 -10 c 0,19,20
 244 -3 244 -3 208 24 c 0,21,22
 201 29 201 29 171.5 58.5 c 128,-1,23
 142 88 142 88 132 99 c 0,24,25
 92 147 92 147 83 221 c 0,26,27
 82 232 82 232 82 261 c 128,-1,28
 82 290 82 290 83 301 c 0,29,30
 92 377 92 377 132 426 c 0,31,32
 143 438 143 438 174.5 469 c 128,-1,33
 206 500 206 500 214 505 c 0,34,35
 245 528 245 528 286 536 c 0,36,37
 358 550 358 550 421 519 c 0,38,39
 446 505 446 505 466 486 c 2,40,-1
 479 474 l 1,41,-1
 479 596 l 1,42,-1
 479 718 l 1,43,-1
 503 743 l 1,0,-1
357 443 m 0,44,45
 323 445 323 445 306 444 c 0,46,47
 259 439 259 439 224 418 c 0,48,49
 214 412 214 412 205 395 c 0,50,51
 171 331 171 331 177 242 c 0,52,53
 181 174 181 174 212 123 c 0,54,55
 217 115 217 115 226 110 c 0,56,57
 265 86 265 86 314 83 c 0,58,59
 368 78 368 78 418 101 c 0,60,61
 432 108 432 108 436.5 111.5 c 128,-1,62
 441 115 441 115 446 124 c 0,63,64
 482 187 482 187 479 273 c 0,65,66
 476 340 476 340 452 388 c 0,67,68
 441 410 441 410 431 416 c 0,69,70
 400 436 400 436 357 443 c 0,44,45
EndSplineSet
Validated: 33
EndChar

StartChar: e
Encoding: 101 101 104
Width: 654
GlyphClass: 2
Flags: W
LayerCount: 2
Fore
SplineSet
348 544 m 0,0,1
 357 546 357 546 375 545 c 128,-1,2
 393 544 393 544 402 542 c 0,3,4
 429 536 429 536 452 521 c 0,5,6
 459 516 459 516 488 487.5 c 128,-1,7
 517 459 517 459 524 450 c 0,8,9
 537 431 537 431 541 417 c 0,10,11
 556 370 556 370 546 311 c 0,12,13
 537 264 537 264 510 231 c 0,14,15
 502 221 502 221 471.5 191 c 128,-1,16
 441 161 441 161 433 155 c 0,17,18
 404 136 404 136 373 129 c 0,19,20
 353 123 353 123 318 123 c 0,21,22
 284 122 284 122 247 132 c 1,23,-1
 244 132 l 1,24,-1
 247 128 l 2,25,26
 257 115 257 115 297 98 c 0,27,28
 359 74 359 74 412 88 c 0,29,30
 427 92 427 92 429 99 c 0,31,32
 429 101 429 101 429.5 103.5 c 128,-1,33
 430 106 430 106 431 109 c 128,-1,34
 432 112 432 112 432 114 c 2,35,-1
 433 124 l 1,36,-1
 458 148 l 1,37,-1
 482 173 l 1,38,-1
 505 150 l 1,39,-1
 528 128 l 1,40,-1
 528 120 l 2,41,42
 527 100 527 100 513 78 c 0,43,44
 509 73 509 73 479 43 c 128,-1,45
 449 13 449 13 444 9 c 0,46,47
 415 -12 415 -12 366 -11 c 0,48,49
 297 -8 297 -8 243 31 c 0,50,51
 233 39 233 39 199 73 c 128,-1,52
 165 107 165 107 157 117 c 0,53,54
 125 160 125 160 116 207 c 2,55,-1
 114 219 l 1,56,-1
 99 234 l 2,57,58
 86 247 86 247 78 257 c 0,59,60
 9 351 9 351 90 472 c 0,61,62
 98 483 98 483 122 506 c 2,63,-1
 147 531 l 1,64,-1
 170 509 l 1,65,-1
 193 486 l 1,66,-1
 185 474 l 2,67,68
 158 434 158 434 147 394 c 2,69,-1
 145 383 l 1,70,-1
 151 391 l 2,71,72
 164 411 164 411 205 452 c 0,73,74
 249 497 249 497 272 512 c 0,75,76
 307 536 307 536 348 544 c 0,0,1
382 449 m 0,77,78
 325 455 325 455 269 417 c 2,79,-1
 256 409 l 1,80,-1
 247 396 l 2,81,82
 211 340 211 340 207 277 c 0,83,84
 205 247 205 247 207 243 c 0,85,86
 219 237 219 237 240 230 c 0,87,88
 268 222 268 222 292 219 c 0,89,90
 322 215 322 215 353 219 c 0,91,92
 389 225 389 225 417 239 c 0,93,94
 429 245 429 245 436 261 c 0,95,96
 458 305 458 305 453 364 c 0,97,98
 450 406 450 406 441 426 c 0,99,100
 438 432 438 432 430 436 c 0,101,102
 408 446 408 446 382 449 c 0,77,78
EndSplineSet
Validated: 33
EndChar

StartChar: f
Encoding: 102 102 105
Width: 654
GlyphClass: 2
Flags: W
LayerCount: 2
Fore
SplineSet
410 748 m 1,0,-1
 491 765 l 1,1,-1
 514 742 l 1,2,-1
 537 719 l 1,3,-1
 512 694 l 1,4,-1
 488 669 l 1,5,-1
 431 657 l 1,6,-1
 375 646 l 1,7,-1
 375 587 l 1,8,-1
 375 528 l 1,9,-1
 435 528 l 1,10,-1
 494 528 l 1,11,-1
 517 505 l 1,12,-1
 540 483 l 1,13,-1
 515 458 l 1,14,-1
 491 433 l 1,15,-1
 433 433 l 1,16,-1
 375 433 l 1,17,-1
 375 236 l 1,18,-1
 375 39 l 1,19,-1
 350 14 l 1,20,-1
 326 -11 l 1,21,-1
 303 12 l 1,22,-1
 280 34 l 1,23,-1
 280 234 l 1,24,-1
 280 433 l 1,25,-1
 220 433 l 1,26,-1
 160 433 l 1,27,-1
 137 456 l 1,28,-1
 115 479 l 1,29,-1
 139 504 l 1,30,-1
 163 528 l 1,31,-1
 222 528 l 1,32,-1
 280 528 l 1,33,-1
 280 605 l 1,34,-1
 280 682 l 1,35,-1
 304 706 l 1,36,-1
 329 731 l 1,37,-1
 410 748 l 1,0,-1
EndSplineSet
Validated: 1
EndChar

StartChar: g
Encoding: 103 103 106
Width: 654
GlyphClass: 2
Flags: W
LayerCount: 2
Fore
SplineSet
304 539 m 0,0,1
 328 541 328 541 353 539 c 0,2,3
 390 534 390 534 421 519 c 0,4,5
 446 505 446 505 466 486 c 2,6,-1
 479 474 l 1,7,-1
 479 478 l 1,8,-1
 479 483 l 1,9,-1
 503 507 l 1,10,-1
 528 531 l 1,11,-1
 551 509 l 1,12,-1
 574 486 l 1,13,-1
 575 266 l 1,14,-1
 575 25 l 2,15,16
 575 2 575 2 573 -9 c 0,17,18
 563 -59 563 -59 530 -98 c 0,19,20
 522 -108 522 -108 489.5 -140.5 c 128,-1,21
 457 -173 457 -173 449 -178 c 0,22,23
 416 -204 416 -204 375 -217 c 0,24,25
 339 -229 339 -229 302 -228 c 0,26,27
 251 -227 251 -227 217 -200 c 0,28,29
 208 -194 208 -194 179 -164 c 0,30,31
 144 -129 144 -129 136 -109 c 0,32,33
 122 -70 122 -70 139 -31 c 0,34,35
 147 -15 147 -15 173 12 c 2,36,-1
 195 34 l 1,37,-1
 164 65 l 2,38,39
 134 95 134 95 128 103 c 0,40,41
 92 149 92 149 83 221 c 0,42,43
 82 232 82 232 82 261 c 128,-1,44
 82 290 82 290 83 301 c 0,45,46
 92 377 92 377 132 426 c 0,47,48
 143 438 143 438 174.5 469 c 128,-1,49
 206 500 206 500 214 505 c 0,50,51
 253 533 253 533 304 539 c 0,0,1
357 443 m 0,52,53
 323 445 323 445 306 444 c 0,54,55
 259 439 259 439 224 418 c 0,56,57
 214 412 214 412 205 395 c 0,58,59
 171 331 171 331 177 242 c 0,60,61
 181 174 181 174 212 123 c 0,62,63
 217 115 217 115 226 110 c 0,64,65
 265 86 265 86 314 83 c 0,66,67
 368 78 368 78 418 101 c 0,68,69
 432 108 432 108 436.5 111.5 c 128,-1,70
 441 115 441 115 446 124 c 0,71,72
 482 187 482 187 479 273 c 0,73,74
 476 340 476 340 452 388 c 0,75,76
 441 410 441 410 431 416 c 0,77,78
 400 436 400 436 357 443 c 0,52,53
480 34 m 0,79,80
 480 38 480 38 479.5 44.5 c 128,-1,81
 479 51 479 51 479 52 c 2,82,-1
 479 56 l 1,83,-1
 465 43 l 2,84,85
 437 15 437 15 407 3 c 0,86,87
 373 -12 373 -12 348 -12 c 0,88,89
 345 -12 345 -12 335 -21 c 2,90,-1
 326 -31 l 1,91,-1
 318 -27 l 2,92,93
 301 -19 301 -19 278 -19 c 0,94,95
 259 -19 259 -19 242 -25 c 0,96,97
 236 -27 236 -27 234.5 -29 c 128,-1,98
 233 -31 233 -31 230 -40 c 0,99,100
 218 -77 218 -77 233 -110 c 0,101,102
 236 -115 236 -115 244 -119 c 0,103,104
 265 -129 265 -129 298 -132 c 0,105,106
 353 -137 353 -137 412 -108 c 0,107,108
 434 -95 434 -95 437 -94 c 0,109,110
 445 -88 445 -88 450 -81 c 0,111,112
 484 -25 484 -25 480 34 c 0,79,80
EndSplineSet
Validated: 33
EndChar

StartChar: h
Encoding: 104 104 107
Width: 654
GlyphClass: 2
Flags: W
LayerCount: 2
Fore
SplineSet
277 824 m 0,0,1
 293 826 293 826 311 824 c 0,2,3
 337 819 337 819 357 803 c 0,4,5
 366 796 366 796 393.5 767.5 c 128,-1,6
 421 739 421 739 425 734 c 0,7,8
 440 710 440 710 446 681 c 0,9,10
 452 654 452 654 448 622 c 0,11,12
 439 548 439 548 387 484 c 2,13,-1
 380 475 l 2,14,15
 380 474 380 474 390 474 c 0,16,17
 410 472 410 472 426 462 c 0,18,19
 435 457 435 457 465 428 c 0,20,21
 471 421 471 421 480.5 411.5 c 128,-1,22
 490 402 490 402 495 396.5 c 128,-1,23
 500 391 500 391 502 389 c 0,24,25
 526 355 526 355 532 306 c 0,26,27
 534 297 534 297 534 262 c 128,-1,28
 534 227 534 227 532 203 c 0,29,30
 531 189 531 189 531 109 c 2,31,-1
 531 39 l 1,32,-1
 506 14 l 1,33,-1
 482 -11 l 1,34,-1
 459 12 l 1,35,-1
 436 34 l 1,36,-1
 436 111 l 2,37,38
 436 197 436 197 438 222 c 0,39,40
 442 313 442 313 421 362 c 0,41,42
 415 371 415 371 411 373 c 0,43,44
 396 379 396 379 374 379 c 0,45,46
 333 376 333 376 300 358 c 0,47,48
 289 352 289 352 280 336 c 0,49,50
 224 242 224 242 218 60 c 1,51,-1
 218 38 l 1,52,-1
 193 14 l 1,53,-1
 168 -11 l 1,54,-1
 146 12 l 1,55,-1
 123 35 l 1,56,-1
 123 333 l 2,57,58
 124 633 124 633 125 642 c 0,59,60
 133 683 133 683 147 708 c 0,61,62
 157 729 157 729 195 767 c 0,63,64
 223 797 223 797 234 805 c 0,65,66
 255 821 255 821 277 824 c 0,0,1
304 729 m 0,67,68
 276 732 276 732 250 722 c 0,69,70
 245 718 245 718 240 707 c 0,71,72
 226 681 226 681 220 641 c 0,73,74
 219 634 219 634 218 525 c 2,75,-1
 218 419 l 1,76,-1
 225 424 l 2,77,78
 263 450 263 450 287 474 c 0,79,80
 288 475 288 475 298 488 c 0,81,82
 365 579 365 579 352 671 c 0,83,84
 349 693 349 693 339 713 c 0,85,86
 337 719 337 719 332 721 c 0,87,88
 318 726 318 726 304 729 c 0,67,68
EndSplineSet
Validated: 33
EndChar

StartChar: i
Encoding: 105 105 108
Width: 654
GlyphClass: 2
Flags: W
LayerCount: 2
Fore
SplineSet
310 742 m 1,0,-1
 334 767 l 1,1,-1
 357 767 l 1,2,-1
 380 767 l 1,3,-1
 403 744 l 1,4,-1
 426 722 l 1,5,-1
 426 699 l 1,6,-1
 426 677 l 1,7,-1
 401 652 l 1,8,-1
 377 627 l 1,9,-1
 354 627 l 1,10,-1
 331 627 l 1,11,-1
 308 650 l 1,12,-1
 285 672 l 1,13,-1
 285 695 l 1,14,-1
 285 717 l 1,15,-1
 310 742 l 1,0,-1
173 496 m 1,16,-1
 197 520 l 1,17,-1
 287 520 l 1,18,-1
 377 520 l 1,19,-1
 400 497 l 1,20,-1
 423 475 l 1,21,-1
 423 257 l 1,22,-1
 423 39 l 1,23,-1
 398 14 l 1,24,-1
 374 -11 l 1,25,-1
 351 12 l 1,26,-1
 328 34 l 1,27,-1
 328 230 l 1,28,-1
 328 425 l 1,29,-1
 261 425 l 1,30,-1
 194 425 l 1,31,-1
 171 448 l 1,32,-1
 149 471 l 1,33,-1
 173 496 l 1,16,-1
EndSplineSet
Validated: 1
EndChar

StartChar: j
Encoding: 106 106 109
Width: 654
GlyphClass: 2
Flags: W
LayerCount: 2
Fore
SplineSet
310 742 m 1,0,-1
 334 767 l 1,1,-1
 357 767 l 1,2,-1
 380 767 l 1,3,-1
 403 744 l 1,4,-1
 426 722 l 1,5,-1
 426 699 l 1,6,-1
 426 677 l 1,7,-1
 401 652 l 1,8,-1
 377 627 l 1,9,-1
 354 627 l 1,10,-1
 331 627 l 1,11,-1
 308 650 l 1,12,-1
 285 672 l 1,13,-1
 285 695 l 1,14,-1
 285 717 l 1,15,-1
 310 742 l 1,0,-1
202 495 m 1,16,-1
 226 520 l 1,17,-1
 299 520 l 1,18,-1
 371 520 l 1,19,-1
 394 497 l 1,20,-1
 417 475 l 1,21,-1
 417 210 l 1,22,-1
 417 -56 l 1,23,-1
 392 -80 l 1,24,-1
 368 -104 l 1,25,-1
 267 -140 l 1,26,-1
 167 -176 l 1,27,-1
 143 -153 l 1,28,-1
 120 -130 l 1,29,-1
 144 -105 l 1,30,-1
 169 -80 l 1,31,-1
 246 -54 l 1,32,-1
 322 -27 l 1,33,-1
 322 199 l 1,34,-1
 322 425 l 1,35,-1
 272 425 l 1,36,-1
 223 425 l 1,37,-1
 200 448 l 1,38,-1
 177 470 l 1,39,-1
 202 495 l 1,16,-1
EndSplineSet
Validated: 1
EndChar

StartChar: k
Encoding: 107 107 110
Width: 654
GlyphClass: 2
Flags: W
LayerCount: 2
Fore
SplineSet
164 743 m 1,0,-1
 189 767 l 1,1,2
 200 757 200 757 212 744 c 2,3,-1
 235 722 l 1,4,-1
 235 517 l 1,5,-1
 235 313 l 1,6,-1
 251 328 l 2,7,8
 258 336 258 336 365 433 c 0,9,10
 459 522 459 522 467 527 c 2,11,-1
 471 531 l 1,12,-1
 494 508 l 1,13,-1
 517 486 l 1,14,-1
 491 460 l 2,15,16
 469 436 469 436 389 364 c 2,17,-1
 312 293 l 2,18,19
 312 292 312 292 422 174 c 128,-1,20
 532 56 532 56 544 44 c 2,21,-1
 548 39 l 1,22,-1
 524 14 l 1,23,-1
 499 -10 l 1,24,-1
 477 12 l 2,25,26
 429 60 429 60 345 151 c 2,27,-1
 236 268 l 1,28,-1
 235 153 l 1,29,-1
 235 39 l 1,30,-1
 210 14 l 1,31,-1
 186 -11 l 1,32,-1
 163 12 l 1,33,-1
 140 34 l 1,34,-1
 140 376 l 1,35,-1
 140 718 l 1,36,-1
 164 743 l 1,0,-1
EndSplineSet
Validated: 1
EndChar

StartChar: l
Encoding: 108 108 111
Width: 654
GlyphClass: 2
Flags: W
LayerCount: 2
Fore
SplineSet
247 743 m 1,0,-1
 272 767 l 1,1,2
 283 757 283 757 295 744 c 2,3,-1
 318 722 l 1,4,-1
 318 406 l 1,5,-1
 318 90 l 1,6,-1
 395 90 l 1,7,-1
 471 90 l 1,8,-1
 494 67 l 1,9,-1
 517 45 l 1,10,-1
 492 20 l 1,11,-1
 468 -5 l 1,12,-1
 368 -5 l 1,13,-1
 269 -5 l 1,14,-1
 246 18 l 1,15,-1
 223 40 l 1,16,-1
 223 379 l 1,17,-1
 223 718 l 1,18,-1
 247 743 l 1,0,-1
EndSplineSet
Validated: 1
EndChar

StartChar: m
Encoding: 109 109 112
Width: 654
GlyphClass: 2
Flags: W
LayerCount: 2
Fore
SplineSet
217 534 m 0,0,1
 241 539 241 539 265 530 c 0,2,3
 279 524 279 524 308 495 c 2,4,-1
 334 470 l 1,5,-1
 359 495 l 2,6,7
 389 523 389 523 402 529 c 0,8,9
 416 534 416 534 435 534 c 0,10,11
 455 533 455 533 469 525 c 2,12,-1
 479 521 l 1,13,-1
 510 489 l 2,14,15
 541 458 541 458 546 449 c 0,16,17
 565 417 565 417 572 352 c 0,18,19
 572 349 572 349 574 190 c 2,20,-1
 574 39 l 1,21,-1
 549 14 l 1,22,-1
 525 -11 l 1,23,-1
 502 12 l 1,24,-1
 479 34 l 1,25,-1
 479 181 l 2,26,27
 478 337 478 337 477 342 c 0,28,29
 472 396 472 396 461 425 c 2,30,-1
 457 434 l 1,31,-1
 452 435 l 1,32,33
 428 444 428 444 405 435 c 1,34,-1
 399 434 l 1,35,-1
 394 422 l 2,36,37
 383 396 383 396 377 356 c 0,38,39
 376 346 376 346 375 191 c 2,40,-1
 375 39 l 1,41,-1
 350 14 l 1,42,-1
 326 -11 l 1,43,-1
 303 12 l 1,44,-1
 280 34 l 1,45,-1
 280 119 l 2,46,47
 280 318 280 318 277 366 c 0,48,49
 271 405 271 405 263 427 c 2,50,-1
 260 435 l 1,51,-1
 255 436 l 2,52,53
 233 444 233 444 208 436 c 2,54,-1
 202 435 l 1,55,-1
 198 427 l 2,56,57
 185 398 185 398 179 359 c 0,58,59
 177 346 177 346 176 192 c 2,60,-1
 176 38 l 1,61,-1
 151 14 l 1,62,-1
 126 -11 l 1,63,-1
 104 12 l 1,64,-1
 81 35 l 1,65,-1
 81 258 l 1,66,-1
 81 482 l 1,67,-1
 105 507 l 1,68,-1
 130 531 l 1,69,-1
 147 515 l 1,70,-1
 164 498 l 1,71,-1
 175 508 l 2,72,73
 195 528 195 528 217 534 c 0,0,1
EndSplineSet
Validated: 33
EndChar

StartChar: n
Encoding: 110 110 113
Width: 654
GlyphClass: 2
Flags: W
LayerCount: 2
Fore
SplineSet
327 533 m 0,0,1
 353 535 353 535 371 532 c 0,2,3
 411 526 411 526 444 502 c 0,4,5
 452 496 452 496 482.5 466 c 128,-1,6
 513 436 513 436 520 427 c 0,7,8
 545 398 545 398 554 359 c 0,9,10
 559 342 559 342 559.5 321 c 128,-1,11
 560 300 560 300 560 183 c 2,12,-1
 560 38 l 1,13,-1
 535 14 l 1,14,-1
 510 -11 l 1,15,-1
 488 12 l 1,16,-1
 465 35 l 1,17,-1
 465 183 l 2,18,19
 464 331 464 331 462 342 c 0,20,21
 456 372 456 372 443 397 c 0,22,23
 434 412 434 412 416 421 c 0,24,25
 389 435 389 435 357 438 c 0,26,27
 299 443 299 443 247 408 c 0,28,29
 240 404 240 404 234 396 c 0,30,31
 205 357 205 357 193 306 c 2,32,-1
 191 295 l 1,33,-1
 190 167 l 1,34,-1
 190 39 l 1,35,-1
 165 14 l 1,36,-1
 141 -11 l 1,37,-1
 118 12 l 1,38,-1
 95 34 l 1,39,-1
 95 258 l 1,40,-1
 95 483 l 1,41,-1
 119 507 l 1,42,-1
 144 531 l 1,43,-1
 167 509 l 1,44,-1
 190 486 l 1,45,-1
 190 468 l 1,46,-1
 190 450 l 1,47,-1
 208 468 l 2,48,49
 236 494 236 494 252 504 c 0,50,51
 289 528 289 528 327 533 c 0,0,1
EndSplineSet
Validated: 33
EndChar

StartChar: o
Encoding: 111 111 114
Width: 654
GlyphClass: 2
Flags: W
LayerCount: 2
Fore
SplineSet
304 539 m 0,0,1
 328 541 328 541 353 539 c 0,2,3
 406 532 406 532 444 505 c 0,4,5
 453 499 453 499 484.5 468 c 128,-1,6
 516 437 516 437 525 426 c 0,7,8
 562 380 562 380 572 310 c 0,9,10
 577 268 577 268 573 235 c 0,11,12
 566 152 566 152 523 102 c 0,13,14
 513 91 513 91 482 60 c 128,-1,15
 451 29 451 29 444 24 c 0,16,17
 410 -2 410 -2 360 -11 c 0,18,19
 327 -17 327 -17 289 -10 c 0,20,21
 244 -3 244 -3 208 24 c 0,22,23
 201 29 201 29 171.5 58.5 c 128,-1,24
 142 88 142 88 132 99 c 0,25,26
 92 147 92 147 83 221 c 0,27,28
 82 232 82 232 82 261 c 128,-1,29
 82 290 82 290 83 301 c 0,30,31
 92 377 92 377 132 426 c 0,32,33
 143 438 143 438 174.5 469 c 128,-1,34
 206 500 206 500 214 505 c 0,35,36
 253 533 253 533 304 539 c 0,0,1
357 443 m 0,37,38
 323 445 323 445 306 444 c 0,39,40
 259 439 259 439 224 418 c 0,41,42
 214 412 214 412 205 395 c 0,43,44
 171 331 171 331 177 242 c 0,45,46
 181 174 181 174 212 123 c 0,47,48
 217 115 217 115 226 110 c 0,49,50
 265 86 265 86 314 83 c 0,51,52
 368 78 368 78 418 101 c 0,53,54
 432 108 432 108 436.5 111.5 c 128,-1,55
 441 115 441 115 446 124 c 0,56,57
 482 187 482 187 479 273 c 0,58,59
 476 340 476 340 452 388 c 0,60,61
 441 410 441 410 431 416 c 0,62,63
 400 436 400 436 357 443 c 0,37,38
EndSplineSet
Validated: 33
EndChar

StartChar: p
Encoding: 112 112 115
Width: 654
GlyphClass: 2
Flags: W
LayerCount: 2
Fore
SplineSet
304 539 m 0,0,1
 328 541 328 541 353 539 c 0,2,3
 406 532 406 532 444 505 c 0,4,5
 453 499 453 499 484.5 468 c 128,-1,6
 516 437 516 437 525 426 c 0,7,8
 562 380 562 380 572 310 c 0,9,10
 577 268 577 268 573 235 c 0,11,12
 566 152 566 152 523 102 c 0,13,14
 513 91 513 91 482 60 c 128,-1,15
 451 29 451 29 444 24 c 0,16,17
 410 -2 410 -2 360 -11 c 0,18,19
 327 -17 327 -17 289 -10 c 0,20,21
 232 0 232 0 188 42 c 2,22,-1
 176 53 l 1,23,-1
 176 -40 l 1,24,-1
 176 -133 l 1,25,-1
 152 -157 l 1,26,-1
 127 -181 l 1,27,-1
 104 -159 l 1,28,-1
 81 -136 l 1,29,-1
 81 173 l 1,30,-1
 81 483 l 1,31,-1
 105 507 l 1,32,-1
 130 531 l 1,33,-1
 153 509 l 1,34,-1
 176 486 l 1,35,-1
 176 478 l 1,36,-1
 176 471 l 1,37,-1
 190 485 l 2,38,39
 217 509 217 509 237 519 c 0,40,41
 270 535 270 535 304 539 c 0,0,1
357 443 m 0,42,43
 323 445 323 445 306 444 c 0,44,45
 259 439 259 439 224 418 c 0,46,47
 214 412 214 412 205 395 c 0,48,49
 171 331 171 331 177 242 c 0,50,51
 181 174 181 174 212 123 c 0,52,53
 217 115 217 115 226 110 c 0,54,55
 265 86 265 86 314 83 c 0,56,57
 368 78 368 78 418 101 c 0,58,59
 432 108 432 108 436.5 111.5 c 128,-1,60
 441 115 441 115 446 124 c 0,61,62
 482 187 482 187 479 273 c 0,63,64
 476 340 476 340 452 388 c 0,65,66
 441 410 441 410 431 416 c 0,67,68
 400 436 400 436 357 443 c 0,42,43
EndSplineSet
Validated: 33
EndChar

StartChar: q
Encoding: 113 113 116
Width: 654
GlyphClass: 2
Flags: W
LayerCount: 2
Fore
SplineSet
304 539 m 0,0,1
 328 541 328 541 353 539 c 0,2,3
 390 534 390 534 421 519 c 0,4,5
 446 505 446 505 466 486 c 2,6,-1
 479 474 l 1,7,-1
 479 478 l 1,8,-1
 479 483 l 1,9,-1
 503 507 l 1,10,-1
 528 531 l 1,11,-1
 551 509 l 1,12,-1
 574 486 l 1,13,-1
 574 177 l 1,14,-1
 574 -133 l 1,15,-1
 550 -157 l 1,16,-1
 525 -181 l 1,17,-1
 502 -159 l 1,18,-1
 479 -136 l 1,19,-1
 479 -40 l 1,20,-1
 479 56 l 1,21,-1
 466 43 l 2,22,23
 447 25 447 25 427 13 c 0,24,25
 396 -5 396 -5 360 -11 c 0,26,27
 327 -17 327 -17 289 -10 c 0,28,29
 244 -3 244 -3 208 24 c 0,30,31
 201 29 201 29 171.5 58.5 c 128,-1,32
 142 88 142 88 132 99 c 0,33,34
 92 147 92 147 83 221 c 0,35,36
 82 232 82 232 82 261 c 128,-1,37
 82 290 82 290 83 301 c 0,38,39
 92 377 92 377 132 426 c 0,40,41
 143 438 143 438 174.5 469 c 128,-1,42
 206 500 206 500 214 505 c 0,43,44
 253 533 253 533 304 539 c 0,0,1
357 443 m 0,45,46
 323 445 323 445 306 444 c 0,47,48
 259 439 259 439 224 418 c 0,49,50
 214 412 214 412 205 395 c 0,51,52
 171 331 171 331 177 242 c 0,53,54
 181 174 181 174 212 123 c 0,55,56
 217 115 217 115 226 110 c 0,57,58
 265 86 265 86 314 83 c 0,59,60
 368 78 368 78 418 101 c 0,61,62
 432 108 432 108 436.5 111.5 c 128,-1,63
 441 115 441 115 446 124 c 0,64,65
 482 187 482 187 479 273 c 0,66,67
 476 340 476 340 452 388 c 0,68,69
 441 410 441 410 431 416 c 0,70,71
 400 436 400 436 357 443 c 0,45,46
EndSplineSet
Validated: 33
EndChar

StartChar: r
Encoding: 114 114 117
Width: 654
GlyphClass: 2
Flags: W
LayerCount: 2
Fore
SplineSet
365 534 m 0,0,1
 386 538 386 538 409 532 c 0,2,3
 428 526 428 526 441 517 c 0,4,5
 446 513 446 513 480 481 c 0,6,7
 518 442 518 442 527 422 c 0,8,9
 543 391 543 391 545 355 c 2,10,-1
 545 343 l 1,11,-1
 521 318 l 1,12,-1
 496 294 l 1,13,-1
 473 316 l 1,14,-1
 450 339 l 1,15,-1
 449 353 l 2,16,17
 446 390 446 390 432 418 c 0,18,19
 428 428 428 428 421 431 c 0,20,21
 419 432 419 432 404 437 c 0,22,23
 396 439 396 439 380 439 c 128,-1,24
 364 439 364 439 356 437 c 0,25,26
 338 432 338 432 326 424 c 0,27,28
 320 420 320 420 313 411 c 0,29,30
 283 365 283 365 270 303 c 2,31,-1
 267 289 l 1,32,-1
 267 164 l 1,33,-1
 267 38 l 1,34,-1
 242 14 l 1,35,-1
 217 -11 l 1,36,-1
 195 12 l 1,37,-1
 172 35 l 1,38,-1
 172 259 l 1,39,-1
 172 482 l 1,40,-1
 196 507 l 1,41,-1
 221 531 l 1,42,-1
 244 509 l 1,43,-1
 267 486 l 1,44,-1
 267 475 l 1,45,-1
 267 465 l 1,46,-1
 288 486 l 2,47,48
 313 509 313 509 318 512 c 0,49,50
 339 528 339 528 365 534 c 0,0,1
EndSplineSet
Validated: 33
EndChar

StartChar: s
Encoding: 115 115 118
Width: 654
GlyphClass: 2
Flags: W
LayerCount: 2
Fore
SplineSet
303 538 m 0,0,1
 325 541 325 541 355 539 c 0,2,3
 386 536 386 536 414 523 c 0,4,5
 436 512 436 512 469 478 c 0,6,7
 496 452 496 452 504 442 c 0,8,9
 516 427 516 427 519 413 c 0,10,11
 521 411 521 411 495 387 c 2,12,-1
 470 362 l 1,13,-1
 447 385 l 2,14,15
 424 409 424 409 422 416 c 2,16,-1
 419 423 l 1,17,-1
 410 428 l 2,18,19
 376 444 376 444 333 444.5 c 128,-1,20
 290 445 290 445 254 431 c 0,21,22
 241 426 241 426 238 424 c 128,-1,23
 235 422 235 422 232 414 c 0,24,25
 224 393 224 393 227 373 c 0,26,27
 228 359 228 359 235 342 c 2,28,-1
 238 335 l 1,29,-1
 247 331 l 2,30,31
 277 317 277 317 341 308 c 0,32,33
 383 301 383 301 395 298 c 0,34,35
 428 288 428 288 447 275 c 0,36,37
 455 270 455 270 486 240 c 0,38,39
 515 211 515 211 521 203 c 0,40,41
 531 190 531 190 538 171 c 0,42,43
 542 151 542 151 539 134 c 0,44,45
 536 113 536 113 521 93 c 0,46,47
 513 83 513 83 484 55 c 0,48,49
 448 18 448 18 424 7 c 0,50,51
 381 -14 381 -14 324 -13 c 0,52,53
 275 -12 275 -12 233 7 c 0,54,55
 209 19 209 19 174 54 c 0,56,57
 133 94 133 94 123 116 c 2,58,-1
 120 123 l 1,59,-1
 145 148 l 1,60,-1
 169 173 l 1,61,-1
 193 150 l 1,62,-1
 216 126 l 2,63,64
 216 125 216 125 220 117 c 2,65,-1
 223 109 l 1,66,-1
 233 104 l 2,67,68
 276 83 276 83 335 83 c 0,69,70
 386 83 386 83 427 101 c 0,71,72
 436 106 436 106 438 111 c 0,73,74
 454 147 454 147 437 180 c 0,75,76
 435 186 435 186 425 190 c 0,77,78
 411 197 411 197 383 205 c 0,79,80
 377 206 377 206 321 215 c 0,81,82
 272 222 272 222 244 235 c 0,83,84
 224 245 224 245 183 286 c 0,85,86
 155 314 155 314 146.5 325.5 c 128,-1,87
 138 337 138 337 133 356 c 0,88,89
 131 363 131 363 131.5 378.5 c 128,-1,90
 132 394 132 394 134 402 c 0,91,92
 141 424 141 424 151 436 c 0,93,94
 159 446 159 446 188 474 c 0,95,96
 225 511 225 511 245 521 c 0,97,98
 275 535 275 535 303 538 c 0,0,1
EndSplineSet
Validated: 33
EndChar

StartChar: t
Encoding: 116 116 119
Width: 654
GlyphClass: 2
Flags: W
LayerCount: 2
Fore
SplineSet
247 649 m 1,0,-1
 272 673 l 1,1,2
 283 663 283 663 295 650 c 2,3,-1
 318 628 l 1,4,-1
 318 575 l 1,5,-1
 318 523 l 1,6,-1
 393 523 l 1,7,-1
 469 523 l 1,8,-1
 492 500 l 1,9,-1
 514 477 l 1,10,-1
 490 452 l 1,11,-1
 466 428 l 1,12,-1
 392 428 l 1,13,-1
 318 428 l 1,14,-1
 318 259 l 1,15,-1
 318 90 l 1,16,-1
 395 90 l 1,17,-1
 471 90 l 1,18,-1
 494 67 l 1,19,-1
 517 45 l 1,20,-1
 492 20 l 1,21,-1
 468 -5 l 1,22,-1
 368 -5 l 1,23,-1
 269 -5 l 1,24,-1
 246 18 l 1,25,-1
 223 40 l 1,26,-1
 223 234 l 1,27,-1
 223 428 l 1,28,-1
 182 428 l 1,29,-1
 140 428 l 1,30,-1
 117 451 l 1,31,-1
 95 474 l 1,32,-1
 119 499 l 1,33,-1
 143 523 l 1,34,-1
 183 523 l 1,35,-1
 223 523 l 1,36,-1
 223 574 l 1,37,-1
 223 624 l 1,38,-1
 247 649 l 1,0,-1
EndSplineSet
Validated: 1
EndChar

StartChar: u
Encoding: 117 117 120
Width: 654
GlyphClass: 2
Flags: W
LayerCount: 2
Fore
SplineSet
119 507 m 1,0,-1
 144 531 l 1,1,2
 155 521 155 521 167 508 c 2,3,-1
 190 486 l 1,4,-1
 190 351 l 2,5,6
 190 209 190 209 191 199 c 0,7,8
 194 149 194 149 210 115 c 2,9,-1
 216 105 l 1,10,-1
 225 100 l 2,11,12
 255 85 255 85 294.5 83 c 128,-1,13
 334 81 334 81 365 92 c 0,14,15
 383 100 383 100 405 113 c 0,16,17
 416 122 416 122 420 127 c 0,18,19
 446 165 446 165 462 207 c 2,20,-1
 465 216 l 1,21,-1
 465 349 l 1,22,-1
 465 483 l 1,23,-1
 489 507 l 1,24,-1
 514 531 l 1,25,-1
 537 509 l 1,26,-1
 560 486 l 1,27,-1
 560 262 l 1,28,-1
 560 39 l 1,29,-1
 535 14 l 1,30,-1
 511 -11 l 1,31,-1
 488 12 l 1,32,-1
 465 34 l 1,33,-1
 465 54 l 1,34,-1
 465 74 l 1,35,-1
 445 54 l 2,36,37
 417 27 417 27 392 12 c 0,38,39
 348 -14 348 -14 296 -13 c 128,-1,40
 244 -12 244 -12 205 14 c 0,41,42
 196 20 196 20 163.5 52 c 128,-1,43
 131 84 131 84 125 93 c 0,44,45
 108 118 108 118 102 149 c 0,46,47
 97 169 97 169 96.5 186.5 c 128,-1,48
 96 204 96 204 95 333 c 2,49,-1
 95 482 l 1,50,-1
 119 507 l 1,0,-1
EndSplineSet
Validated: 33
EndChar

StartChar: v
Encoding: 118 118 121
Width: 654
GlyphClass: 2
Flags: W
LayerCount: 2
Fore
SplineSet
108 506 m 1,0,-1
 133 531 l 1,1,2
 144 521 144 521 156 508 c 2,3,-1
 179 486 l 1,4,-1
 253 277 l 2,5,6
 273 222 273 222 290.5 172.5 c 128,-1,7
 308 123 308 123 318 95.5 c 128,-1,8
 328 68 328 68 328 69 c 0,9,10
 362 162 362 162 402 276 c 2,11,-1
 476 483 l 1,12,-1
 501 507 l 1,13,-1
 525 531 l 1,14,-1
 548 508 l 1,15,-1
 571 485 l 1,16,-1
 492 262 l 1,17,-1
 412 39 l 1,18,-1
 387 14 l 1,19,-1
 363 -11 l 1,20,-1
 344 7 l 1,21,-1
 326 26 l 1,22,-1
 307 7 l 1,23,-1
 288 -11 l 1,24,-1
 266 12 l 1,25,-1
 243 35 l 1,26,-1
 163 258 l 1,27,-1
 83 482 l 1,28,-1
 108 506 l 1,0,-1
EndSplineSet
Validated: 1
EndChar

StartChar: w
Encoding: 119 119 122
Width: 654
GlyphClass: 2
Flags: W
LayerCount: 2
Fore
SplineSet
121 527 m 0,0,1
 131 531 131 531 132 531 c 0,2,3
 135 531 135 531 156 508 c 2,4,-1
 179 485 l 1,5,-1
 154 461 l 1,6,-1
 130 436 l 1,7,-1
 119 432 l 2,8,9
 96 421 96 421 79 410 c 0,10,11
 70 403 70 403 65 396 c 0,12,13
 45 365 45 365 35 326 c 0,14,15
 29 301 29 301 29 270 c 0,16,17
 29 238 29 238 36 207 c 0,18,19
 50 160 50 160 72 131 c 0,20,21
 83 116 83 116 124 100 c 0,22,23
 175 81 175 81 219 83 c 0,24,25
 248 85 248 85 250 87 c 1,26,27
 247 90 247 90 243 95 c 0,28,29
 203 138 203 138 203 192 c 0,30,31
 203 220 203 220 217 245 c 0,32,33
 220 249 220 249 249.5 279 c 128,-1,34
 279 309 279 309 286 316 c 0,35,36
 315 337 315 337 344 329 c 0,37,38
 352 328 352 328 369 318 c 0,39,40
 373 315 373 315 401 287.5 c 128,-1,41
 429 260 429 260 434 254 c 0,42,43
 443 241 443 241 449 221 c 0,44,45
 454 200 454 200 451 176 c 0,46,47
 444 134 444 134 411 97 c 2,48,-1
 402 88 l 2,49,50
 402 84 402 84 447 84 c 0,51,52
 517 84 517 84 571 120 c 0,53,54
 580 126 580 126 587 135 c 0,55,56
 638 213 638 213 622 307 c 0,57,58
 614 356 614 356 588 394 c 0,59,60
 582 404 582 404 573 410 c 0,61,62
 548 425 548 425 532 432 c 2,63,-1
 521 436 l 1,64,-1
 498 459 l 1,65,-1
 476 482 l 1,66,-1
 500 507 l 1,67,-1
 525 531 l 1,68,-1
 529 530 l 2,69,70
 545 526 545 526 568 510 c 0,71,72
 589 498 589 498 629 459 c 0,73,74
 670 418 670 418 682 400 c 0,75,76
 714 353 714 353 720 293 c 0,77,78
 724 262 724 262 718 232 c 0,79,80
 706 164 706 164 666 117 c 0,81,82
 656 105 656 105 623 72.5 c 128,-1,83
 590 40 590 40 581 34 c 0,84,85
 551 12 551 12 516 0 c 0,86,87
 474 -13 474 -13 437 -12 c 0,88,89
 382 -11 382 -11 335 13 c 2,90,-1
 325 19 l 1,91,-1
 318 15 l 2,92,93
 311 10 311 10 301 7 c 0,94,95
 244 -18 244 -18 181 -10.5 c 128,-1,96
 118 -3 118 -3 69 34 c 0,97,98
 61 40 61 40 30 70 c 128,-1,99
 -1 100 -1 100 -12 113 c 0,100,101
 -67 177 -67 177 -67 267 c 0,102,103
 -67 352 -67 352 -14 414 c 0,104,105
 -3 427 -3 427 30 459 c 128,-1,106
 63 491 63 491 71 497 c 0,107,108
 92 514 92 514 121 527 c 0,0,1
342 233 m 0,109,110
 329 237 329 237 318 235 c 0,111,112
 315 235 315 235 309 233 c 2,113,-1
 304 232 l 1,114,-1
 302 224 l 2,115,116
 295 196 295 196 301 171 c 0,117,118
 305 152 305 152 314 133.5 c 128,-1,119
 323 115 323 115 329 115 c 0,120,121
 333 115 333 115 341 130 c 0,122,123
 365 177 365 177 353 220 c 0,124,125
 350 231 350 231 342 233 c 0,109,110
EndSplineSet
Validated: 33
EndChar

StartChar: x
Encoding: 120 120 123
Width: 654
GlyphClass: 2
Flags: W
LayerCount: 2
Fore
SplineSet
150 507 m 1,0,-1
 175 531 l 1,1,-1
 199 507 l 1,2,-1
 223 484 l 1,3,-1
 276 405 l 2,4,5
 299 372 299 372 314 349.5 c 128,-1,6
 329 327 329 327 329 328 c 0,7,8
 353 363 353 363 381 405 c 2,9,-1
 433 482 l 1,10,-1
 458 506 l 1,11,-1
 483 531 l 1,12,-1
 506 508 l 1,13,-1
 529 486 l 1,14,-1
 455 377 l 2,15,16
 383 269 383 269 381 267 c 0,17,18
 417 215 417 215 460 152 c 2,19,-1
 540 39 l 1,20,-1
 515 14 l 1,21,-1
 491 -11 l 1,22,-1
 468 12 l 1,23,-1
 445 34 l 1,24,-1
 386 119 l 1,25,-1
 326 204 l 1,26,27
 300 167 300 167 268 122 c 2,28,-1
 211 40 l 1,29,-1
 186 14 l 1,30,-1
 161 -11 l 1,31,-1
 138 12 l 1,32,-1
 115 35 l 1,33,-1
 194 149 l 1,34,-1
 274 263 l 1,35,-1
 214 352 l 2,36,37
 200 372 200 372 182.5 398 c 128,-1,38
 165 424 165 424 154 440 c 128,-1,39
 143 456 143 456 140 461 c 2,40,-1
 126 482 l 1,41,-1
 150 507 l 1,0,-1
EndSplineSet
Validated: 1
EndChar

StartChar: y
Encoding: 121 121 124
Width: 654
GlyphClass: 2
Flags: W
LayerCount: 2
Fore
SplineSet
105 507 m 2,0,-1
 130 531 l 1,1,2
 141 521 141 521 154 508 c 2,3,-1
 177 485 l 1,4,-1
 254 351 l 1,5,-1
 332 217 l 1,6,7
 365 277 365 277 404 350 c 2,8,-1
 476 483 l 1,9,-1
 501 507 l 1,10,-1
 525 531 l 1,11,-1
 548 508 l 1,12,-1
 571 485 l 1,13,-1
 487 329 l 2,14,15
 465 288 465 288 408.5 183.5 c 128,-1,16
 352 79 352 79 332 42 c 2,17,-1
 261 -89 l 1,18,-1
 247 -105 l 2,19,20
 228 -127 228 -127 209 -144 c 2,21,-1
 186 -167 l 1,22,-1
 156 -173 l 1,23,-1
 127 -179 l 1,24,-1
 103 -156 l 1,25,-1
 80 -133 l 1,26,-1
 105 -108 l 1,27,-1
 130 -83 l 1,28,-1
 153 -79 l 1,29,-1
 176 -74 l 1,30,-1
 230 27 l 1,31,-1
 285 129 l 1,32,-1
 183 305 l 1,33,-1
 81 482 l 1,34,35
 92 493 92 493 105 507 c 2,0,-1
EndSplineSet
Validated: 1
EndChar

StartChar: z
Encoding: 122 122 125
Width: 654
GlyphClass: 2
Flags: W
LayerCount: 2
Fore
SplineSet
148 495 m 1,0,-1
 172 520 l 1,1,-1
 327 520 l 1,2,-1
 481 520 l 1,3,-1
 503 497 l 1,4,-1
 526 475 l 1,5,-1
 385 286 l 1,6,-1
 244 97 l 1,7,-1
 373 96 l 1,8,-1
 503 96 l 1,9,-1
 526 73 l 1,10,-1
 548 50 l 1,11,-1
 524 25 l 1,12,-1
 500 1 l 1,13,-1
 330 1 l 1,14,-1
 160 1 l 1,15,-1
 138 24 l 1,16,-1
 115 47 l 1,17,-1
 119 53 l 2,18,19
 119 54 119 54 127 64.5 c 128,-1,20
 135 75 135 75 148.5 93 c 128,-1,21
 162 111 162 111 178.5 133 c 128,-1,22
 195 155 195 155 217 184.5 c 128,-1,23
 239 214 239 214 260 242 c 2,24,-1
 396 425 l 1,25,-1
 282 425 l 1,26,-1
 169 425 l 1,27,-1
 146 448 l 1,28,-1
 123 470 l 1,29,-1
 148 495 l 1,0,-1
EndSplineSet
Validated: 1
EndChar

StartChar: braceleft
Encoding: 123 123 126
Width: 654
GlyphClass: 2
Flags: W
LayerCount: 2
Fore
SplineSet
440 767 m 0,0,1
 441 767 441 767 448.5 767.5 c 128,-1,2
 456 768 456 768 467 768 c 128,-1,3
 478 768 478 768 488 768 c 2,4,-1
 528 767 l 1,5,-1
 551 744 l 1,6,-1
 574 722 l 1,7,-1
 549 697 l 1,8,-1
 525 672 l 1,9,-1
 484 672 l 2,10,11
 432 672 432 672 411 668 c 0,12,13
 387 662 387 662 372 655 c 2,14,-1
 365 652 l 1,15,-1
 361 643 l 2,16,17
 346 609 346 609 346 530 c 0,18,19
 346 463 346 463 324 431 c 0,20,21
 314 418 314 418 297 402 c 2,22,-1
 275 379 l 1,23,-1
 296 357 l 2,24,25
 317 336 317 336 323 327 c 0,26,27
 335 309 335 309 339 290 c 0,28,29
 345 269 345 269 346 219 c 0,30,31
 347 145 347 145 363 112 c 2,32,-1
 367 102 l 1,33,-1
 376 98 l 2,34,35
 398 89 398 89 425 85 c 0,36,37
 431 84 431 84 481 84 c 2,38,-1
 529 84 l 1,39,-1
 551 61 l 1,40,-1
 574 38 l 1,41,-1
 549 14 l 1,42,-1
 524 -11 l 1,43,-1
 482 -12 l 2,44,45
 424 -12 424 -12 406 -8 c 0,46,47
 375 -2 375 -2 351 15 c 0,48,49
 343 21 343 21 313.5 51 c 128,-1,50
 284 81 284 81 279 88 c 0,51,52
 263 111 263 111 257 138 c 0,53,54
 252 159 252 159 251 210 c 0,55,56
 250 271 250 271 241 297 c 0,57,58
 235 313 235 313 228 316 c 0,59,60
 201 327 201 327 151 330 c 2,61,-1
 126 331 l 1,62,-1
 103 354 l 1,63,-1
 80 376 l 1,64,-1
 105 401 l 1,65,-1
 129 426 l 1,66,-1
 138 426 l 2,67,68
 167 426 167 426 191 430 c 0,69,70
 216 434 216 434 230 440 c 2,71,-1
 237 443 l 1,72,-1
 240 451 l 2,73,74
 247 467 247 467 249 489 c 0,75,76
 249 491 249 491 249.5 498.5 c 128,-1,77
 250 506 250 506 250.5 518.5 c 128,-1,78
 251 531 251 531 251 540 c 0,79,80
 252 591 252 591 257 611 c 0,81,82
 261 639 261 639 280 665 c 0,83,84
 281 667 281 667 286.5 672.5 c 128,-1,85
 292 678 292 678 301.5 687.5 c 128,-1,86
 311 697 311 697 317 704 c 0,87,88
 351 737 351 737 357 740 c 0,89,90
 390 761 390 761 440 767 c 0,0,1
EndSplineSet
Validated: 1
EndChar

StartChar: bar
Encoding: 124 124 127
Width: 654
GlyphClass: 2
Flags: W
LayerCount: 2
Fore
SplineSet
304 743 m 1,0,-1
 329 767 l 1,1,2
 340 757 340 757 352 744 c 2,3,-1
 375 722 l 1,4,-1
 375 306 l 1,5,-1
 375 -110 l 1,6,-1
 351 -134 l 1,7,-1
 326 -158 l 1,8,-1
 303 -136 l 1,9,-1
 280 -113 l 1,10,-1
 280 303 l 1,11,-1
 280 718 l 1,12,-1
 304 743 l 1,0,-1
EndSplineSet
Validated: 1
EndChar

StartChar: braceright
Encoding: 125 125 128
Width: 654
GlyphClass: 2
Flags: W
LayerCount: 2
Fore
SplineSet
139 767 m 2,0,1
 154 768 154 768 188 767.5 c 128,-1,2
 222 767 222 767 228 766 c 0,3,4
 247 763 247 763 264 758 c 0,5,6
 285 751 285 751 306 737 c 0,7,8
 315 730 315 730 344 700.5 c 128,-1,9
 373 671 373 671 378 664 c 0,10,11
 395 638 395 638 401 599 c 0,12,13
 404 563 404 563 404 526 c 0,14,15
 404 484 404 484 413 458 c 0,16,17
 417 448 417 448 418.5 445.5 c 128,-1,18
 420 443 420 443 428 440 c 0,19,20
 445 433 445 433 468 430 c 0,21,22
 490 426 490 426 520 426 c 2,23,-1
 529 426 l 1,24,-1
 551 403 l 1,25,-1
 574 380 l 1,26,-1
 549 356 l 1,27,-1
 525 331 l 1,28,-1
 500 330 l 2,29,30
 458 329 458 329 427 318 c 0,31,32
 419 315 419 315 417 310 c 0,33,34
 403 278 403 278 403 212 c 0,35,36
 403 158 403 158 393 127 c 0,37,38
 386 107 386 107 377.5 95 c 128,-1,39
 369 83 369 83 340 54 c 0,40,41
 305 19 305 19 300 15 c 0,42,43
 276 -2 276 -2 245 -8 c 0,44,45
 227 -12 227 -12 169 -12 c 2,46,-1
 127 -11 l 1,47,-1
 104 12 l 1,48,-1
 81 35 l 1,49,-1
 105 60 l 1,50,-1
 129 84 l 1,51,-1
 177 84 l 2,52,53
 226 84 226 84 237 85 c 0,54,55
 263 89 263 89 282 98 c 0,56,57
 288 101 288 101 291 107 c 0,58,59
 303 131 303 131 306 164 c 0,60,61
 308 176 308 176 308 217 c 0,62,63
 309 261 309 261 311 270 c 0,64,65
 316 294 316 294 320 304 c 0,66,67
 329 326 329 326 358 354 c 2,68,-1
 379 376 l 1,69,-1
 356 400 l 2,70,71
 333 423 333 423 328 432 c 0,72,73
 315 454 315 454 310 489 c 0,74,75
 308 499 308 499 308 540 c 0,76,77
 307 589 307 589 302 611 c 0,78,79
 298 633 298 633 291 644 c 0,80,81
 288 651 288 651 279 655 c 0,82,83
 261 663 261 663 240 668 c 0,84,85
 219 672 219 672 167 672 c 2,86,-1
 126 672 l 1,87,-1
 103 695 l 1,88,-1
 81 718 l 1,89,-1
 105 742 l 1,90,-1
 129 767 l 1,91,-1
 139 767 l 2,0,1
EndSplineSet
Validated: 33
EndChar

StartChar: asciitilde
Encoding: 126 126 129
Width: 654
GlyphClass: 2
Flags: W
LayerCount: 2
Fore
SplineSet
219 716 m 0,0,1
 220 716 220 716 227 716.5 c 128,-1,2
 234 717 234 717 238 717 c 0,3,4
 261 716 261 716 280 706 c 0,5,6
 301 695 301 695 329 674 c 0,7,8
 353 655 353 655 376 642 c 0,9,10
 404 628 404 628 432 631 c 0,11,12
 454 633 454 633 459 638 c 2,13,-1
 460 640 l 2,14,15
 460 641 460 641 461 643.5 c 128,-1,16
 462 646 462 646 462 648 c 2,17,-1
 465 656 l 1,18,-1
 489 680 l 1,19,-1
 514 705 l 1,20,-1
 537 682 l 1,21,-1
 560 658 l 1,22,-1
 558 651 l 2,23,24
 553 635 553 635 543 622 c 0,25,26
 538 615 538 615 507.5 585 c 128,-1,27
 477 555 477 555 472 551 c 0,28,29
 459 543 459 543 444 538 c 0,30,31
 436 536 436 536 419 536 c 128,-1,32
 402 536 402 536 394 538 c 0,33,34
 372 545 372 545 353 558 c 0,35,36
 351 560 351 560 346 563.5 c 128,-1,37
 341 567 341 567 334 572 c 128,-1,38
 327 577 327 577 322 581 c 0,39,40
 289 605 289 605 271 613 c 0,41,42
 237 628 237 628 204 617 c 2,43,-1
 196 615 l 1,44,-1
 193 605 l 1,45,-1
 190 596 l 1,46,-1
 165 571 l 1,47,-1
 140 547 l 1,48,-1
 118 570 l 1,49,-1
 95 593 l 1,50,-1
 96 598 l 2,51,52
 96 601 96 601 100 611 c 0,53,54
 108 629 108 629 143 663 c 0,55,56
 169 690 169 690 179 698 c 0,57,58
 197 713 197 713 219 716 c 0,0,1
EndSplineSet
Validated: 33
EndChar

StartChar: sfthyphen
Encoding: 173 173 130
Width: 654
GlyphClass: 2
Flags: W
LayerCount: 2
Fore
SplineSet
219 401 m 1,0,-1
 243 426 l 1,1,-1
 266 403 l 1,2,-1
 289 381 l 1,3,-1
 289 352 l 1,4,-1
 289 324 l 1,5,-1
 264 299 l 1,6,-1
 240 274 l 1,7,-1
 217 297 l 1,8,-1
 194 319 l 1,9,-1
 194 348 l 1,10,-1
 194 376 l 1,11,-1
 219 401 l 1,0,-1
390 401 m 1,12,-1
 414 426 l 1,13,-1
 437 403 l 1,14,-1
 460 381 l 1,15,-1
 460 352 l 1,16,-1
 460 324 l 1,17,-1
 435 299 l 1,18,-1
 411 274 l 1,19,-1
 388 297 l 1,20,-1
 365 319 l 1,21,-1
 365 348 l 1,22,-1
 365 376 l 1,23,-1
 390 401 l 1,12,-1
EndSplineSet
Validated: 1
EndChar

StartChar: Abreve
Encoding: 286 258 131
Width: 654
GlyphClass: 2
Flags: W
LayerCount: 2
Fore
SplineSet
218 686 m 1,0,-1
 243 710 l 1,1,2
 254 700 254 700 266 687 c 2,3,-1
 289 665 l 1,4,-1
 289 636 l 1,5,-1
 289 607 l 1,6,-1
 265 583 l 1,7,-1
 240 559 l 1,8,-1
 217 581 l 1,9,-1
 194 604 l 1,10,-1
 194 633 l 1,11,-1
 194 661 l 1,12,-1
 218 686 l 1,0,-1
389 686 m 1,13,-1
 414 710 l 1,14,15
 425 700 425 700 437 687 c 2,16,-1
 460 665 l 1,17,-1
 460 636 l 1,18,-1
 460 607 l 1,19,-1
 436 583 l 1,20,-1
 411 559 l 1,21,-1
 388 581 l 1,22,-1
 365 604 l 1,23,-1
 365 633 l 1,24,-1
 365 661 l 1,25,-1
 389 686 l 1,13,-1
309 539 m 0,26,27
 310 540 310 540 329 540 c 0,28,29
 396 540 396 540 436 511 c 0,30,31
 445 504 445 504 474 474.5 c 128,-1,32
 503 445 503 445 509 437 c 0,33,34
 528 408 528 408 536 358 c 0,35,36
 537 348 537 348 537 193 c 2,37,-1
 537 39 l 1,38,-1
 512 14 l 1,39,-1
 488 -11 l 1,40,-1
 465 12 l 1,41,-1
 442 34 l 1,42,-1
 442 52 l 1,43,-1
 442 70 l 1,44,-1
 425 54 l 2,45,46
 395 23 395 23 363 7 c 0,47,48
 277 -37 277 -37 203 7 c 0,49,50
 189 15 189 15 150 54 c 0,51,52
 114 90 114 90 105 109 c 0,53,54
 95 131 95 131 96 154 c 0,55,56
 96 173 96 173 98 181 c 0,57,58
 104 201 104 201 113 215 c 0,59,60
 118 223 118 223 150 255 c 0,61,62
 178 284 178 284 191 294 c 128,-1,63
 204 304 204 304 221 312 c 0,64,65
 267 332 267 332 402 335 c 0,66,67
 442 335 442 335 442 337 c 0,68,69
 442 351 442 351 437 371 c 0,70,71
 428 418 428 418 417 425 c 0,72,73
 410 431 410 431 383 438 c 0,74,75
 361 444 361 444 328 444 c 0,76,77
 294 444 294 444 269 437 c 0,78,79
 230 427 230 427 187 398 c 0,80,81
 186 397 186 397 163 420 c 2,82,-1
 140 443 l 1,83,-1
 166 468 l 2,84,85
 193 495 193 495 204 502 c 0,86,87
 247 531 247 531 298 538 c 0,88,89
 302 539 302 539 309 539 c 0,26,27
442 212 m 1,90,-1
 442 240 l 1,91,-1
 428 240 l 2,92,93
 425 240 425 240 414 239.5 c 128,-1,94
 403 239 403 239 398 239 c 0,95,96
 358 239 358 239 310 236 c 0,97,98
 249 232 249 232 214 215 c 2,99,-1
 203 210 l 1,100,-1
 200 203 l 2,101,102
 191 184 191 184 191 155 c 0,103,104
 191 133 191 133 201 112 c 2,105,-1
 206 103 l 1,106,-1
 216 97 l 1,107,108
 285 63 285 63 363 100 c 0,109,110
 389 113 389 113 399 123 c 0,111,112
 414 136 414 136 438 177 c 2,113,-1
 442 184 l 1,114,-1
 442 212 l 1,90,-1
EndSplineSet
Validated: 33
EndChar

StartChar: Aogonek
Encoding: 287 260 132
Width: 654
GlyphClass: 2
Flags: W
LayerCount: 2
Fore
SplineSet
218 686 m 1,0,-1
 243 710 l 1,1,2
 254 700 254 700 266 687 c 2,3,-1
 289 665 l 1,4,-1
 289 636 l 1,5,-1
 289 607 l 1,6,-1
 265 583 l 1,7,-1
 240 559 l 1,8,-1
 217 581 l 1,9,-1
 194 604 l 1,10,-1
 194 633 l 1,11,-1
 194 661 l 1,12,-1
 218 686 l 1,0,-1
389 686 m 1,13,-1
 414 710 l 1,14,15
 425 700 425 700 437 687 c 2,16,-1
 460 665 l 1,17,-1
 460 636 l 1,18,-1
 460 607 l 1,19,-1
 436 583 l 1,20,-1
 411 559 l 1,21,-1
 388 581 l 1,22,-1
 365 604 l 1,23,-1
 365 633 l 1,24,-1
 365 661 l 1,25,-1
 389 686 l 1,13,-1
304 539 m 0,26,27
 328 541 328 541 353 539 c 0,28,29
 406 532 406 532 444 505 c 0,30,31
 453 499 453 499 484.5 468 c 128,-1,32
 516 437 516 437 525 426 c 0,33,34
 562 380 562 380 572 310 c 0,35,36
 577 268 577 268 573 235 c 0,37,38
 566 152 566 152 523 102 c 0,39,40
 513 91 513 91 482 60 c 128,-1,41
 451 29 451 29 444 24 c 0,42,43
 410 -2 410 -2 360 -11 c 0,44,45
 327 -17 327 -17 289 -10 c 0,46,47
 244 -3 244 -3 208 24 c 0,48,49
 201 29 201 29 171.5 58.5 c 128,-1,50
 142 88 142 88 132 99 c 0,51,52
 92 147 92 147 83 221 c 0,53,54
 82 232 82 232 82 261 c 128,-1,55
 82 290 82 290 83 301 c 0,56,57
 92 377 92 377 132 426 c 0,58,59
 143 438 143 438 174.5 469 c 128,-1,60
 206 500 206 500 214 505 c 0,61,62
 253 533 253 533 304 539 c 0,26,27
357 443 m 0,63,64
 323 445 323 445 306 444 c 0,65,66
 259 439 259 439 224 418 c 0,67,68
 214 412 214 412 205 395 c 0,69,70
 171 331 171 331 177 242 c 0,71,72
 181 174 181 174 212 123 c 0,73,74
 217 115 217 115 226 110 c 0,75,76
 265 86 265 86 314 83 c 0,77,78
 368 78 368 78 418 101 c 0,79,80
 432 108 432 108 436.5 111.5 c 128,-1,81
 441 115 441 115 446 124 c 0,82,83
 482 187 482 187 479 273 c 0,84,85
 476 340 476 340 452 388 c 0,86,87
 441 410 441 410 431 416 c 0,88,89
 400 436 400 436 357 443 c 0,63,64
EndSplineSet
Validated: 33
EndChar

StartChar: Cacute
Encoding: 288 262 133
Width: 654
GlyphClass: 2
Flags: W
LayerCount: 2
Fore
SplineSet
218 686 m 1,0,-1
 243 710 l 1,1,2
 254 700 254 700 266 687 c 2,3,-1
 289 665 l 1,4,-1
 289 636 l 1,5,-1
 289 607 l 1,6,-1
 265 583 l 1,7,-1
 240 559 l 1,8,-1
 217 581 l 1,9,-1
 194 604 l 1,10,-1
 194 633 l 1,11,-1
 194 661 l 1,12,-1
 218 686 l 1,0,-1
389 686 m 1,13,-1
 414 710 l 1,14,15
 425 700 425 700 437 687 c 2,16,-1
 460 665 l 1,17,-1
 460 636 l 1,18,-1
 460 607 l 1,19,-1
 436 583 l 1,20,-1
 411 559 l 1,21,-1
 388 581 l 1,22,-1
 365 604 l 1,23,-1
 365 633 l 1,24,-1
 365 661 l 1,25,-1
 389 686 l 1,13,-1
119 507 m 1,26,-1
 144 531 l 1,27,28
 155 521 155 521 167 508 c 2,29,-1
 190 486 l 1,30,-1
 190 351 l 2,31,32
 190 209 190 209 191 199 c 0,33,34
 194 149 194 149 210 115 c 2,35,-1
 216 105 l 1,36,-1
 225 100 l 2,37,38
 255 85 255 85 294.5 83 c 128,-1,39
 334 81 334 81 365 92 c 0,40,41
 383 100 383 100 405 113 c 0,42,43
 416 122 416 122 420 127 c 0,44,45
 446 165 446 165 462 207 c 2,46,-1
 465 216 l 1,47,-1
 465 349 l 1,48,-1
 465 483 l 1,49,-1
 489 507 l 1,50,-1
 514 531 l 1,51,-1
 537 509 l 1,52,-1
 560 486 l 1,53,-1
 560 262 l 1,54,-1
 560 39 l 1,55,-1
 535 14 l 1,56,-1
 511 -11 l 1,57,-1
 488 12 l 1,58,-1
 465 34 l 1,59,-1
 465 54 l 1,60,-1
 465 74 l 1,61,-1
 445 54 l 2,62,63
 417 27 417 27 392 12 c 0,64,65
 348 -14 348 -14 296 -13 c 128,-1,66
 244 -12 244 -12 205 14 c 0,67,68
 196 20 196 20 163.5 52 c 128,-1,69
 131 84 131 84 125 93 c 0,70,71
 108 118 108 118 102 149 c 0,72,73
 97 169 97 169 96.5 186.5 c 128,-1,74
 96 204 96 204 95 333 c 2,75,-1
 95 482 l 1,76,-1
 119 507 l 1,26,-1
EndSplineSet
Validated: 33
EndChar

StartChar: Ccaron
Encoding: 289 268 134
Width: 654
GlyphClass: 2
Flags: W
LayerCount: 2
Fore
SplineSet
105 743 m 1,0,-1
 130 767 l 1,1,2
 141 757 141 757 153 744 c 2,3,-1
 176 722 l 1,4,-1
 176 693 l 1,5,-1
 176 665 l 1,6,-1
 151 640 l 1,7,-1
 127 615 l 1,8,-1
 104 638 l 1,9,-1
 81 660 l 1,10,-1
 81 689 l 1,11,-1
 81 718 l 1,12,-1
 105 743 l 1,0,-1
503 743 m 1,13,-1
 528 767 l 1,14,15
 539 757 539 757 551 744 c 2,16,-1
 574 722 l 1,17,-1
 574 693 l 1,18,-1
 574 665 l 1,19,-1
 549 640 l 1,20,-1
 525 615 l 1,21,-1
 502 638 l 1,22,-1
 479 660 l 1,23,-1
 479 689 l 1,24,-1
 479 718 l 1,25,-1
 503 743 l 1,13,-1
293 683 m 1,26,-1
 317 708 l 1,27,-1
 329 708 l 1,28,-1
 341 708 l 1,29,-1
 364 685 l 1,30,-1
 387 662 l 1,31,-1
 479 352 l 1,32,-1
 571 42 l 1,33,-1
 546 17 l 1,34,-1
 522 -8 l 1,35,-1
 499 15 l 1,36,-1
 476 38 l 1,37,-1
 460 90 l 1,38,-1
 444 143 l 2,39,40
 443 144 443 144 328 148.5 c 128,-1,41
 213 153 213 153 212 152 c 0,42,43
 204 127 204 127 195 97 c 2,44,-1
 179 42 l 1,45,-1
 154 17 l 1,46,-1
 129 -8 l 1,47,-1
 106 15 l 1,48,-1
 83 39 l 1,49,-1
 107 118 l 2,50,51
 130 194 130 194 130 199 c 0,52,53
 128 201 128 201 131 202 c 0,54,55
 133 207 133 207 200 432 c 2,56,-1
 268 659 l 1,57,-1
 293 683 l 1,26,-1
372 388 m 0,58,59
 329 534 329 534 327 536 c 0,60,61
 327 537 327 537 322 521.5 c 128,-1,62
 317 506 317 506 306.5 471 c 128,-1,63
 296 436 296 436 283 393 c 0,64,65
 240 250 240 250 240 247 c 2,66,-1
 327 244 l 2,67,68
 414 241 414 241 415 241 c 1,69,70
 415 245 415 245 372 388 c 0,58,59
EndSplineSet
Validated: 33
EndChar

StartChar: Dcaron
Encoding: 290 270 135
Width: 654
GlyphClass: 2
Flags: W
LayerCount: 2
Fore
SplineSet
105 743 m 1,0,-1
 130 767 l 1,1,2
 141 757 141 757 153 744 c 2,3,-1
 176 722 l 1,4,-1
 176 693 l 1,5,-1
 176 665 l 1,6,-1
 151 640 l 1,7,-1
 127 615 l 1,8,-1
 104 638 l 1,9,-1
 81 660 l 1,10,-1
 81 689 l 1,11,-1
 81 718 l 1,12,-1
 105 743 l 1,0,-1
503 743 m 1,13,-1
 528 767 l 1,14,15
 539 757 539 757 551 744 c 2,16,-1
 574 722 l 1,17,-1
 574 693 l 1,18,-1
 574 665 l 1,19,-1
 549 640 l 1,20,-1
 525 615 l 1,21,-1
 502 638 l 1,22,-1
 479 660 l 1,23,-1
 479 689 l 1,24,-1
 479 718 l 1,25,-1
 503 743 l 1,13,-1
308 613 m 0,26,27
 328 617 328 617 360 611 c 0,28,29
 402 602 402 602 434 574 c 0,30,31
 446 565 446 565 475 535 c 128,-1,32
 504 505 504 505 510 496 c 0,33,34
 552 441 552 441 563 348 c 0,35,36
 564 334 564 334 564 301.5 c 128,-1,37
 564 269 564 269 563 255 c 0,38,39
 551 165 551 165 511 111 c 0,40,41
 504 101 504 101 472.5 68.5 c 128,-1,42
 441 36 441 36 429 27 c 0,43,44
 374 -16 374 -16 314 -10 c 0,45,46
 261 -6 261 -6 219 30 c 0,47,48
 209 38 209 38 179.5 68 c 128,-1,49
 150 98 150 98 144 106 c 0,50,51
 126 131 126 131 113 164 c 0,52,53
 97 201 97 201 91 251 c 0,54,55
 90 267 90 267 90 300.5 c 128,-1,56
 90 334 90 334 91 349 c 0,57,58
 102 437 102 437 144 493 c 0,59,60
 150 502 150 502 180.5 533.5 c 128,-1,61
 211 565 211 565 223 574 c 0,62,63
 260 607 260 607 308 613 c 0,26,27
340 518 m 0,64,65
 294 523 294 523 250 500 c 0,66,67
 235 491 235 491 226 477 c 0,68,69
 193 421 193 421 186 344 c 0,70,71
 184 332 184 332 184 303.5 c 128,-1,72
 184 275 184 275 186 264 c 0,73,74
 193 193 193 193 219 143 c 0,75,76
 233 116 233 116 241 111 c 0,77,78
 267 95 267 95 300 88 c 0,79,80
 329 83 329 83 358 88 c 0,81,82
 380 92 380 92 399 102 c 0,83,84
 418 111 418 111 425 121 c 0,85,86
 434 137 434 137 447 164 c 0,87,88
 488 275 488 275 458 397 c 0,89,90
 448 439 448 439 424 480 c 0,91,92
 418 489 418 489 411 494 c 0,93,94
 380 513 380 513 340 518 c 0,64,65
EndSplineSet
Validated: 33
EndChar

StartChar: Ecaron
Encoding: 291 282 136
Width: 654
GlyphClass: 2
Flags: W
LayerCount: 2
Fore
SplineSet
105 743 m 1,0,-1
 129 767 l 1,1,-1
 155 767 l 1,2,-1
 181 767 l 1,3,-1
 204 744 l 1,4,-1
 227 722 l 1,5,-1
 202 697 l 1,6,-1
 178 672 l 1,7,-1
 152 672 l 1,8,-1
 126 672 l 1,9,-1
 103 695 l 1,10,-1
 81 718 l 1,11,-1
 105 743 l 1,0,-1
452 743 m 1,12,-1
 476 767 l 1,13,-1
 502 767 l 1,14,-1
 528 767 l 1,15,-1
 551 744 l 1,16,-1
 574 722 l 1,17,-1
 549 697 l 1,18,-1
 525 672 l 1,19,-1
 499 672 l 1,20,-1
 473 672 l 1,21,-1
 450 695 l 1,22,-1
 428 718 l 1,23,-1
 452 743 l 1,12,-1
105 558 m 1,24,-1
 130 582 l 1,25,26
 141 572 141 572 153 559 c 2,27,-1
 176 537 l 1,28,-1
 176 388 l 2,29,30
 178 231 178 231 178 227 c 0,31,32
 184 163 184 163 202 128 c 2,33,-1
 208 116 l 1,34,-1
 216 111 l 2,35,36
 251 92 251 92 294 86 c 0,37,38
 305 84 305 84 328 84 c 128,-1,39
 351 84 351 84 362 86 c 0,40,41
 409 93 409 93 441 110 c 0,42,43
 449 114 449 114 454 126 c 0,44,45
 471 160 471 160 477 223 c 0,46,47
 477 227 477 227 479 385 c 2,48,-1
 479 534 l 1,49,-1
 504 558 l 1,50,-1
 528 582 l 1,51,-1
 551 559 l 1,52,-1
 574 537 l 1,53,-1
 574 384 l 2,54,55
 573 222 573 222 567 189 c 0,56,57
 558 138 558 138 538 109 c 0,58,59
 534 103 534 103 498 65 c 0,60,61
 460 29 460 29 452 23 c 0,62,63
 403 -10 403 -10 334 -11 c 0,64,65
 299 -11 299 -11 273 -6 c 0,66,67
 231 3 231 3 201 23 c 0,68,69
 191 29 191 29 159 61 c 0,70,71
 118 101 118 101 107 124 c 0,72,73
 90 160 90 160 83 214 c 0,74,75
 82 225 82 225 81 381 c 2,76,-1
 81 533 l 1,77,-1
 105 558 l 1,24,-1
EndSplineSet
Validated: 1
EndChar

StartChar: Eogonek
Encoding: 292 280 137
Width: 654
GlyphClass: 2
Flags: W
LayerCount: 2
Fore
SplineSet
312 766 m 0,0,1
 319 767 319 767 339.5 767 c 128,-1,2
 360 767 360 767 367 766 c 0,3,4
 418 762 418 762 449 738 c 0,5,6
 458 731 458 731 487.5 701.5 c 128,-1,7
 517 672 517 672 522 664 c 128,-1,8
 527 656 527 656 536 638 c 1,9,-1
 537 634 l 1,10,-1
 512 609 l 1,11,-1
 488 584 l 1,12,-1
 464 607 l 2,13,14
 442 629 442 629 440 633 c 0,15,16
 440 635 440 635 436 643 c 2,17,-1
 433 651 l 1,18,-1
 423 655 l 2,19,20
 390 671 390 671 334 671 c 0,21,22
 271 671 271 671 232 652 c 2,23,-1
 222 647 l 1,24,-1
 218 638 l 2,25,26
 211 617 211 617 211 594 c 0,27,28
 211 568 211 568 217 554 c 2,29,-1
 219 547 l 1,30,-1
 226 543 l 2,31,32
 245 535 245 535 262 533 c 0,33,34
 276 530 276 530 338 523 c 0,35,36
 407 517 407 517 431 511 c 0,37,38
 461 504 461 504 481 488 c 0,39,40
 489 482 489 482 518 453 c 0,41,42
 547 423 547 423 551 415 c 0,43,44
 564 391 564 391 563 365 c 0,45,46
 561 343 561 343 552.5 326.5 c 128,-1,47
 544 310 544 310 522 287 c 2,48,-1
 504 269 l 1,49,-1
 523 250 l 2,50,51
 553 219 553 219 560 193 c 0,52,53
 566 169 566 169 562 146 c 0,54,55
 555 117 555 117 540 97 c 0,56,57
 534 88 534 88 502.5 57 c 128,-1,58
 471 26 471 26 463 20 c 0,59,60
 429 -1 429 -1 378 -9 c 0,61,62
 364 -10 364 -10 330 -10 c 128,-1,63
 296 -10 296 -10 283 -9 c 0,64,65
 226 -1 226 -1 192 25 c 0,66,67
 186 29 186 29 156 58.5 c 128,-1,68
 126 88 126 88 120 96 c 0,69,70
 106 113 106 113 101 127 c 2,71,-1
 97 135 l 1,72,-1
 122 160 l 1,73,-1
 147 184 l 1,74,-1
 169 162 l 1,75,-1
 192 140 l 1,76,-1
 199 126 l 1,77,-1
 206 113 l 1,78,-1
 219 106 l 2,79,80
 254 88 254 88 312 85 c 0,81,82
 349 83 349 83 386 87 c 0,83,84
 446 97 446 97 456 111 c 0,85,86
 462 122 462 122 466 140 c 0,87,88
 470 163 470 163 466 185 c 0,89,90
 460 206 460 206 456 210 c 0,91,92
 447 215 447 215 424 221 c 0,93,94
 399 229 399 229 313 235 c 0,95,96
 263 239 263 239 259 240 c 0,97,98
 220 244 220 244 193 257 c 0,99,100
 175 266 175 266 137 303 c 0,101,102
 111 330 111 330 104.5 338.5 c 128,-1,103
 98 347 98 347 93 361 c 0,104,105
 81 395 81 395 103 434 c 0,106,107
 114 451 114 451 140 477 c 2,108,-1
 161 499 l 1,109,-1
 150 510 l 2,110,111
 131 529 131 529 125 542 c 0,112,113
 116 561 116 561 115 585 c 0,114,115
 114 625 114 625 134 657 c 0,116,117
 135 658 135 658 140.5 664 c 128,-1,118
 146 670 146 670 155 679 c 128,-1,119
 164 688 164 688 172 696 c 0,120,121
 209 734 209 734 229 744 c 0,122,123
 263 763 263 763 312 766 c 0,0,1
225 447 m 0,124,125
 219 450 219 450 217 450 c 128,-1,126
 215 450 215 450 208 445.5 c 128,-1,127
 201 441 201 441 200 439 c 0,128,129
 191 426 191 426 187 409 c 0,130,131
 181 383 181 383 189 363 c 2,132,-1
 192 356 l 1,133,-1
 199 352 l 2,134,135
 224 340 224 340 267 335 c 0,136,137
 273 334 273 334 323 330 c 0,138,139
 383 326 383 326 405 322 c 0,140,141
 435 317 435 317 441 313 c 0,142,143
 446 311 446 311 455 320 c 0,144,145
 464 328 464 328 468 360 c 0,146,147
 469 370 469 370 466 385 c 128,-1,148
 463 400 463 400 459 403 c 0,149,150
 455 409 455 409 426 416 c 0,151,152
 405 421 405 421 335 428 c 0,153,154
 252 435 252 435 225 447 c 0,124,125
EndSplineSet
Validated: 33
EndChar

StartChar: Gbreve
Encoding: 293 286 138
Width: 654
GlyphClass: 2
Flags: W
LayerCount: 2
Fore
SplineSet
105 600 m 1,0,-1
 130 625 l 1,1,2
 149 607 149 607 171 584 c 2,3,-1
 212 543 l 1,4,-1
 220 550 l 2,5,6
 254 579 254 579 297 588 c 0,7,8
 306 590 306 590 329 590 c 128,-1,9
 352 590 352 590 361 588 c 0,10,11
 404 579 404 579 438 550 c 2,12,-1
 446 543 l 1,13,-1
 487 584 l 1,14,-1
 528 625 l 1,15,-1
 551 602 l 1,16,-1
 574 580 l 1,17,-1
 533 538 l 1,18,-1
 492 497 l 1,19,-1
 499 489 l 2,20,21
 528 455 528 455 537 412 c 0,22,23
 539 403 539 403 539 380 c 128,-1,24
 539 357 539 357 537 348 c 0,25,26
 528 305 528 305 500 272 c 2,27,-1
 492 264 l 1,28,-1
 533 222 l 1,29,-1
 574 181 l 1,30,-1
 550 156 l 1,31,-1
 525 132 l 1,32,-1
 484 173 l 1,33,-1
 443 214 l 1,34,-1
 435 207 l 2,35,36
 403 178 403 178 358 169 c 0,37,38
 349 167 349 167 326 167 c 128,-1,39
 303 167 303 167 294 169 c 0,40,41
 252 178 252 178 218 207 c 2,42,-1
 209 214 l 1,43,-1
 167 173 l 1,44,-1
 126 132 l 1,45,-1
 103 155 l 1,46,-1
 80 177 l 1,47,-1
 121 219 l 1,48,-1
 163 261 l 1,49,-1
 156 269 l 2,50,51
 127 301 127 301 118 345 c 0,52,53
 116 354 116 354 116 377 c 128,-1,54
 116 400 116 400 118 409 c 0,55,56
 127 452 127 452 156 486 c 2,57,-1
 163 494 l 1,58,-1
 122 535 l 1,59,-1
 81 576 l 1,60,-1
 105 600 l 1,0,-1
341 495 m 0,61,62
 293 500 293 500 249 477 c 0,63,64
 238 472 238 472 237 469 c 0,65,66
 234 468 234 468 229 457 c 0,67,68
 190 381 190 381 229 304 c 0,69,70
 234 294 234 294 239 289 c 0,71,72
 248 280 248 280 279 269 c 0,73,74
 329 253 329 253 382 270 c 0,75,76
 413 281 413 281 418 288 c 0,77,78
 421 289 421 289 426 300 c 0,79,80
 465 376 465 376 426 453 c 0,81,82
 418 469 418 469 402 477 c 0,83,84
 373 492 373 492 341 495 c 0,61,62
EndSplineSet
Validated: 33
EndChar

StartChar: Lacute
Encoding: 294 313 139
Width: 654
GlyphClass: 2
Flags: W
LayerCount: 2
Fore
SplineSet
0 663 m 1,0,-1
 24 688 l 1,1,-1
 47 665 l 1,2,-1
 70 643 l 1,3,-1
 70 287 l 1,4,-1
 70 -69 l 1,5,-1
 45 -94 l 1,6,-1
 21 -119 l 1,7,-1
 -2 -96 l 1,8,-1
 -25 -74 l 1,9,-1
 -25 282 l 1,10,-1
 -25 638 l 1,11,-1
 0 663 l 1,0,-1
EndSplineSet
Validated: 1
EndChar

StartChar: Lcaron
Encoding: 295 317 140
Width: 654
GlyphClass: 2
Flags: W
LayerCount: 2
Fore
SplineSet
154 740 m 1,0,-1
 178 765 l 1,1,-1
 192 765 l 1,2,-1
 206 765 l 1,3,-1
 229 742 l 2,4,5
 252 720 252 720 252 717 c 0,6,7
 252 710 252 710 238 607 c 2,8,-1
 224 500 l 1,9,-1
 199 475 l 1,10,-1
 175 450 l 1,11,-1
 152 473 l 1,12,-1
 129 495 l 1,13,-1
 129 605 l 1,14,-1
 129 715 l 1,15,-1
 154 740 l 1,0,-1
444 740 m 1,16,-1
 468 765 l 1,17,-1
 480 765 l 1,18,-1
 492 765 l 1,19,-1
 514 742 l 1,20,-1
 537 719 l 1,21,-1
 526 610 l 1,22,-1
 515 501 l 1,23,-1
 490 475 l 1,24,-1
 465 450 l 1,25,-1
 442 473 l 1,26,-1
 419 495 l 1,27,-1
 419 605 l 1,28,-1
 419 715 l 1,29,-1
 444 740 l 1,16,-1
EndSplineSet
Validated: 1
EndChar

